<?xml version="1.0" encoding="UTF-8" standalone="no"?>
<!-- Created with Inkscape (http://www.inkscape.org/) -->

<svg
   width="138.36089mm"
   height="89.943016mm"
   viewBox="0 0 138.36089 89.943016"
   version="1.1"
   id="svg5"
   sodipodi:docname="contorno-ex3-prova2.svg"
   inkscape:version="1.1 (c68e22c387, 2021-05-23)"
   xmlns:inkscape="http://www.inkscape.org/namespaces/inkscape"
   xmlns:sodipodi="http://sodipodi.sourceforge.net/DTD/sodipodi-0.dtd"
   xmlns:xlink="http://www.w3.org/1999/xlink"
   xmlns="http://www.w3.org/2000/svg"
   xmlns:svg="http://www.w3.org/2000/svg">
  <sodipodi:namedview
     id="namedview7"
     pagecolor="#ffffff"
     bordercolor="#666666"
     borderopacity="1.0"
     inkscape:pageshadow="2"
     inkscape:pageopacity="0.0"
     inkscape:pagecheckerboard="0"
     inkscape:document-units="mm"
     showgrid="false"
     inkscape:snap-center="true"
     inkscape:snap-object-midpoints="true"
     inkscape:zoom="1"
     inkscape:cx="249.5"
     inkscape:cy="92.5"
     inkscape:window-width="1920"
     inkscape:window-height="1017"
     inkscape:window-x="-8"
     inkscape:window-y="-8"
     inkscape:window-maximized="1"
     inkscape:current-layer="layer1" />
  <defs
     id="defs2">
    <inkscape:path-effect
       effect="bspline"
       id="path-effect5252"
       is_visible="true"
       lpeversion="1"
       weight="33.333333"
       steps="2"
       helper_size="0"
       apply_no_weight="true"
       apply_with_weight="true"
       only_selected="false" />
    <marker
       style="overflow:visible"
       id="Arrow1Lend"
       refX="0"
       refY="0"
       orient="auto"
       inkscape:stockid="Arrow1Lend"
       inkscape:isstock="true">
      <path
         transform="matrix(-0.8,0,0,-0.8,-10,0)"
         style="fill:context-stroke;fill-rule:evenodd;stroke:context-stroke;stroke-width:1pt"
         d="M 0,0 5,-5 -12.5,0 5,5 Z"
         id="path1164" />
    </marker>
    <g
       id="g9599">
      <symbol
         overflow="visible"
         id="symbol1876">
        <path
           style="stroke:none"
           d=""
           id="path3467" />
      </symbol>
      <symbol
         overflow="visible"
         id="symbol6883">
        <path
           style="stroke:none"
           d="M 0.40625,-2.53125 C 0.796875,-3.671875 1.890625,-3.6875 2,-3.6875 c 1.5,0 1.609375,1.75 1.609375,2.53125 0,0.609375 -0.046875,0.78125 -0.125,0.984375 -0.21875,0.71875 -0.515625,1.875 -0.515625,2.140625 0,0.109375 0.046875,0.171875 0.125,0.171875 0.140625,0 0.21875,-0.21875 0.328125,-0.59375 C 3.65625,0.703125 3.75,0.140625 3.78125,-0.171875 c 0.03125,-0.125 0.046875,-0.25 0.09375,-0.390625 0.3125,-0.984375 0.953125,-2.46875 1.34375,-3.25 0.078125,-0.125 0.1875,-0.34375 0.1875,-0.390625 0,-0.09375 -0.09375,-0.09375 -0.109375,-0.09375 -0.03125,0 -0.09375,0 -0.125,0.0625 C 4.65625,-3.28125 4.25,-2.28125 3.859375,-1.28125 3.84375,-1.578125 3.84375,-2.34375 3.453125,-3.3125 3.203125,-3.921875 2.8125,-4.40625 2.125,-4.40625 c -1.25,0 -1.953125,1.515625 -1.953125,1.828125 0,0.09375 0.09375,0.09375 0.203125,0.09375 z m 0,0"
           id="path7137" />
      </symbol>
      <symbol
         overflow="visible"
         id="symbol5804">
        <path
           style="stroke:none"
           d=""
           id="path5554" />
      </symbol>
      <symbol
         overflow="visible"
         id="symbol9831">
        <path
           style="stroke:none"
           d="m 2.328125,-4.4375 c 0,-0.1875 0,-0.1875 -0.203125,-0.1875 -0.453125,0.4375 -1.078125,0.4375 -1.359375,0.4375 v 0.25 c 0.15625,0 0.625,0 1,-0.1875 v 3.546875 c 0,0.234375 0,0.328125 -0.6875,0.328125 H 0.8125 V 0 c 0.125,0 0.984375,-0.03125 1.234375,-0.03125 0.21875,0 1.09375,0.03125 1.25,0.03125 V -0.25 H 3.03125 c -0.703125,0 -0.703125,-0.09375 -0.703125,-0.328125 z m 0,0"
           id="path1069" />
      </symbol>
      <symbol
         overflow="visible"
         id="symbol2157">
        <path
           style="stroke:none"
           d="M 3.515625,-1.265625 H 3.28125 c -0.015625,0.15625 -0.09375,0.5625 -0.1875,0.625 C 3.046875,-0.59375 2.515625,-0.59375 2.40625,-0.59375 H 1.125 c 0.734375,-0.640625 0.984375,-0.84375 1.390625,-1.171875 0.515625,-0.40625 1,-0.84375 1,-1.5 0,-0.84375 -0.734375,-1.359375 -1.625,-1.359375 -0.859375,0 -1.453125,0.609375 -1.453125,1.25 0,0.34375 0.296875,0.390625 0.375,0.390625 0.15625,0 0.359375,-0.125 0.359375,-0.375 0,-0.125 -0.046875,-0.375 -0.40625,-0.375 C 0.984375,-4.21875 1.453125,-4.375 1.78125,-4.375 c 0.703125,0 1.0625,0.546875 1.0625,1.109375 0,0.609375 -0.4375,1.078125 -0.65625,1.328125 L 0.515625,-0.265625 C 0.4375,-0.203125 0.4375,-0.1875 0.4375,0 h 2.875 z m 0,0"
           id="path4256" />
      </symbol>
      <symbol
         overflow="visible"
         id="symbol9135">
        <path
           style="stroke:none"
           d="m 1.90625,-2.328125 c 0.546875,0 0.9375,0.375 0.9375,1.125 0,0.859375 -0.515625,1.125 -0.90625,1.125 -0.28125,0 -0.90625,-0.078125 -1.1875,-0.5 0.328125,0 0.40625,-0.234375 0.40625,-0.390625 0,-0.21875 -0.171875,-0.375 -0.390625,-0.375 -0.1875,0 -0.390625,0.125 -0.390625,0.40625 0,0.65625 0.71875,1.078125 1.5625,1.078125 0.96875,0 1.640625,-0.65625 1.640625,-1.34375 0,-0.546875 -0.4375,-1.09375 -1.203125,-1.25 0.71875,-0.265625 0.984375,-0.78125 0.984375,-1.21875 0,-0.546875 -0.625,-0.953125 -1.40625,-0.953125 -0.765625,0 -1.359375,0.375 -1.359375,0.9375 0,0.234375 0.15625,0.359375 0.359375,0.359375 0.21875,0 0.359375,-0.15625 0.359375,-0.34375 0,-0.203125 -0.140625,-0.359375 -0.359375,-0.375 0.25,-0.296875 0.71875,-0.375 0.984375,-0.375 0.3125,0 0.75,0.15625 0.75,0.75 0,0.296875 -0.09375,0.625 -0.28125,0.828125 -0.21875,0.265625 -0.421875,0.28125 -0.765625,0.3125 -0.171875,0.015625 -0.1875,0.015625 -0.21875,0.015625 -0.015625,0 -0.078125,0.015625 -0.078125,0.09375 0,0.09375 0.0625,0.09375 0.1875,0.09375 z m 0,0"
           id="path2245" />
      </symbol>
      <symbol
         overflow="visible"
         id="symbol111">
        <path
           style="stroke:none"
           d="m 3.6875,-1.140625 v -0.25 H 2.90625 V -4.5 c 0,-0.140625 0,-0.203125 -0.140625,-0.203125 -0.09375,0 -0.125,0 -0.1875,0.109375 l -2.3125,3.203125 v 0.25 h 2.0625 v 0.5625 c 0,0.25 0,0.328125 -0.578125,0.328125 H 1.5625 V 0 C 1.921875,-0.015625 2.359375,-0.03125 2.609375,-0.03125 2.875,-0.03125 3.3125,-0.015625 3.671875,0 v -0.25 h -0.1875 C 2.90625,-0.25 2.90625,-0.328125 2.90625,-0.578125 v -0.5625 z M 2.375,-3.9375 v 2.546875 H 0.53125 Z m 0,0"
           id="path4288" />
      </symbol>
      <symbol
         overflow="visible"
         id="symbol1521">
        <path
           style="stroke:none"
           d=""
           id="path7204" />
      </symbol>
      <symbol
         overflow="visible"
         id="symbol4095">
        <path
           style="stroke:none"
           d="m 2.875,-4.265625 c 0.046875,-0.203125 0.0625,-0.21875 0.21875,-0.25 h 0.453125 c 0.640625,0 1.4375,0 1.4375,0.71875 0,0.296875 -0.125,0.734375 -0.453125,0.984375 C 4.25,-2.59375 3.8125,-2.484375 3.328125,-2.484375 H 2.4375 Z M 4.140625,-2.375 c 0.828125,-0.1875 1.5625,-0.6875 1.5625,-1.3125 0,-0.59375 -0.703125,-1.078125 -1.71875,-1.078125 H 1.84375 c -0.125,0 -0.21875,0 -0.21875,0.15625 0,0.09375 0.078125,0.09375 0.21875,0.09375 0.015625,0 0.140625,0 0.265625,0.015625 0.15625,0.015625 0.15625,0.03125 0.15625,0.109375 0,0 0,0.046875 -0.015625,0.140625 L 1.3125,-0.546875 C 1.265625,-0.3125 1.25,-0.25 0.703125,-0.25 0.578125,-0.25 0.5,-0.25 0.5,-0.109375 0.5,-0.03125 0.546875,0 0.609375,0 c 0.125,0 0.296875,-0.015625 0.421875,-0.015625 0.140625,0 0.34375,-0.015625 0.46875,-0.015625 0.140625,0 0.296875,0.015625 0.4375,0.015625 C 2.09375,-0.015625 2.265625,0 2.40625,0 2.453125,0 2.5625,0 2.5625,-0.140625 2.5625,-0.25 2.484375,-0.25 2.328125,-0.25 2.21875,-0.25 2.1875,-0.25 2.0625,-0.265625 1.90625,-0.28125 1.90625,-0.296875 1.90625,-0.375 c 0,0 0,-0.046875 0.03125,-0.140625 L 2.375,-2.28125 h 0.953125 c 0.59375,0 0.859375,0.296875 0.859375,0.625 0,0.09375 -0.0625,0.328125 -0.109375,0.484375 C 4,-0.84375 3.96875,-0.75 3.96875,-0.625 c 0,0.546875 0.515625,0.765625 1.03125,0.765625 0.640625,0 0.921875,-0.6875 0.921875,-0.8125 0,-0.015625 -0.015625,-0.09375 -0.125,-0.09375 -0.09375,0 -0.109375,0.046875 -0.125,0.125 C 5.578125,-0.34375 5.3125,-0.0625 5.03125,-0.0625 c -0.1875,0 -0.328125,-0.0625 -0.328125,-0.453125 0,-0.171875 0.046875,-0.53125 0.078125,-0.71875 0.03125,-0.1875 0.03125,-0.25 0.03125,-0.328125 0,-0.078125 0,-0.3125 -0.203125,-0.515625 C 4.484375,-2.21875 4.296875,-2.3125 4.140625,-2.375 Z m 0,0"
           id="path3459" />
      </symbol>
    </g>
    <g
       id="g7951">
      <symbol
         overflow="visible"
         id="symbol4611">
        <path
           style="stroke:none"
           d=""
           id="path655" />
      </symbol>
      <symbol
         overflow="visible"
         id="symbol7032">
        <path
           style="stroke:none"
           d="m 6.5625,-2.296875 c 0.171875,0 0.359375,0 0.359375,-0.203125 0,-0.1875 -0.1875,-0.1875 -0.359375,-0.1875 H 1.171875 c -0.171875,0 -0.34375,0 -0.34375,0.1875 0,0.203125 0.171875,0.203125 0.34375,0.203125 z m 0,0"
           id="path5512" />
      </symbol>
      <symbol
         overflow="visible"
         id="symbol7423">
        <path
           style="stroke:none"
           d=""
           id="path5103" />
      </symbol>
      <symbol
         overflow="visible"
         id="symbol5457">
        <path
           style="stroke:none"
           d="m 3.734375,-6.125 c 0.0625,-0.234375 0.09375,-0.328125 0.28125,-0.359375 C 4.109375,-6.5 4.421875,-6.5 4.625,-6.5 c 0.703125,0 1.8125,0 1.8125,0.984375 0,0.34375 -0.15625,1.03125 -0.546875,1.421875 -0.265625,0.25 -0.78125,0.578125 -1.6875,0.578125 H 3.09375 Z m 1.4375,2.734375 c 1.015625,-0.21875 2.1875,-0.921875 2.1875,-1.921875 0,-0.859375 -0.890625,-1.5 -2.203125,-1.5 H 2.328125 c -0.203125,0 -0.296875,0 -0.296875,0.203125 C 2.03125,-6.5 2.125,-6.5 2.3125,-6.5 c 0.015625,0 0.203125,0 0.375,0.015625 0.1875,0.03125 0.265625,0.03125 0.265625,0.171875 0,0.03125 0,0.0625 -0.03125,0.1875 l -1.34375,5.34375 C 1.484375,-0.390625 1.46875,-0.3125 0.671875,-0.3125 0.5,-0.3125 0.40625,-0.3125 0.40625,-0.109375 0.40625,0 0.53125,0 0.546875,0 c 0.28125,0 0.984375,-0.03125 1.25,-0.03125 0.28125,0 1,0.03125 1.28125,0.03125 0.078125,0 0.1875,0 0.1875,-0.203125 0,-0.109375 -0.078125,-0.109375 -0.28125,-0.109375 -0.359375,0 -0.640625,0 -0.640625,-0.171875 0,-0.0625 0.015625,-0.109375 0.03125,-0.171875 l 0.65625,-2.640625 h 1.1875 c 0.90625,0 1.078125,0.5625 1.078125,0.90625 0,0.140625 -0.078125,0.453125 -0.140625,0.6875 C 5.09375,-1.421875 5,-1.0625 5,-0.859375 5,0.21875 6.203125,0.21875 6.328125,0.21875 c 0.84375,0 1.203125,-1 1.203125,-1.140625 0,-0.125 -0.109375,-0.125 -0.125,-0.125 -0.09375,0 -0.109375,0.0625 -0.125,0.140625 C 7.03125,-0.171875 6.59375,0 6.375,0 6.046875,0 5.96875,-0.21875 5.96875,-0.609375 c 0,-0.3125 0.0625,-0.8125 0.109375,-1.140625 0.015625,-0.140625 0.03125,-0.328125 0.03125,-0.46875 0,-0.765625 -0.671875,-1.078125 -0.9375,-1.171875 z m 0,0"
           id="path3579" />
      </symbol>
    </g>
    <g
       id="g9653">
      <symbol
         overflow="visible"
         id="symbol5852">
        <path
           style="stroke:none"
           d=""
           id="path6327" />
      </symbol>
      <symbol
         overflow="visible"
         id="symbol6800">
        <path
           style="stroke:none"
           d="m 6.5625,-2.296875 c 0.171875,0 0.359375,0 0.359375,-0.203125 0,-0.1875 -0.1875,-0.1875 -0.359375,-0.1875 H 1.171875 c -0.171875,0 -0.34375,0 -0.34375,0.1875 0,0.203125 0.171875,0.203125 0.34375,0.203125 z m 0,0"
           id="path1194" />
      </symbol>
      <symbol
         overflow="visible"
         id="symbol1887">
        <path
           style="stroke:none"
           d=""
           id="path2234" />
      </symbol>
      <symbol
         overflow="visible"
         id="symbol1634">
        <path
           style="stroke:none"
           d="m 3.734375,-6.125 c 0.0625,-0.234375 0.09375,-0.328125 0.28125,-0.359375 C 4.109375,-6.5 4.421875,-6.5 4.625,-6.5 c 0.703125,0 1.8125,0 1.8125,0.984375 0,0.34375 -0.15625,1.03125 -0.546875,1.421875 -0.265625,0.25 -0.78125,0.578125 -1.6875,0.578125 H 3.09375 Z m 1.4375,2.734375 c 1.015625,-0.21875 2.1875,-0.921875 2.1875,-1.921875 0,-0.859375 -0.890625,-1.5 -2.203125,-1.5 H 2.328125 c -0.203125,0 -0.296875,0 -0.296875,0.203125 C 2.03125,-6.5 2.125,-6.5 2.3125,-6.5 c 0.015625,0 0.203125,0 0.375,0.015625 0.1875,0.03125 0.265625,0.03125 0.265625,0.171875 0,0.03125 0,0.0625 -0.03125,0.1875 l -1.34375,5.34375 C 1.484375,-0.390625 1.46875,-0.3125 0.671875,-0.3125 0.5,-0.3125 0.40625,-0.3125 0.40625,-0.109375 0.40625,0 0.53125,0 0.546875,0 c 0.28125,0 0.984375,-0.03125 1.25,-0.03125 0.28125,0 1,0.03125 1.28125,0.03125 0.078125,0 0.1875,0 0.1875,-0.203125 0,-0.109375 -0.078125,-0.109375 -0.28125,-0.109375 -0.359375,0 -0.640625,0 -0.640625,-0.171875 0,-0.0625 0.015625,-0.109375 0.03125,-0.171875 l 0.65625,-2.640625 h 1.1875 c 0.90625,0 1.078125,0.5625 1.078125,0.90625 0,0.140625 -0.078125,0.453125 -0.140625,0.6875 C 5.09375,-1.421875 5,-1.0625 5,-0.859375 5,0.21875 6.203125,0.21875 6.328125,0.21875 c 0.84375,0 1.203125,-1 1.203125,-1.140625 0,-0.125 -0.109375,-0.125 -0.125,-0.125 -0.09375,0 -0.109375,0.0625 -0.125,0.140625 C 7.03125,-0.171875 6.59375,0 6.375,0 6.046875,0 5.96875,-0.21875 5.96875,-0.609375 c 0,-0.3125 0.0625,-0.8125 0.109375,-1.140625 0.015625,-0.140625 0.03125,-0.328125 0.03125,-0.46875 0,-0.765625 -0.671875,-1.078125 -0.9375,-1.171875 z m 0,0"
           id="path6430" />
      </symbol>
      <symbol
         overflow="visible"
         id="symbol6488">
        <path
           style="stroke:none"
           d="m 2.828125,-6.234375 c 0,-0.203125 -0.140625,-0.359375 -0.359375,-0.359375 -0.28125,0 -0.546875,0.265625 -0.546875,0.53125 0,0.1875 0.140625,0.359375 0.375,0.359375 0.234375,0 0.53125,-0.234375 0.53125,-0.53125 z m -0.75,3.75 c 0.109375,-0.28125 0.109375,-0.3125 0.21875,-0.578125 0.078125,-0.203125 0.125,-0.34375 0.125,-0.53125 0,-0.4375 -0.3125,-0.8125 -0.8125,-0.8125 -0.9375,0 -1.3125,1.453125 -1.3125,1.53125 0,0.109375 0.09375,0.109375 0.109375,0.109375 0.109375,0 0.109375,-0.03125 0.15625,-0.1875 0.28125,-0.9375 0.671875,-1.234375 1.015625,-1.234375 0.078125,0 0.25,0 0.25,0.3125 0,0.21875 -0.078125,0.421875 -0.109375,0.53125 -0.078125,0.25 -0.53125,1.40625 -0.6875,1.84375 -0.109375,0.25 -0.234375,0.578125 -0.234375,0.796875 0,0.46875 0.34375,0.8125 0.8125,0.8125 0.9375,0 1.3125,-1.4375 1.3125,-1.53125 0,-0.109375 -0.09375,-0.109375 -0.125,-0.109375 -0.09375,0 -0.09375,0.03125 -0.140625,0.1875 -0.1875,0.625 -0.515625,1.234375 -1.015625,1.234375 -0.171875,0 -0.25,-0.09375 -0.25,-0.328125 0,-0.25 0.0625,-0.390625 0.296875,-1 z m 0,0"
           id="path8983" />
      </symbol>
      <symbol
         overflow="visible"
         id="symbol1049">
        <path
           style="stroke:none"
           d="m 1.53125,-3.046875 c -1.078125,0.71875 -1.296875,1.65625 -1.296875,2.015625 0,0.46875 0.265625,0.75 0.28125,0.78125 0.328125,0.328125 0.40625,0.375 1.15625,0.65625 L 2.875,0.875 C 3.03125,0.9375 3.234375,1 3.234375,1.296875 c 0,0.234375 -0.1875,0.53125 -0.5,0.53125 -0.4375,0 -0.765625,-0.25 -0.875,-0.328125 C 1.796875,1.46875 1.796875,1.453125 1.75,1.453125 c -0.078125,0 -0.09375,0.078125 -0.09375,0.109375 0,0.125 0.53125,0.484375 1.078125,0.484375 0.625,0 1.046875,-0.578125 1.046875,-1.0625 C 3.78125,0.5 3.40625,0.3125 3.296875,0.265625 3.15625,0.21875 2.828125,0.09375 2.6875,0.046875 2.5,-0.046875 2.296875,-0.125 2.078125,-0.1875 l -0.59375,-0.234375 c -0.453125,-0.1875 -0.75,-0.46875 -0.75,-0.890625 0,-0.40625 0.390625,-1.28125 1.234375,-1.703125 C 2.328125,-2.875 2.625,-2.875 2.84375,-2.875 c 0.296875,0 0.921875,0 0.921875,-0.3125 0,-0.25 -0.421875,-0.265625 -0.8125,-0.265625 -0.1875,0 -0.46875,0 -0.84375,0.109375 -0.25,-0.25 -0.296875,-0.578125 -0.296875,-0.765625 0,-0.5625 0.359375,-1.328125 1.109375,-1.703125 0.171875,0.21875 0.40625,0.21875 0.640625,0.21875 0.25,0 0.890625,0 0.890625,-0.3125 0,-0.25 -0.453125,-0.265625 -0.828125,-0.265625 -0.140625,0 -0.375,0 -0.640625,0.046875 C 2.953125,-6.203125 2.9375,-6.28125 2.9375,-6.453125 c 0,-0.140625 0.046875,-0.34375 0.046875,-0.359375 0,-0.078125 -0.046875,-0.140625 -0.109375,-0.140625 -0.1875,0 -0.1875,0.46875 -0.1875,0.5 0,0.1875 0.0625,0.34375 0.078125,0.375 -1.078125,0.3125 -1.75,1.109375 -1.75,1.875 0,0.359375 0.1875,0.78125 0.65625,1.046875 z m 1.625,-2.859375 C 3.3125,-5.953125 3.515625,-5.953125 3.625,-5.953125 c 0.34375,0 0.375,0.015625 0.5625,0.0625 C 4.109375,-5.859375 4,-5.8125 3.5625,-5.8125 c -0.1875,0 -0.296875,0 -0.40625,-0.09375 z M 2.375,-3.1875 c 0.234375,-0.046875 0.453125,-0.046875 0.5625,-0.046875 0.359375,0 0.390625,0 0.578125,0.046875 -0.09375,0.046875 -0.1875,0.09375 -0.640625,0.09375 -0.234375,0 -0.328125,0 -0.5,-0.09375 z m 0,0"
           id="path417" />
      </symbol>
      <symbol
         overflow="visible"
         id="symbol6688">
        <path
           style="stroke:none"
           d=""
           id="path7876" />
      </symbol>
      <symbol
         overflow="visible"
         id="symbol8590">
        <path
           style="stroke:none"
           d="m 4.078125,-2.296875 h 2.78125 C 7,-2.296875 7.1875,-2.296875 7.1875,-2.5 7.1875,-2.6875 7,-2.6875 6.859375,-2.6875 h -2.78125 v -2.796875 c 0,-0.140625 0,-0.328125 -0.203125,-0.328125 -0.203125,0 -0.203125,0.1875 -0.203125,0.328125 V -2.6875 h -2.78125 c -0.140625,0 -0.328125,0 -0.328125,0.1875 0,0.203125 0.1875,0.203125 0.328125,0.203125 h 2.78125 V 0.5 c 0,0.140625 0,0.328125 0.203125,0.328125 0.203125,0 0.203125,-0.1875 0.203125,-0.328125 z m 0,0"
           id="path4257" />
      </symbol>
    </g>
  </defs>
  <g
     inkscape:label="Camada 1"
     inkscape:groupmode="layer"
     id="layer1"
     transform="translate(-43.610255,-65.325432)">
    <path
       style="fill:none;stroke:#000000;stroke-width:0.232469px;stroke-linecap:butt;stroke-linejoin:miter;stroke-opacity:1;marker-end:url(#Arrow1Lend)"
       d="M 47.43721,138.32632 H 181.51983"
       id="path857" />
    <rect
       style="opacity:1;fill:#cccccc;fill-opacity:0.477509;fill-rule:evenodd;stroke:#000000;stroke-width:0.565;stroke-miterlimit:4;stroke-dasharray:none"
       id="rect983"
       width="82.103363"
       height="41.051682"
       x="64.165565"
       y="97.274628"
       rx="0.24000035"
       ry="0.29888391" />
    <path
       style="fill:none;stroke:#000000;stroke-width:0.255;stroke-linecap:butt;stroke-linejoin:miter;stroke-miterlimit:4;stroke-dasharray:none;stroke-opacity:1;marker-end:url(#Arrow1Lend)"
       d="M 105.21725,155.26845 V 65.820479"
       id="path857-0" />
    <g
       id="g2215"
       transform="matrix(0.64,0,0,0.64,55.021727,-1.2721269)">
      <g
         style="fill:#000000;fill-opacity:1"
         id="g4807"
         transform="translate(-3.39123,146.18)">
        <use
           xlink:href="#symbol6883"
           x="91.925003"
           y="81.962997"
           id="use6359"
           width="100%"
           height="100%" />
      </g>
      <g
         style="fill:#000000;fill-opacity:1"
         id="g4931"
         transform="translate(-3.39123,146.18)">
        <use
           xlink:href="#symbol9831"
           x="97.083"
           y="83.457001"
           id="use2918"
           width="100%"
           height="100%" />
      </g>
    </g>
    <g
       id="g7897"
       transform="translate(0,-0.1083285)">
      <g
         id="g7889">
        <g
           id="g2209"
           transform="matrix(0.64,0,0,0.64,83.473323,-25.864965)">
          <g
             style="fill:#000000;fill-opacity:1"
             id="g8596"
             transform="translate(-3.39123,146.18)">
            <use
               xlink:href="#symbol6883"
               x="104.873"
               y="81.962997"
               id="use1997"
               width="100%"
               height="100%" />
          </g>
          <g
             style="fill:#000000;fill-opacity:1"
             id="g5298"
             transform="translate(-3.39123,146.18)">
            <use
               xlink:href="#symbol2157"
               x="110.031"
               y="83.457001"
               id="use207"
               width="100%"
               height="100%" />
          </g>
        </g>
      </g>
    </g>
    <g
       id="g2203"
       transform="matrix(0.64,0,0,0.64,22.094191,-53.211434)">
      <g
         style="fill:#000000;fill-opacity:1"
         id="g796"
         transform="translate(-3.39123,146.18)">
        <use
           xlink:href="#symbol6883"
           x="117.822"
           y="81.962997"
           id="use3315"
           width="100%"
           height="100%" />
      </g>
      <g
         style="fill:#000000;fill-opacity:1"
         id="g2987"
         transform="translate(-3.39123,146.18)">
        <use
           xlink:href="#symbol9135"
           x="122.98"
           y="83.457001"
           id="use1372"
           width="100%"
           height="100%" />
      </g>
    </g>
    <g
       id="g2197"
       transform="matrix(0.64,0,0,0.64,-26.419835,-25.973293)">
      <g
         style="fill:#000000;fill-opacity:1"
         id="g2814"
         transform="translate(-3.39123,146.18)">
        <use
           xlink:href="#symbol6883"
           x="130.77"
           y="81.962997"
           id="use4744"
           width="100%"
           height="100%" />
      </g>
      <g
         style="fill:#000000;fill-opacity:1"
         id="g9318"
         transform="translate(-3.39123,146.18)">
        <use
           xlink:href="#symbol111"
           x="135.92799"
           y="83.457001"
           id="use5762"
           width="100%"
           height="100%" />
      </g>
    </g>
    <g
       id="g2191"
       transform="matrix(0.8,0,0,0.8,18.751751,-103.22789)">
      <g
         style="fill:#000000;fill-opacity:1"
         id="g4302"
         transform="translate(-3.39123,146.18)">
        <use
           xlink:href="#symbol6883"
           x="143.718"
           y="81.962997"
           id="use7361"
           width="100%"
           height="100%" />
      </g>
      <g
         style="fill:#000000;fill-opacity:1"
         id="g4519"
         transform="translate(-3.39123,146.18)">
        <use
           xlink:href="#symbol4095"
           x="148.87601"
           y="83.457001"
           id="use4892"
           width="100%"
           height="100%" />
      </g>
    </g>
    <circle
       style="opacity:1;fill:#000000;fill-rule:evenodd;stroke:#000000;stroke-width:0.14811;stroke-miterlimit:4;stroke-dasharray:none"
       id="path2239"
       cx="146.26892"
       cy="138.32631"
       r="1.1229341" />
    <circle
       style="fill:#000000;fill-rule:evenodd;stroke:#000000;stroke-width:0.14811;stroke-miterlimit:4;stroke-dasharray:none"
       id="path2239-4"
       cx="146.26892"
       cy="97.274628"
       r="1.1229341" />
    <circle
       style="fill:#000000;fill-rule:evenodd;stroke:#000000;stroke-width:0.14811;stroke-miterlimit:4;stroke-dasharray:none"
       id="path2239-7"
       cx="64.165565"
       cy="97.274628"
       r="1.1229341" />
    <circle
       style="fill:#000000;fill-rule:evenodd;stroke:#000000;stroke-width:0.14811;stroke-miterlimit:4;stroke-dasharray:none"
       id="path2239-6"
       cx="64.165565"
       cy="138.32631"
       r="1.1229341" />
    <g
       id="g2544"
       transform="matrix(0.512,0,0,0.512,10.323588,28.331769)">
      <g
         style="fill:#000000;fill-opacity:1"
         id="g2390"
         transform="translate(-3.39123,146.18)">
        <use
           xlink:href="#symbol7032"
           x="91.925003"
           y="81.962997"
           id="use9255"
           width="100%"
           height="100%" />
      </g>
      <g
         style="fill:#000000;fill-opacity:1"
         id="g4857"
         transform="translate(-3.39123,146.18)">
        <use
           xlink:href="#symbol5457"
           x="99.674004"
           y="81.962997"
           id="use1460"
           width="100%"
           height="100%" />
      </g>
    </g>
    <g
       style="fill:#000000;fill-opacity:1"
       id="g4124"
       transform="matrix(0.512,0,0,0.512,90.461373,103.15428)">
      <use
         xlink:href="#symbol5457"
         x="110.63585"
         y="81.962997"
         id="use8110"
         width="100%"
         height="100%" />
    </g>
    <g
       id="g2866"
       transform="matrix(0.512,0,0,0.512,18.327127,-1.0419798)">
      <g
         style="fill:#000000;fill-opacity:1"
         id="g1704"
         transform="translate(-43.372019,104.41443)">
        <use
           xlink:href="#symbol6800"
           x="91.925003"
           y="81.962997"
           id="use2146"
           width="100%"
           height="100%" />
      </g>
      <g
         style="fill:#000000;fill-opacity:1"
         id="g3839"
         transform="translate(-43.372019,104.41443)">
        <use
           xlink:href="#symbol1634"
           x="99.674004"
           y="81.962997"
           id="use6149"
           width="100%"
           height="100%" />
      </g>
      <g
         style="fill:#000000;fill-opacity:1"
         id="g6651"
         transform="translate(-43.372019,104.41443)">
        <use
           xlink:href="#symbol8590"
           x="109.529"
           y="81.962997"
           id="use7491"
           width="100%"
           height="100%" />
      </g>
      <g
         style="fill:#000000;fill-opacity:1"
         id="g1932"
         transform="translate(-43.372019,104.41443)">
        <use
           xlink:href="#symbol6488"
           x="119.492"
           y="81.962997"
           id="use9847"
           width="100%"
           height="100%" />
        <use
           xlink:href="#symbol1049"
           x="122.92412"
           y="81.962997"
           id="use3076"
           width="100%"
           height="100%" />
      </g>
    </g>
    <g
       id="g2875"
       transform="matrix(0.512,0,0,0.512,104.71339,1.1369692)">
      <g
         style="fill:#000000;fill-opacity:1"
         id="g6731"
         transform="translate(-43.372019,104.41443)">
        <use
           xlink:href="#symbol1634"
           x="131.05858"
           y="81.962997"
           id="use6652"
           width="100%"
           height="100%" />
      </g>
      <g
         style="fill:#000000;fill-opacity:1"
         id="g6619"
         transform="translate(-43.372019,104.41443)">
        <use
           xlink:href="#symbol8590"
           x="140.91701"
           y="81.962997"
           id="use540"
           width="100%"
           height="100%" />
      </g>
      <g
         style="fill:#000000;fill-opacity:1"
         id="g5354"
         transform="translate(-43.372019,104.41443)">
        <use
           xlink:href="#symbol6488"
           x="150.88"
           y="81.962997"
           id="use8652"
           width="100%"
           height="100%" />
        <use
           xlink:href="#symbol1049"
           x="154.31212"
           y="81.962997"
           id="use8264"
           width="100%"
           height="100%" />
      </g>
    </g>
    <path
       style="fill:none;stroke:#000000;stroke-width:0.265;stroke-linecap:butt;stroke-linejoin:miter;stroke-miterlimit:4;stroke-dasharray:none;stroke-opacity:1;marker-end:url(#Arrow1Lend)"
       d="m 129.48978,78.754017 c -4.20671,0.420671 -8.41358,0.841357 -10.2227,3.407802 -1.80912,2.566445 -1.22016,7.278133 -0.63122,11.989619"
       id="path5250"
       inkscape:path-effect="#path-effect5252"
       inkscape:original-d="m 129.48978,78.754017 c -4.20668,0.420959 -8.41355,0.841645 -12.62084,1.262083 0.58925,4.712135 1.17821,9.423824 1.76692,14.135338"
       sodipodi:nodetypes="ccc" />
    <path
       style="opacity:1;fill:#000000;fill-opacity:1;fill-rule:evenodd;stroke:#000000;stroke-width:0.00131878;stroke-linecap:round;stroke-miterlimit:4;stroke-dasharray:none;paint-order:fill markers stroke"
       d="m 145.00134,121.52738 c 0.0206,-0.0582 0.60039,-1.49124 0.82825,-2.04704 0.20851,-0.50863 0.38643,-0.92342 0.42887,-0.99987 l 0.0184,-0.0331 0.14033,0.34366 c 0.0772,0.189 0.17521,0.42985 0.21783,0.53522 0.34605,0.85539 0.47512,1.1755 0.65829,1.63262 0.26125,0.65196 0.24905,0.62056 0.24115,0.62056 -0.01,0 -0.27281,-0.16144 -0.71598,-0.43974 -0.40423,-0.25385 -0.54869,-0.34325 -0.5547,-0.34325 -0.005,0 -0.18743,0.11225 -0.38908,0.23941 -0.0981,0.0619 -0.20726,0.13037 -0.24263,0.15227 -0.0354,0.022 -0.14587,0.0912 -0.24556,0.15394 -0.24051,0.15141 -0.39443,0.2457 -0.40107,0.2457 -0.003,0 0.004,-0.027 0.0159,-0.0604 z"
       id="path7288" />
    <path
       style="fill:#000000;fill-opacity:1;fill-rule:evenodd;stroke:#000000;stroke-width:0.00131878;stroke-linecap:round;stroke-miterlimit:4;stroke-dasharray:none;paint-order:fill markers stroke"
       d="m 99.621336,98.531049 c -0.0582,-0.0206 -1.49124,-0.60039 -2.04704,-0.82825 -0.50863,-0.20851 -0.92342,-0.38643 -0.99987,-0.42887 l -0.0331,-0.0184 0.34366,-0.14033 c 0.189,-0.0772 0.42985,-0.17521 0.53522,-0.21783 0.85539,-0.34605 1.1755,-0.47512 1.63262,-0.65829 0.65196,-0.26125 0.62056,-0.24905 0.62056,-0.24115 0,0.01 -0.16144,0.27281 -0.43974,0.71598 -0.25385,0.40423 -0.34325,0.54869 -0.34325,0.5547 0,0.005 0.11225,0.18743 0.23941,0.38908 0.0619,0.0981 0.13037,0.20726 0.15227,0.24263 0.022,0.0354 0.0912,0.14587 0.15394,0.24556 0.15141,0.24051 0.2457,0.39443 0.2457,0.40107 0,0.003 -0.027,-0.004 -0.0604,-0.0159 z"
       id="path7288-4" />
    <path
       style="fill:#000000;fill-opacity:1;fill-rule:evenodd;stroke:#000000;stroke-width:0.00131878;stroke-linecap:round;stroke-miterlimit:4;stroke-dasharray:none;paint-order:fill markers stroke"
       d="m 62.921812,118.50688 c 0.0206,0.0582 0.60039,1.49124 0.82825,2.04704 0.20851,0.50863 0.38643,0.92342 0.42887,0.99987 l 0.0184,0.0331 0.14033,-0.34366 c 0.0772,-0.189 0.17521,-0.42985 0.21783,-0.53522 0.34605,-0.85539 0.47512,-1.1755 0.65829,-1.63262 0.26125,-0.65196 0.24905,-0.62056 0.24115,-0.62056 -0.01,0 -0.27281,0.16144 -0.71598,0.43974 -0.40423,0.25385 -0.54869,0.34325 -0.5547,0.34325 -0.005,0 -0.18743,-0.11225 -0.38908,-0.23941 -0.0981,-0.0619 -0.20726,-0.13037 -0.24263,-0.15227 -0.0354,-0.022 -0.14587,-0.0912 -0.24556,-0.15394 -0.24051,-0.15141 -0.39443,-0.2457 -0.40107,-0.2457 -0.003,0 0.004,0.027 0.0159,0.0604 z"
       id="path7288-8" />
    <path
       style="fill:#000000;fill-opacity:1;fill-rule:evenodd;stroke:#000000;stroke-width:0.00131878;stroke-linecap:round;stroke-miterlimit:4;stroke-dasharray:none;paint-order:fill markers stroke"
       d="m 113.19436,137.06654 c 0.0582,0.0206 1.49124,0.60039 2.04704,0.82824 0.50863,0.20851 0.92342,0.38643 0.99987,0.42887 l 0.0331,0.0184 -0.34366,0.14033 c -0.189,0.0772 -0.42985,0.1752 -0.53522,0.21782 -0.85539,0.34605 -1.1755,0.47513 -1.63262,0.65829 -0.65196,0.26125 -0.62056,0.24906 -0.62056,0.24115 0,-0.01 0.16144,-0.2728 0.43974,-0.71598 0.25385,-0.40423 0.34325,-0.54868 0.34325,-0.5547 0,-0.005 -0.11225,-0.18743 -0.23941,-0.38908 -0.0619,-0.0981 -0.13037,-0.20725 -0.15227,-0.24262 -0.022,-0.0354 -0.0912,-0.14588 -0.15394,-0.24557 -0.15141,-0.24051 -0.2457,-0.39443 -0.2457,-0.40107 0,-0.003 0.027,0.004 0.0604,0.0159 z"
       id="path7288-0" />
  </g>
</svg>
