<?xml version="1.0" encoding="UTF-8" standalone="no"?>
<!-- Created with Inkscape (http://www.inkscape.org/) -->

<svg
   width="186.66399mm"
   height="194.84669mm"
   viewBox="0 0 186.66399 194.84669"
   version="1.1"
   id="svg5"
   sodipodi:docname="Rz1-func-analitica.svg"
   inkscape:version="1.1 (c68e22c387, 2021-05-23)"
   xmlns:inkscape="http://www.inkscape.org/namespaces/inkscape"
   xmlns:sodipodi="http://sodipodi.sourceforge.net/DTD/sodipodi-0.dtd"
   xmlns:xlink="http://www.w3.org/1999/xlink"
   xmlns="http://www.w3.org/2000/svg"
   xmlns:svg="http://www.w3.org/2000/svg">
  <sodipodi:namedview
     id="namedview7"
     pagecolor="#ffffff"
     bordercolor="#666666"
     borderopacity="1.0"
     inkscape:pageshadow="2"
     inkscape:pageopacity="0.0"
     inkscape:pagecheckerboard="0"
     inkscape:document-units="mm"
     showgrid="false"
     inkscape:zoom="0.74118967"
     inkscape:cx="32.380376"
     inkscape:cy="414.87356"
     inkscape:window-width="1920"
     inkscape:window-height="1017"
     inkscape:window-x="-8"
     inkscape:window-y="-8"
     inkscape:window-maximized="1"
     inkscape:current-layer="layer1" />
  <defs
     id="defs2">
    <marker
       style="overflow:visible"
       id="Arrow1Lend"
       refX="0"
       refY="0"
       orient="auto"
       inkscape:stockid="Arrow1Lend"
       inkscape:isstock="true">
      <path
         transform="matrix(-0.8,0,0,-0.8,-10,0)"
         style="fill:context-stroke;fill-rule:evenodd;stroke:context-stroke;stroke-width:1pt"
         d="M 0,0 5,-5 -12.5,0 5,5 Z"
         id="path2122" />
    </marker>
    <g
       id="g6500">
      <symbol
         overflow="visible"
         id="symbol3335">
        <path
           style="stroke:none"
           d=""
           id="path6390" />
      </symbol>
      <symbol
         overflow="visible"
         id="symbol2859">
        <path
           style="stroke:none"
           d="m 1.328125,-0.828125 c 0.53125,-0.578125 0.828125,-0.828125 1.1875,-1.140625 0,0 0.609375,-0.53125 0.96875,-0.890625 C 4.4375,-3.78125 4.65625,-4.265625 4.65625,-4.3125 c 0,-0.09375 -0.09375,-0.09375 -0.109375,-0.09375 -0.078125,0 -0.09375,0.015625 -0.15625,0.109375 -0.296875,0.484375 -0.5,0.640625 -0.734375,0.640625 -0.25,0 -0.359375,-0.15625 -0.515625,-0.328125 -0.1875,-0.21875 -0.359375,-0.421875 -0.6875,-0.421875 -0.75,0 -1.203125,0.921875 -1.203125,1.140625 0,0.046875 0.03125,0.109375 0.109375,0.109375 0.09375,0 0.109375,-0.046875 0.140625,-0.109375 0.1875,-0.46875 0.765625,-0.46875 0.84375,-0.46875 0.203125,0 0.390625,0.0625 0.625,0.140625 0.40625,0.15625 0.515625,0.15625 0.765625,0.15625 -0.359375,0.421875 -1.1875,1.140625 -1.375,1.296875 l -0.90625,0.84375 C 0.78125,-0.625 0.421875,-0.0625 0.421875,0.015625 c 0,0.09375 0.109375,0.09375 0.125,0.09375 0.078125,0 0.09375,-0.015625 0.15625,-0.125 0.234375,-0.359375 0.53125,-0.625 0.859375,-0.625 0.21875,0 0.328125,0.09375 0.578125,0.375 0.15625,0.21875 0.34375,0.375 0.625,0.375 1,0 1.578125,-1.265625 1.578125,-1.53125 0,-0.046875 -0.046875,-0.109375 -0.125,-0.109375 -0.09375,0 -0.109375,0.0625 -0.140625,0.140625 C 3.84375,-0.75 3.203125,-0.5625 2.875,-0.5625 c -0.1875,0 -0.375,-0.0625 -0.578125,-0.125 -0.34375,-0.125 -0.5,-0.171875 -0.703125,-0.171875 -0.015625,0 -0.171875,0 -0.265625,0.03125 z m 0,0"
           id="path5785" />
      </symbol>
      <symbol
         overflow="visible"
         id="symbol4067">
        <path
           style="stroke:none"
           d="m 3.734375,-6.125 c 0.0625,-0.234375 0.09375,-0.328125 0.28125,-0.359375 C 4.109375,-6.5 4.421875,-6.5 4.625,-6.5 c 0.703125,0 1.8125,0 1.8125,0.984375 0,0.34375 -0.15625,1.03125 -0.546875,1.421875 -0.265625,0.25 -0.78125,0.578125 -1.6875,0.578125 H 3.09375 Z m 1.4375,2.734375 c 1.015625,-0.21875 2.1875,-0.921875 2.1875,-1.921875 0,-0.859375 -0.890625,-1.5 -2.203125,-1.5 H 2.328125 c -0.203125,0 -0.296875,0 -0.296875,0.203125 C 2.03125,-6.5 2.125,-6.5 2.3125,-6.5 c 0.015625,0 0.203125,0 0.375,0.015625 0.1875,0.03125 0.265625,0.03125 0.265625,0.171875 0,0.03125 0,0.0625 -0.03125,0.1875 l -1.34375,5.34375 C 1.484375,-0.390625 1.46875,-0.3125 0.671875,-0.3125 0.5,-0.3125 0.40625,-0.3125 0.40625,-0.109375 0.40625,0 0.53125,0 0.546875,0 c 0.28125,0 0.984375,-0.03125 1.25,-0.03125 0.28125,0 1,0.03125 1.28125,0.03125 0.078125,0 0.1875,0 0.1875,-0.203125 0,-0.109375 -0.078125,-0.109375 -0.28125,-0.109375 -0.359375,0 -0.640625,0 -0.640625,-0.171875 0,-0.0625 0.015625,-0.109375 0.03125,-0.171875 l 0.65625,-2.640625 h 1.1875 c 0.90625,0 1.078125,0.5625 1.078125,0.90625 0,0.140625 -0.078125,0.453125 -0.140625,0.6875 C 5.09375,-1.421875 5,-1.0625 5,-0.859375 5,0.21875 6.203125,0.21875 6.328125,0.21875 c 0.84375,0 1.203125,-1 1.203125,-1.140625 0,-0.125 -0.109375,-0.125 -0.125,-0.125 -0.09375,0 -0.109375,0.0625 -0.125,0.140625 C 7.03125,-0.171875 6.59375,0 6.375,0 6.046875,0 5.96875,-0.21875 5.96875,-0.609375 c 0,-0.3125 0.0625,-0.8125 0.109375,-1.140625 0.015625,-0.140625 0.03125,-0.328125 0.03125,-0.46875 0,-0.765625 -0.671875,-1.078125 -0.9375,-1.171875 z m 0,0"
           id="path6852" />
      </symbol>
      <symbol
         overflow="visible"
         id="symbol1096">
        <path
           style="stroke:none"
           d=""
           id="path3806" />
      </symbol>
      <symbol
         overflow="visible"
         id="symbol1475">
        <path
           style="stroke:none"
           d="M 3.59375,-2.21875 C 3.59375,-2.984375 3.5,-3.546875 3.1875,-4.03125 2.96875,-4.34375 2.53125,-4.625 1.984375,-4.625 c -1.625,0 -1.625,1.90625 -1.625,2.40625 0,0.5 0,2.359375 1.625,2.359375 1.609375,0 1.609375,-1.859375 1.609375,-2.359375 z M 1.984375,-0.0625 c -0.328125,0 -0.75,-0.1875 -0.890625,-0.75 C 1,-1.21875 1,-1.796875 1,-2.3125 1,-2.828125 1,-3.359375 1.09375,-3.734375 1.25,-4.28125 1.6875,-4.4375 1.984375,-4.4375 c 0.375,0 0.734375,0.234375 0.859375,0.640625 0.109375,0.375 0.125,0.875 0.125,1.484375 0,0.515625 0,1.03125 -0.09375,1.46875 -0.140625,0.640625 -0.609375,0.78125 -0.890625,0.78125 z m 0,0"
           id="path877" />
      </symbol>
      <symbol
         overflow="visible"
         id="symbol3893">
        <path
           style="stroke:none"
           d="m 2.328125,-4.4375 c 0,-0.1875 0,-0.1875 -0.203125,-0.1875 -0.453125,0.4375 -1.078125,0.4375 -1.359375,0.4375 v 0.25 c 0.15625,0 0.625,0 1,-0.1875 v 3.546875 c 0,0.234375 0,0.328125 -0.6875,0.328125 H 0.8125 V 0 c 0.125,0 0.984375,-0.03125 1.234375,-0.03125 0.21875,0 1.09375,0.03125 1.25,0.03125 V -0.25 H 3.03125 c -0.703125,0 -0.703125,-0.09375 -0.703125,-0.328125 z m 0,0"
           id="path9316" />
      </symbol>
      <symbol
         overflow="visible"
         id="symbol7723">
        <path
           style="stroke:none"
           d=""
           id="path6334" />
      </symbol>
      <symbol
         overflow="visible"
         id="symbol6712">
        <path
           style="stroke:none"
           d="m 1.171875,-0.609375 c 0.1875,-0.1875 0.3125,-0.3125 0.890625,-0.796875 0.15625,-0.109375 0.671875,-0.53125 0.875,-0.71875 0.421875,-0.421875 0.6875,-0.78125 0.6875,-0.859375 0,-0.09375 -0.078125,-0.09375 -0.109375,-0.09375 -0.0625,0 -0.09375,0.015625 -0.125,0.078125 -0.21875,0.3125 -0.359375,0.421875 -0.53125,0.421875 -0.078125,0 -0.1875,0 -0.390625,-0.203125 -0.234375,-0.25 -0.390625,-0.296875 -0.546875,-0.296875 -0.5625,0 -0.9375,0.609375 -0.9375,0.8125 0,0.078125 0.0625,0.09375 0.109375,0.09375 0.09375,0 0.109375,-0.015625 0.125,-0.09375 0.109375,-0.25 0.5,-0.265625 0.609375,-0.265625 0.171875,0 0.34375,0.046875 0.4375,0.0625 0.390625,0.078125 0.4375,0.078125 0.609375,0.078125 -0.171875,0.203125 -0.296875,0.328125 -0.96875,0.84375 -0.546875,0.4375 -0.734375,0.609375 -0.859375,0.75 -0.421875,0.40625 -0.625,0.71875 -0.625,0.78125 0,0.078125 0.09375,0.078125 0.125,0.078125 0.0625,0 0.078125,0 0.109375,-0.0625 0.1875,-0.265625 0.40625,-0.421875 0.640625,-0.421875 0.09375,0 0.1875,0 0.375,0.171875 0.21875,0.21875 0.359375,0.3125 0.59375,0.3125 C 3,0.0625 3.46875,-0.78125 3.46875,-1.015625 3.46875,-1.09375 3.390625,-1.09375 3.359375,-1.09375 3.265625,-1.09375 3.25,-1.0625 3.21875,-0.984375 3.09375,-0.640625 2.6875,-0.46875 2.34375,-0.46875 2.1875,-0.46875 2,-0.515625 1.828125,-0.546875 1.515625,-0.625 1.453125,-0.625 1.328125,-0.625 c -0.015625,0 -0.109375,0 -0.15625,0.015625 z m 0,0"
           id="path3457" />
      </symbol>
      <symbol
         overflow="visible"
         id="symbol551">
        <path
           style="stroke:none"
           d=""
           id="path5772" />
      </symbol>
      <symbol
         overflow="visible"
         id="symbol4916">
        <path
           style="stroke:none"
           d="M 1.984375,-3.171875 C 1.984375,-3.3125 1.96875,-3.3125 1.796875,-3.3125 1.453125,-3 0.890625,-3 0.796875,-3 H 0.71875 v 0.21875 h 0.078125 c 0.109375,0 0.4375,-0.015625 0.734375,-0.140625 v 2.5 c 0,0.140625 0,0.203125 -0.53125,0.203125 H 0.75 V 0 c 0.265625,-0.015625 0.71875,-0.015625 1,-0.015625 0.296875,0 0.734375,0 1.015625,0.015625 v -0.21875 h -0.25 c -0.53125,0 -0.53125,-0.0625 -0.53125,-0.203125 z m 0,0"
           id="path6560" />
      </symbol>
      <symbol
         overflow="visible"
         id="symbol1515">
        <path
           style="stroke:none"
           d=""
           id="path9660" />
      </symbol>
      <symbol
         overflow="visible"
         id="symbol9973">
        <path
           style="stroke:none"
           d="m 6.84375,-3.265625 c 0.15625,0 0.34375,0 0.34375,-0.1875 C 7.1875,-3.65625 7,-3.65625 6.859375,-3.65625 h -5.96875 c -0.140625,0 -0.328125,0 -0.328125,0.203125 0,0.1875 0.1875,0.1875 0.328125,0.1875 z m 0.015625,1.9375 c 0.140625,0 0.328125,0 0.328125,-0.203125 0,-0.1875 -0.1875,-0.1875 -0.34375,-0.1875 H 0.890625 c -0.140625,0 -0.328125,0 -0.328125,0.1875 0,0.203125 0.1875,0.203125 0.328125,0.203125 z m 0,0"
           id="path8687" />
      </symbol>
      <symbol
         overflow="visible"
         id="symbol8640">
        <path
           style="stroke:none"
           d=""
           id="path3587" />
      </symbol>
      <symbol
         overflow="visible"
         id="symbol727">
        <path
           style="stroke:none"
           d="m 6.5625,-2.296875 c 0.171875,0 0.359375,0 0.359375,-0.203125 0,-0.1875 -0.1875,-0.1875 -0.359375,-0.1875 H 1.171875 c -0.171875,0 -0.34375,0 -0.34375,0.1875 0,0.203125 0.171875,0.203125 0.34375,0.203125 z m 0,0"
           id="path572" />
      </symbol>
      <symbol
         overflow="visible"
         id="symbol189">
        <path
           style="stroke:none"
           d="m 1.578125,-7.125 c 0,-0.171875 0,-0.359375 -0.1875,-0.359375 -0.203125,0 -0.203125,0.1875 -0.203125,0.359375 v 9.265625 c 0,0.171875 0,0.359375 0.203125,0.359375 0.1875,0 0.1875,-0.1875 0.1875,-0.359375 z m 0,0"
           id="path6810" />
      </symbol>
    </g>
  </defs>
  <g
     inkscape:label="Camada 1"
     inkscape:groupmode="layer"
     id="layer1"
     transform="translate(-13.789603,-20.896221)">
    <circle
       style="fill:#e6e6e6;fill-rule:evenodd;stroke:#000000;stroke-width:0.264583;stroke-miterlimit:4;stroke-dasharray:2.11666, 2.11666;stroke-dashoffset:0"
       id="path868"
       cx="103.52163"
       cy="126.01081"
       r="89.599762" />
    <ellipse
       style="fill:#000000;fill-rule:evenodd;stroke:#000000;stroke-width:0.140611"
       id="path972"
       cx="103.52163"
       cy="126.01081"
       rx="1.6125273"
       ry="1.6125275" />
    <circle
       style="fill:#ffff00;fill-rule:evenodd;stroke:#000000;stroke-width:0.264583;stroke-miterlimit:4;stroke-dasharray:2.11666, 2.11666;stroke-dashoffset:0"
       id="path1164"
       cx="155.81792"
       cy="84.423691"
       r="22.310698" />
    <ellipse
       style="fill:#000000;fill-rule:evenodd;stroke:#000000;stroke-width:0.140611"
       id="path972-9"
       cx="155.81792"
       cy="84.423691"
       rx="1.6125273"
       ry="1.6125275" />
    <g
       id="g1602"
       transform="matrix(0.81,0,0,0.81,42.368735,-54.712104)">
      <g
         style="fill:#000000;fill-opacity:1"
         id="g7245"
         transform="translate(-23.559615,151.89074)">
        <use
           xlink:href="#symbol2859"
           x="91.925003"
           y="81.962997"
           id="use3460"
           width="100%"
           height="100%" />
      </g>
      <g
         style="fill:#000000;fill-opacity:1"
         id="g6211"
         transform="translate(-23.559615,151.89074)">
        <use
           xlink:href="#symbol1475"
           x="96.557999"
           y="83.457001"
           id="use8729"
           width="100%"
           height="100%" />
      </g>
    </g>
    <g
       style="fill:#000000;fill-opacity:1"
       id="g8550"
       transform="matrix(0.81,0,0,0.81,64.488305,68.134779)">
      <use
         xlink:href="#symbol4067"
         x="104.349"
         y="81.962997"
         id="use8551"
         width="100%"
         height="100%" />
    </g>
    <g
       id="g1608"
       transform="matrix(0.81,0,0,0.81,80.874604,-96.491093)">
      <g
         style="fill:#000000;fill-opacity:1"
         id="g400"
         transform="translate(-23.559615,151.89074)">
        <use
           xlink:href="#symbol2859"
           x="115.31085"
           y="81.962997"
           id="use2226"
           width="100%"
           height="100%" />
      </g>
      <g
         style="fill:#000000;fill-opacity:1"
         id="g589"
         transform="translate(-23.559615,151.89074)">
        <use
           xlink:href="#symbol3893"
           x="119.944"
           y="83.457001"
           id="use7426"
           width="100%"
           height="100%" />
      </g>
    </g>
    <g
       id="g1616"
       transform="matrix(0.81,0,0,0.81,69.365809,-116.43686)">
      <g
         style="fill:#000000;fill-opacity:1"
         id="g3669"
         transform="translate(-23.559615,151.89074)">
        <use
           xlink:href="#symbol4067"
           x="127.734"
           y="81.962997"
           id="use2166"
           width="100%"
           height="100%" />
      </g>
      <g
         style="fill:#000000;fill-opacity:1"
         id="g3686"
         transform="translate(-23.559615,151.89074)">
        <use
           xlink:href="#symbol6712"
           x="135.299"
           y="83.457001"
           id="use4805"
           width="100%"
           height="100%" />
      </g>
      <g
         style="fill:#000000;fill-opacity:1"
         id="g9010"
         transform="translate(-23.559615,151.89074)">
        <use
           xlink:href="#symbol4916"
           x="139.105"
           y="84.454002"
           id="use977"
           width="100%"
           height="100%" />
      </g>
    </g>
    <g
       id="g2082"
       transform="translate(-0.35697115,-205.97236)">
      <g
         id="g1624"
         transform="matrix(0.9,0,0,0.9,12.720383,23.169299)">
        <g
           style="fill:#000000;fill-opacity:1"
           id="g9425"
           transform="translate(-23.559615,151.89074)">
          <use
             xlink:href="#symbol4067"
             x="143.492"
             y="81.962997"
             id="use5009"
             width="100%"
             height="100%" />
        </g>
        <g
           style="fill:#000000;fill-opacity:1"
           id="g5825"
           transform="translate(-23.559615,151.89074)">
          <use
             xlink:href="#symbol6712"
             x="151.056"
             y="83.457001"
             id="use4057"
             width="100%"
             height="100%" />
        </g>
        <g
           style="fill:#000000;fill-opacity:1"
           id="g5075"
           transform="translate(-23.559615,151.89074)">
          <use
             xlink:href="#symbol4916"
             x="154.86301"
             y="84.454002"
             id="use4866"
             width="100%"
             height="100%" />
        </g>
      </g>
      <g
         style="fill:#000000;fill-opacity:1"
         id="g852"
         transform="matrix(0.9,0,0,0.9,-6.9705144,159.83782)">
        <use
           xlink:href="#symbol9973"
           x="162.01601"
           y="81.962997"
           id="use6826"
           width="100%"
           height="100%" />
      </g>
      <g
         id="g1644"
         transform="matrix(0.9,0,0,0.9,17.644807,23.136155)">
        <g
           style="fill:#000000;fill-opacity:1"
           id="g8459"
           transform="translate(-23.559615,151.89074)">
          <use
             xlink:href="#symbol4067"
             x="172.532"
             y="81.962997"
             id="use2494"
             width="100%"
             height="100%" />
        </g>
        <g
           style="fill:#000000;fill-opacity:1"
           id="g9049"
           transform="translate(-23.559615,151.89074)">
          <use
             xlink:href="#symbol727"
             x="182.388"
             y="81.962997"
             id="use1264"
             width="100%"
             height="100%" />
        </g>
        <g
           style="fill:#000000;fill-opacity:1"
           id="g6265"
           transform="translate(-23.559615,151.89074)">
          <use
             xlink:href="#symbol189"
             x="192.3486"
             y="81.962997"
             id="use4451"
             width="100%"
             height="100%" />
        </g>
        <g
           style="fill:#000000;fill-opacity:1"
           id="g4255"
           transform="translate(-23.559615,151.89074)">
          <use
             xlink:href="#symbol2859"
             x="195.118"
             y="81.962997"
             id="use908"
             width="100%"
             height="100%" />
        </g>
        <g
           style="fill:#000000;fill-opacity:1"
           id="g6721"
           transform="translate(-23.559615,151.89074)">
          <use
             xlink:href="#symbol1475"
             x="199.75101"
             y="83.457001"
             id="use3100"
             width="100%"
             height="100%" />
        </g>
        <g
           style="fill:#000000;fill-opacity:1"
           id="g7182"
           transform="translate(-23.559615,151.89074)">
          <use
             xlink:href="#symbol727"
             x="206.43401"
             y="81.962997"
             id="use8815"
             width="100%"
             height="100%" />
        </g>
        <g
           style="fill:#000000;fill-opacity:1"
           id="g9999"
           transform="translate(-23.559615,151.89074)">
          <use
             xlink:href="#symbol2859"
             x="216.397"
             y="81.962997"
             id="use2104"
             width="100%"
             height="100%" />
        </g>
        <g
           style="fill:#000000;fill-opacity:1"
           id="g2482"
           transform="translate(-23.559615,151.89074)">
          <use
             xlink:href="#symbol3893"
             x="221.03"
             y="83.457001"
             id="use4955"
             width="100%"
             height="100%" />
        </g>
        <g
           style="fill:#000000;fill-opacity:1"
           id="g5411"
           transform="translate(-23.559615,151.89074)">
          <use
             xlink:href="#symbol189"
             x="225.49899"
             y="81.962997"
             id="use1576"
             width="100%"
             height="100%" />
        </g>
      </g>
    </g>
    <path
       style="fill:none;stroke:#000000;stroke-width:0.365;stroke-linecap:butt;stroke-linejoin:miter;stroke-miterlimit:4;stroke-dasharray:none;stroke-opacity:1"
       d="m 103.52163,126.01082 h 89.59976"
       id="path1679" />
    <path
       style="fill:none;stroke:#000000;stroke-width:0.165;stroke-linecap:butt;stroke-linejoin:miter;stroke-miterlimit:4;stroke-dasharray:0.66, 0.66;stroke-dashoffset:0;stroke-opacity:1"
       d="M 103.52163,126.01082 155.99639,84.245192"
       id="path1907" />
    <path
       style="fill:none;stroke:#000000;stroke-width:0.264583px;stroke-linecap:butt;stroke-linejoin:miter;stroke-opacity:1"
       d="M 155.99639,84.24519 173.13101,70.323318"
       id="path1942" />
    <path
       style="fill:none;stroke:#000000;stroke-width:0.264583px;stroke-linecap:butt;stroke-linejoin:miter;stroke-opacity:1;marker-end:url(#Arrow1Lend)"
       d="M 176.34375,36.411058 165.27764,55.687499"
       id="path2117" />
  </g>
</svg>
