<?xml version="1.0" encoding="UTF-8" standalone="no"?>
<!-- Created with Inkscape (http://www.inkscape.org/) -->

<svg
   width="163.0845mm"
   height="94.57782mm"
   viewBox="0 0 163.0845 94.57782"
   version="1.1"
   id="svg5"
   sodipodi:docname="zeros-isolados4.svg"
   inkscape:version="1.1 (c68e22c387, 2021-05-23)"
   xmlns:inkscape="http://www.inkscape.org/namespaces/inkscape"
   xmlns:sodipodi="http://sodipodi.sourceforge.net/DTD/sodipodi-0.dtd"
   xmlns:xlink="http://www.w3.org/1999/xlink"
   xmlns="http://www.w3.org/2000/svg"
   xmlns:svg="http://www.w3.org/2000/svg">
  <sodipodi:namedview
     id="namedview7"
     pagecolor="#ffffff"
     bordercolor="#666666"
     borderopacity="1.0"
     inkscape:pageshadow="2"
     inkscape:pageopacity="0.0"
     inkscape:pagecheckerboard="0"
     inkscape:document-units="mm"
     showgrid="false"
     inkscape:zoom="1.4823793"
     inkscape:cx="409.47683"
     inkscape:cy="206.0876"
     inkscape:window-width="1920"
     inkscape:window-height="1017"
     inkscape:window-x="-8"
     inkscape:window-y="-8"
     inkscape:window-maximized="1"
     inkscape:current-layer="layer1" />
  <defs
     id="defs2">
    <linearGradient
       inkscape:collect="always"
       id="linearGradient4584">
      <stop
         style="stop-color:#e3dbdb;stop-opacity:1;"
         offset="0"
         id="stop4580" />
      <stop
         style="stop-color:#e3dbdb;stop-opacity:0;"
         offset="1"
         id="stop4582" />
    </linearGradient>
    <marker
       style="overflow:visible"
       id="Arrow1Lend"
       refX="0"
       refY="0"
       orient="auto"
       inkscape:stockid="Arrow1Lend"
       inkscape:isstock="true">
      <path
         transform="matrix(-0.8,0,0,-0.8,-10,0)"
         style="fill:context-stroke;fill-rule:evenodd;stroke:context-stroke;stroke-width:1pt"
         d="M 0,0 5,-5 -12.5,0 5,5 Z"
         id="path3822" />
    </marker>
    <inkscape:path-effect
       effect="bspline"
       id="path-effect3817"
       is_visible="true"
       lpeversion="1"
       weight="33.333333"
       steps="2"
       helper_size="0"
       apply_no_weight="true"
       apply_with_weight="true"
       only_selected="false" />
    <inkscape:path-effect
       effect="bspline"
       id="path-effect2998"
       is_visible="true"
       lpeversion="1"
       weight="33.333333"
       steps="2"
       helper_size="0"
       apply_no_weight="true"
       apply_with_weight="true"
       only_selected="false" />
    <inkscape:path-effect
       effect="bspline"
       id="path-effect863"
       is_visible="true"
       lpeversion="1"
       weight="33.333333"
       steps="2"
       helper_size="0"
       apply_no_weight="true"
       apply_with_weight="true"
       only_selected="false" />
    <inkscape:path-effect
       effect="bspline"
       id="path-effect859"
       is_visible="true"
       lpeversion="1"
       weight="33.333333"
       steps="2"
       helper_size="0"
       apply_no_weight="true"
       apply_with_weight="true"
       only_selected="false" />
    <g
       id="g7588">
      <symbol
         overflow="visible"
         id="symbol5052">
        <path
           style="stroke:none"
           d=""
           id="path830" />
      </symbol>
      <symbol
         overflow="visible"
         id="symbol8812">
        <path
           style="stroke:none"
           d="M 6.328125,-5.765625 C 6.4375,-6.171875 6.609375,-6.46875 7.40625,-6.5 c 0.046875,0 0.171875,-0.015625 0.171875,-0.203125 0,0 0,-0.109375 -0.125,-0.109375 -0.328125,0 -0.6875,0.03125 -1.015625,0.03125 -0.34375,0 -0.71875,-0.03125 -1.046875,-0.03125 -0.0625,0 -0.171875,0 -0.171875,0.203125 C 5.21875,-6.5 5.3125,-6.5 5.390625,-6.5 c 0.578125,0.015625 0.6875,0.21875 0.6875,0.4375 0,0.03125 -0.03125,0.1875 -0.03125,0.203125 l -0.90625,3.5625 C 4.8125,-0.953125 3.65625,-0.09375 2.65625,-0.09375 c -0.671875,0 -1.203125,-0.4375 -1.203125,-1.296875 0,-0.015625 0,-0.328125 0.109375,-0.765625 L 2.515625,-6.046875 C 2.609375,-6.40625 2.625,-6.5 3.359375,-6.5 c 0.265625,0 0.34375,0 0.34375,-0.203125 0,-0.109375 -0.109375,-0.109375 -0.140625,-0.109375 -0.28125,0 -1,0.03125 -1.28125,0.03125 -0.28125,0 -1,-0.03125 -1.28125,-0.03125 -0.078125,0 -0.1875,0 -0.1875,0.203125 C 0.8125,-6.5 0.890625,-6.5 1.09375,-6.5 c 0.015625,0 0.203125,0 0.375,0.015625 0.171875,0.03125 0.265625,0.03125 0.265625,0.171875 0,0.046875 -0.109375,0.46875 -0.171875,0.703125 l -0.21875,0.875 C 1.25,-4.34375 0.78125,-2.46875 0.734375,-2.265625 0.671875,-2 0.671875,-1.84375 0.671875,-1.6875 c 0,1.203125 0.90625,1.90625 1.953125,1.90625 1.25,0 2.484375,-1.125 2.8125,-2.4375 z m 0,0"
           id="path8148" />
      </symbol>
      <symbol
         overflow="visible"
         id="symbol528">
        <path
           style="stroke:none"
           d="M 6.265625,-5.671875 C 6.75,-6.453125 7.171875,-6.484375 7.53125,-6.5 c 0.125,-0.015625 0.140625,-0.171875 0.140625,-0.1875 0,-0.078125 -0.0625,-0.125 -0.140625,-0.125 -0.25,0 -0.546875,0.03125 -0.8125,0.03125 -0.328125,0 -0.671875,-0.03125 -0.984375,-0.03125 -0.0625,0 -0.1875,0 -0.1875,0.1875 0,0.109375 0.078125,0.125 0.15625,0.125 0.265625,0.015625 0.453125,0.125 0.453125,0.328125 0,0.15625 -0.140625,0.375 -0.140625,0.375 l -3.0625,4.875 -0.6875,-5.28125 C 2.265625,-6.375 2.5,-6.5 2.953125,-6.5 c 0.140625,0 0.25,0 0.25,-0.203125 0,-0.078125 -0.078125,-0.109375 -0.125,-0.109375 -0.40625,0 -0.828125,0.03125 -1.25,0.03125 -0.171875,0 -0.359375,0 -0.546875,0 -0.171875,0 -0.359375,-0.03125 -0.53125,-0.03125 -0.078125,0 -0.1875,0 -0.1875,0.1875 0,0.125 0.078125,0.125 0.25,0.125 0.546875,0 0.5625,0.09375 0.59375,0.34375 L 2.1875,-0.015625 C 2.21875,0.1875 2.265625,0.21875 2.390625,0.21875 c 0.15625,0 0.203125,-0.046875 0.28125,-0.171875 z m 0,0"
           id="path7254" />
      </symbol>
      <symbol
         overflow="visible"
         id="symbol4355">
        <path
           style="stroke:none"
           d="m 1.328125,-0.828125 c 0.53125,-0.578125 0.828125,-0.828125 1.1875,-1.140625 0,0 0.609375,-0.53125 0.96875,-0.890625 C 4.4375,-3.78125 4.65625,-4.265625 4.65625,-4.3125 c 0,-0.09375 -0.09375,-0.09375 -0.109375,-0.09375 -0.078125,0 -0.09375,0.015625 -0.15625,0.109375 -0.296875,0.484375 -0.5,0.640625 -0.734375,0.640625 -0.25,0 -0.359375,-0.15625 -0.515625,-0.328125 -0.1875,-0.21875 -0.359375,-0.421875 -0.6875,-0.421875 -0.75,0 -1.203125,0.921875 -1.203125,1.140625 0,0.046875 0.03125,0.109375 0.109375,0.109375 0.09375,0 0.109375,-0.046875 0.140625,-0.109375 0.1875,-0.46875 0.765625,-0.46875 0.84375,-0.46875 0.203125,0 0.390625,0.0625 0.625,0.140625 0.40625,0.15625 0.515625,0.15625 0.765625,0.15625 -0.359375,0.421875 -1.1875,1.140625 -1.375,1.296875 l -0.90625,0.84375 C 0.78125,-0.625 0.421875,-0.0625 0.421875,0.015625 c 0,0.09375 0.109375,0.09375 0.125,0.09375 0.078125,0 0.09375,-0.015625 0.15625,-0.125 0.234375,-0.359375 0.53125,-0.625 0.859375,-0.625 0.21875,0 0.328125,0.09375 0.578125,0.375 0.15625,0.21875 0.34375,0.375 0.625,0.375 1,0 1.578125,-1.265625 1.578125,-1.53125 0,-0.046875 -0.046875,-0.109375 -0.125,-0.109375 -0.09375,0 -0.109375,0.0625 -0.140625,0.140625 C 3.84375,-0.75 3.203125,-0.5625 2.875,-0.5625 c -0.1875,0 -0.375,-0.0625 -0.578125,-0.125 -0.34375,-0.125 -0.5,-0.171875 -0.703125,-0.171875 -0.015625,0 -0.171875,0 -0.265625,0.03125 z m 0,0"
           id="path3452" />
      </symbol>
      <symbol
         overflow="visible"
         id="symbol1150">
        <path
           style="stroke:none"
           d="M 3.734375,-6.046875 C 3.8125,-6.40625 3.84375,-6.5 4.640625,-6.5 c 0.234375,0 0.3125,0 0.3125,-0.1875 0,-0.125 -0.109375,-0.125 -0.140625,-0.125 -0.296875,0 -1.03125,0.03125 -1.328125,0.03125 -0.296875,0 -1.015625,-0.03125 -1.328125,-0.03125 -0.0625,0 -0.1875,0 -0.1875,0.203125 C 1.96875,-6.5 2.046875,-6.5 2.25,-6.5 c 0.40625,0 0.6875,0 0.6875,0.1875 0,0.046875 0,0.078125 -0.03125,0.15625 l -1.34375,5.375 c -0.09375,0.375 -0.109375,0.46875 -0.90625,0.46875 -0.234375,0 -0.3125,0 -0.3125,0.203125 C 0.34375,0 0.453125,0 0.484375,0 0.78125,0 1.5,-0.03125 1.796875,-0.03125 2.09375,-0.03125 2.828125,0 3.125,0 c 0.078125,0 0.203125,0 0.203125,-0.1875 0,-0.125 -0.078125,-0.125 -0.296875,-0.125 -0.1875,0 -0.234375,0 -0.421875,-0.015625 -0.21875,-0.015625 -0.25,-0.0625 -0.25,-0.171875 0,-0.078125 0.015625,-0.15625 0.03125,-0.234375 z m 0,0"
           id="path3966" />
      </symbol>
      <symbol
         overflow="visible"
         id="symbol914">
        <path
           style="stroke:none"
           d="m 3.65625,-3.984375 h 0.859375 c 0.203125,0 0.296875,0 0.296875,-0.203125 0,-0.109375 -0.09375,-0.109375 -0.265625,-0.109375 H 3.71875 L 3.921875,-5.4375 c 0.046875,-0.203125 0.1875,-0.90625 0.25,-1.03125 0.078125,-0.1875 0.25,-0.34375 0.46875,-0.34375 0.03125,0 0.296875,0 0.484375,0.1875 -0.4375,0.03125 -0.546875,0.390625 -0.546875,0.53125 0,0.234375 0.1875,0.359375 0.375,0.359375 C 5.21875,-5.734375 5.5,-5.96875 5.5,-6.34375 c 0,-0.453125 -0.453125,-0.6875 -0.859375,-0.6875 -0.34375,0 -0.96875,0.1875 -1.265625,1.171875 -0.0625,0.203125 -0.09375,0.3125 -0.328125,1.5625 h -0.6875 c -0.203125,0 -0.3125,0 -0.3125,0.1875 0,0.125 0.09375,0.125 0.28125,0.125 h 0.65625 L 2.25,-0.046875 c -0.1875,0.96875 -0.359375,1.875 -0.875,1.875 -0.046875,0 -0.28125,0 -0.484375,-0.1875 C 1.359375,1.609375 1.453125,1.25 1.453125,1.109375 1.453125,0.875 1.265625,0.75 1.078125,0.75 0.8125,0.75 0.53125,0.984375 0.53125,1.359375 c 0,0.4375 0.4375,0.6875 0.84375,0.6875 0.546875,0 0.953125,-0.59375 1.125,-0.96875 0.328125,-0.625 0.546875,-1.828125 0.5625,-1.90625 z m 0,0"
           id="path2440" />
      </symbol>
      <symbol
         overflow="visible"
         id="symbol6791">
        <path
           style="stroke:none"
           d="M 4.6875,-3.765625 C 4.703125,-3.8125 4.71875,-3.875 4.71875,-3.9375 c 0,-0.171875 -0.109375,-0.265625 -0.28125,-0.265625 -0.09375,0 -0.375,0.0625 -0.40625,0.421875 -0.1875,-0.359375 -0.53125,-0.625 -0.9375,-0.625 -1.125,0 -2.359375,1.390625 -2.359375,2.828125 0,0.984375 0.59375,1.578125 1.3125,1.578125 0.59375,0 1.0625,-0.46875 1.15625,-0.578125 L 3.21875,-0.5625 C 3.015625,0.3125 2.890625,0.734375 2.890625,0.75 2.84375,0.84375 2.515625,1.828125 1.453125,1.828125 1.265625,1.828125 0.9375,1.8125 0.65625,1.71875 0.953125,1.640625 1.0625,1.375 1.0625,1.203125 c 0,-0.15625 -0.109375,-0.34375 -0.375,-0.34375 -0.21875,0 -0.53125,0.171875 -0.53125,0.578125 0,0.40625 0.359375,0.609375 1.3125,0.609375 1.25,0 1.96875,-0.78125 2.125,-1.375 z M 3.40625,-1.28125 C 3.34375,-1.015625 3.109375,-0.765625 2.890625,-0.578125 2.6875,-0.40625 2.375,-0.21875 2.078125,-0.21875 c -0.5,0 -0.640625,-0.515625 -0.640625,-0.921875 0,-0.46875 0.28125,-1.65625 0.5625,-2.15625 C 2.265625,-3.78125 2.6875,-4.1875 3.109375,-4.1875 c 0.65625,0 0.796875,0.8125 0.796875,0.859375 0,0.046875 -0.015625,0.109375 -0.03125,0.140625 z m 0,0"
           id="path7330" />
      </symbol>
      <symbol
         overflow="visible"
         id="symbol6402">
        <path
           style="stroke:none"
           d=""
           id="path2850" />
      </symbol>
      <symbol
         overflow="visible"
         id="symbol2257">
        <path
           style="stroke:none"
           d="M 3.59375,-2.21875 C 3.59375,-2.984375 3.5,-3.546875 3.1875,-4.03125 2.96875,-4.34375 2.53125,-4.625 1.984375,-4.625 c -1.625,0 -1.625,1.90625 -1.625,2.40625 0,0.5 0,2.359375 1.625,2.359375 1.609375,0 1.609375,-1.859375 1.609375,-2.359375 z M 1.984375,-0.0625 c -0.328125,0 -0.75,-0.1875 -0.890625,-0.75 C 1,-1.21875 1,-1.796875 1,-2.3125 1,-2.828125 1,-3.359375 1.09375,-3.734375 1.25,-4.28125 1.6875,-4.4375 1.984375,-4.4375 c 0.375,0 0.734375,0.234375 0.859375,0.640625 0.109375,0.375 0.125,0.875 0.125,1.484375 0,0.515625 0,1.03125 -0.09375,1.46875 -0.140625,0.640625 -0.609375,0.78125 -0.890625,0.78125 z m 0,0"
           id="path1444" />
      </symbol>
      <symbol
         overflow="visible"
         id="symbol9673">
        <path
           style="stroke:none"
           d=""
           id="path2858" />
      </symbol>
      <symbol
         overflow="visible"
         id="symbol4057">
        <path
           style="stroke:none"
           d="m 3.296875,2.390625 c 0,-0.03125 0,-0.046875 -0.171875,-0.21875 C 1.890625,0.921875 1.5625,-0.96875 1.5625,-2.5 c 0,-1.734375 0.375,-3.46875 1.609375,-4.703125 0.125,-0.125 0.125,-0.140625 0.125,-0.171875 0,-0.078125 -0.03125,-0.109375 -0.09375,-0.109375 -0.109375,0 -1,0.6875 -1.59375,1.953125 -0.5,1.09375 -0.625,2.203125 -0.625,3.03125 0,0.78125 0.109375,1.984375 0.65625,3.125 C 2.25,1.84375 3.09375,2.5 3.203125,2.5 c 0.0625,0 0.09375,-0.03125 0.09375,-0.109375 z m 0,0"
           id="path7302" />
      </symbol>
      <symbol
         overflow="visible"
         id="symbol519">
        <path
           style="stroke:none"
           d="m 2.875,-2.5 c 0,-0.765625 -0.109375,-1.96875 -0.65625,-3.109375 -0.59375,-1.21875 -1.453125,-1.875 -1.546875,-1.875 -0.0625,0 -0.109375,0.046875 -0.109375,0.109375 0,0.03125 0,0.046875 0.1875,0.234375 0.984375,0.984375 1.546875,2.5625 1.546875,4.640625 0,1.71875 -0.359375,3.46875 -1.59375,4.71875 C 0.5625,2.34375 0.5625,2.359375 0.5625,2.390625 0.5625,2.453125 0.609375,2.5 0.671875,2.5 0.765625,2.5 1.671875,1.8125 2.25,0.546875 2.765625,-0.546875 2.875,-1.65625 2.875,-2.5 Z m 0,0"
           id="path8854" />
      </symbol>
      <symbol
         overflow="visible"
         id="symbol8300">
        <path
           style="stroke:none"
           d="m 6.84375,-3.265625 c 0.15625,0 0.34375,0 0.34375,-0.1875 C 7.1875,-3.65625 7,-3.65625 6.859375,-3.65625 h -5.96875 c -0.140625,0 -0.328125,0 -0.328125,0.203125 0,0.1875 0.1875,0.1875 0.328125,0.1875 z m 0.015625,1.9375 c 0.140625,0 0.328125,0 0.328125,-0.203125 0,-0.1875 -0.1875,-0.1875 -0.34375,-0.1875 H 0.890625 c -0.140625,0 -0.328125,0 -0.328125,0.1875 0,0.203125 0.1875,0.203125 0.328125,0.203125 z m 0,0"
           id="path9889" />
      </symbol>
    </g>
    <linearGradient
       inkscape:collect="always"
       xlink:href="#linearGradient4584"
       id="linearGradient4586"
       x1="157.73451"
       y1="238.44601"
       x2="286.22589"
       y2="194.5976"
       gradientUnits="userSpaceOnUse" />
  </defs>
  <g
     inkscape:label="Camada 1"
     inkscape:groupmode="layer"
     id="layer1"
     transform="translate(-15.288443,-15.765899)">
    <path
       style="fill:none;stroke:#000000;stroke-width:0.17;stroke-linecap:butt;stroke-linejoin:miter;stroke-miterlimit:4;stroke-dasharray:2.04, 2.04;stroke-dashoffset:0;stroke-opacity:1"
       d="m 24.809486,37.125153 c -3.093768,8.329206 -9.578743,16.480047 -9.459575,25.91028 0.119167,9.430233 6.84199,20.139154 20.407138,25.880298 13.565149,5.741145 33.97159,6.514566 45.245793,1.130235 C 92.277046,84.661635 94.418831,73.119799 89.570029,63.749224 84.721227,54.378649 72.881921,47.179876 67.884164,40.070127 62.886407,32.960378 64.730721,25.940086 59.108469,21.239878 53.486217,16.539671 40.397539,14.159911 34.001662,17.224107 27.605785,20.288304 27.903254,28.795946 24.809486,37.125153 Z"
       id="path857"
       inkscape:path-effect="#path-effect859"
       inkscape:original-d="M 28.20072,37.303485 C 21.716009,45.454591 15.231034,53.605432 8.7457932,61.756009 15.469149,72.465622 22.191971,83.174543 28.914664,93.883413 c 20.407524,0.773718 40.813965,1.54714 61.22055,2.320311 C 92.27735,84.661691 94.419133,73.119855 96.560697,61.577523 84.72118,54.378727 72.881875,47.179952 61.042068,39.980769 62.886719,32.96046 64.731034,25.940168 66.575119,18.919471 53.486179,16.53988 40.397501,14.16012 27.308294,11.780048 c 0.297746,8.508247 0.595214,17.015889 0.892426,25.523437 z" />
    <path
       style="fill:none;stroke:#000000;stroke-width:0.17;stroke-linecap:butt;stroke-linejoin:miter;stroke-miterlimit:4;stroke-dasharray:2.04, 2.04;stroke-dashoffset:0;stroke-opacity:1"
       d="M 100.27928,89.183445 C 81.032764,87.874546 46.763537,72.227309 42.063346,60.98262 37.363156,49.737931 62.231654,42.89612 75.618225,35.816168 89.004797,28.736216 90.908567,21.4186 97.721033,26.14862 c 6.812467,4.730021 18.532547,21.506984 22.280687,36.410764 3.74814,14.90378 -0.47593,27.932961 -19.72244,26.624061 z"
       id="path861"
       inkscape:path-effect="#path-effect863"
       inkscape:original-d="M 115.30168,103.52164 C 81.032711,87.874662 46.763483,72.227427 12.493988,56.579926 37.363242,49.738245 62.23174,42.896434 87.10096,36.054087 c 1.90415,-7.31779 3.80792,-14.635406 5.71154,-21.953726 11.72105,16.778244 23.44113,33.555207 35.16166,50.332926 -4.22398,13.02998 -8.44805,26.059162 -12.67248,39.088353 z"
       sodipodi:nodetypes="cccccc" />
    <path
       style="fill:url(#linearGradient4586);fill-opacity:0.685606;fill-rule:evenodd;stroke:none;stroke-width:0.675653;stroke-miterlimit:4;stroke-dasharray:5.40522, 5.40522;stroke-dashoffset:0"
       d="m 311.66111,321.84503 c -56.3361,-18.06587 -110.50641,-46.57155 -136.42867,-71.79198 -8.03169,-7.81425 -11.35769,-11.958 -14.34835,-17.87617 -5.91725,-11.70956 -3.53325,-22.51539 7.46094,-33.8179 11.5269,-11.85015 29.46197,-22.15643 69.17448,-39.75068 9.31051,-4.12493 17.09086,-7.49988 17.28967,-7.49988 0.19881,0 1.67312,1.7455 3.27626,3.8789 4.43561,5.90278 15.57087,17.11331 31.98876,32.20502 27.55527,25.32944 39.58564,39.00768 47.0803,53.52918 6.04911,11.7206 8.64087,20.55939 9.63436,32.85638 1.10927,13.73024 -4.02056,31.58217 -12.21667,42.51421 -3.65687,4.87758 -8.54135,9.74194 -9.73119,9.69112 -0.57048,-0.0244 -6.50143,-1.79656 -13.17989,-3.9382 z"
       id="path2461"
       transform="scale(0.26458333)" />
    <path
       style="fill:none;stroke:#ff0000;stroke-width:0.665;stroke-linecap:butt;stroke-linejoin:miter;stroke-miterlimit:4;stroke-dasharray:none;stroke-opacity:1"
       d="m 53.348319,62.075241 c 4.343169,-3.748214 8.686319,-7.496412 10.262897,-6.782312 1.576577,0.714099 0.386697,5.890079 3.004705,8.507772 2.618007,2.617694 9.04336,2.677187 12.642726,4.521727 3.599366,1.844539 4.372789,5.473672 5.146161,9.102573"
       id="path2996"
       inkscape:path-effect="#path-effect2998"
       inkscape:original-d="m 53.348319,62.075241 c 4.343413,-3.747931 8.686562,-7.49613 13.029446,-11.24459 -1.189662,5.176448 -2.379544,10.352428 -3.569711,15.528245 6.425872,0.05976 12.851225,0.119255 19.276441,0.178485 0.773718,3.629543 1.54714,7.258677 2.320313,10.88762" />
    <g
       style="fill:#000000;fill-opacity:1"
       id="g2518"
       transform="matrix(0.81,0,0,0.81,-55.10839,-41.187164)">
      <use
         xlink:href="#symbol8812"
         x="91.925003"
         y="81.962997"
         id="use7533"
         width="100%"
         height="100%" />
    </g>
    <g
       style="fill:#000000;fill-opacity:1"
       id="g4188"
       transform="matrix(0.81,0,0,0.81,23.589568,-36.368053)">
      <use
         xlink:href="#symbol528"
         x="103.13094"
         y="81.962997"
         id="use561"
         width="100%"
         height="100%" />
    </g>
    <g
       id="g3403"
       transform="matrix(0.729,0,0,0.729,12.715796,-33.285275)">
      <g
         style="fill:#000000;fill-opacity:1"
         id="g7320"
         transform="translate(-61.934813,40.426971)">
        <use
           xlink:href="#symbol4355"
           x="114.48132"
           y="81.962997"
           id="use5735"
           width="100%"
           height="100%" />
      </g>
      <g
         style="fill:#000000;fill-opacity:1"
         id="g1295"
         transform="translate(-61.934813,40.426971)">
        <use
           xlink:href="#symbol2257"
           x="119.114"
           y="83.457001"
           id="use8373"
           width="100%"
           height="100%" />
      </g>
    </g>
    <g
       style="fill:#000000;fill-opacity:1"
       id="g5716"
       transform="matrix(0.81,0,0,0.81,-33.214682,-4.0829437)">
      <use
         xlink:href="#symbol1150"
         x="126.904"
         y="81.962997"
         id="use7352"
         width="100%"
         height="100%" />
    </g>
    <g
       id="g4548"
       transform="matrix(0.69066073,0,0,0.69066073,50.864274,24.659999)">
      <g
         id="g3434"
         transform="translate(65.504207,-52.296274)">
        <g
           id="g3413">
          <g
             style="fill:#000000;fill-opacity:1"
             id="g1249"
             transform="translate(-61.934813,40.426971)">
            <use
               xlink:href="#symbol914"
               x="132.06064"
               y="81.962997"
               id="use6167"
               width="100%"
               height="100%" />
          </g>
          <g
             style="fill:#000000;fill-opacity:1"
             id="g4357"
             transform="translate(-61.934813,40.426971)">
            <use
               xlink:href="#symbol4057"
               x="138.015"
               y="81.962997"
               id="use2034"
               width="100%"
               height="100%" />
          </g>
          <g
             style="fill:#000000;fill-opacity:1"
             id="g6683"
             transform="translate(-61.934813,40.426971)">
            <use
               xlink:href="#symbol4355"
               x="141.89"
               y="81.962997"
               id="use2329"
               width="100%"
               height="100%" />
          </g>
          <g
             style="fill:#000000;fill-opacity:1"
             id="g5321"
             transform="translate(-61.934813,40.426971)">
            <use
               xlink:href="#symbol519"
               x="146.961"
               y="81.962997"
               id="use9568"
               width="100%"
               height="100%" />
          </g>
        </g>
        <g
           style="fill:#000000;fill-opacity:1"
           id="g1327"
           transform="translate(-61.934813,40.426971)">
          <use
             xlink:href="#symbol8300"
             x="153.60506"
             y="81.962997"
             id="use6407"
             width="100%"
             height="100%" />
        </g>
        <g
           style="fill:#000000;fill-opacity:1"
           id="g6839"
           transform="translate(-61.934813,40.426971)">
          <use
             xlink:href="#symbol6791"
             x="164.119"
             y="81.962997"
             id="use560"
             width="100%"
             height="100%" />
        </g>
        <g
           style="fill:#000000;fill-opacity:1"
           id="g856"
           transform="translate(-61.934813,40.426971)">
          <use
             xlink:href="#symbol4057"
             x="169.228"
             y="81.962997"
             id="use6704"
             width="100%"
             height="100%" />
        </g>
        <g
           style="fill:#000000;fill-opacity:1"
           id="g6370"
           transform="translate(-61.934813,40.426971)">
          <use
             xlink:href="#symbol4355"
             x="173.10201"
             y="81.962997"
             id="use3108"
             width="100%"
             height="100%" />
        </g>
        <g
           style="fill:#000000;fill-opacity:1"
           id="g8906"
           transform="translate(-61.934813,40.426971)">
          <use
             xlink:href="#symbol519"
             x="178.174"
             y="81.962997"
             id="use4640"
             width="100%"
             height="100%" />
        </g>
      </g>
    </g>
    <g
       style="fill:#000000;fill-opacity:1"
       id="g7812"
       transform="matrix(0.59049,0,0,0.59049,-28.732417,17.208107)">
      <use
         xlink:href="#symbol4355"
         x="185.369"
         y="81.962997"
         id="use5033"
         width="100%"
         height="100%" />
    </g>
    <circle
       style="fill:#000000;fill-opacity:1;fill-rule:evenodd;stroke:#000000;stroke-width:0.665001;stroke-miterlimit:4;stroke-dasharray:none;stroke-dashoffset:0"
       id="path3458"
       cx="57.631973"
       cy="58.684029"
       r="0.71394211" />
    <circle
       style="fill:#000000;fill-opacity:1;fill-rule:evenodd;stroke:#000000;stroke-width:0.665001;stroke-miterlimit:4;stroke-dasharray:none;stroke-dashoffset:0"
       id="path3458-9"
       cx="79.05024"
       cy="68.322243"
       r="0.71394211" />
    <path
       style="fill:none;stroke:#000000;stroke-width:0.264583px;stroke-linecap:butt;stroke-linejoin:miter;stroke-opacity:1;marker-end:url(#Arrow1Lend)"
       d="m 161.88642,75.142426 c 0.47597,12.73225 0.95194,25.464224 -15.5281,31.294614 -16.48004,5.8304 -49.916339,4.75948 -64.195349,-2.20139 C 67.88396,97.274782 72.762565,84.423821 77.641225,71.572716"
       id="path3815"
       inkscape:path-effect="#path-effect3817"
       inkscape:original-d="m 161.88642,75.142426 c 0.47623,12.73224 0.95219,25.464214 1.42789,38.195914 -33.43604,-1.07065 -66.872337,-2.14156 -100.308901,-3.21274 4.87887,-12.850697 9.757475,-25.701658 14.635816,-38.552884"
       sodipodi:nodetypes="czzc" />
  </g>
</svg>
