<?xml version="1.0" encoding="UTF-8" standalone="no"?>
<!-- Created with Inkscape (http://www.inkscape.org/) -->

<svg
   width="186.18921mm"
   height="193.61028mm"
   viewBox="0 0 186.18921 193.61028"
   version="1.1"
   id="svg5"
   sodipodi:docname="zeros-isolados5.svg"
   inkscape:version="1.1 (c68e22c387, 2021-05-23)"
   xmlns:inkscape="http://www.inkscape.org/namespaces/inkscape"
   xmlns:sodipodi="http://sodipodi.sourceforge.net/DTD/sodipodi-0.dtd"
   xmlns:xlink="http://www.w3.org/1999/xlink"
   xmlns="http://www.w3.org/2000/svg"
   xmlns:svg="http://www.w3.org/2000/svg">
  <sodipodi:namedview
     id="namedview7"
     pagecolor="#ffffff"
     bordercolor="#666666"
     borderopacity="1.0"
     inkscape:pageshadow="2"
     inkscape:pageopacity="0.0"
     inkscape:pagecheckerboard="0"
     inkscape:document-units="mm"
     showgrid="false"
     inkscape:zoom="1.0482005"
     inkscape:cx="368.25016"
     inkscape:cy="394.4856"
     inkscape:window-width="1920"
     inkscape:window-height="1017"
     inkscape:window-x="-8"
     inkscape:window-y="-8"
     inkscape:window-maximized="1"
     inkscape:current-layer="layer1" />
  <defs
     id="defs2">
    <marker
       style="overflow:visible"
       id="Arrow1Lend"
       refX="0"
       refY="0"
       orient="auto"
       inkscape:stockid="Arrow1Lend"
       inkscape:isstock="true">
      <path
         transform="matrix(-0.8,0,0,-0.8,-10,0)"
         style="fill:context-stroke;fill-rule:evenodd;stroke:context-stroke;stroke-width:1pt"
         d="M 0,0 5,-5 -12.5,0 5,5 Z"
         id="path18136" />
    </marker>
    <inkscape:path-effect
       effect="bspline"
       id="path-effect16270"
       is_visible="true"
       lpeversion="1"
       weight="33.333333"
       steps="2"
       helper_size="0"
       apply_no_weight="true"
       apply_with_weight="true"
       only_selected="false" />
    <inkscape:path-effect
       effect="spiro"
       id="path-effect14113"
       is_visible="true"
       lpeversion="1" />
    <inkscape:path-effect
       effect="spiro"
       id="path-effect13297"
       is_visible="true"
       lpeversion="1" />
    <inkscape:path-effect
       effect="spiro"
       id="path-effect12121"
       is_visible="true"
       lpeversion="1" />
    <linearGradient
       inkscape:collect="always"
       id="linearGradient10479">
      <stop
         style="stop-color:#f9f9f9;stop-opacity:1;"
         offset="0"
         id="stop10475" />
      <stop
         style="stop-color:#f9f9f9;stop-opacity:0;"
         offset="1"
         id="stop10477" />
    </linearGradient>
    <linearGradient
       id="linearGradient7075"
       inkscape:swatch="solid">
      <stop
         style="stop-color:#003c9c;stop-opacity:0.76078433;"
         offset="0"
         id="stop7073" />
    </linearGradient>
    <inkscape:path-effect
       effect="bspline"
       id="path-effect2846"
       is_visible="true"
       lpeversion="1"
       weight="33.333333"
       steps="2"
       helper_size="0"
       apply_no_weight="true"
       apply_with_weight="true"
       only_selected="false" />
    <inkscape:path-effect
       effect="bspline"
       id="path-effect1234"
       is_visible="true"
       lpeversion="1"
       weight="33.333333"
       steps="2"
       helper_size="0"
       apply_no_weight="true"
       apply_with_weight="true"
       only_selected="false" />
    <inkscape:path-effect
       effect="bspline"
       id="path-effect1230"
       is_visible="true"
       lpeversion="1"
       weight="33.333333"
       steps="2"
       helper_size="0"
       apply_no_weight="true"
       apply_with_weight="true"
       only_selected="false" />
    <inkscape:path-effect
       effect="bspline"
       id="path-effect1226"
       is_visible="true"
       lpeversion="1"
       weight="33.333333"
       steps="2"
       helper_size="0"
       apply_no_weight="true"
       apply_with_weight="true"
       only_selected="false" />
    <inkscape:path-effect
       effect="bspline"
       id="path-effect1222"
       is_visible="true"
       lpeversion="1"
       weight="33.333333"
       steps="2"
       helper_size="0"
       apply_no_weight="true"
       apply_with_weight="true"
       only_selected="false" />
    <radialGradient
       inkscape:collect="always"
       xlink:href="#linearGradient9943"
       id="radialGradient9945"
       cx="62.155659"
       cy="10.607782"
       fx="62.155659"
       fy="10.607782"
       r="17.491587"
       gradientUnits="userSpaceOnUse"
       gradientTransform="matrix(-0.59272374,1.4424653,-2.3999024,-0.98606781,109.58868,34.26632)" />
    <linearGradient
       inkscape:collect="always"
       id="linearGradient9943">
      <stop
         style="stop-color:#80ffe6;stop-opacity:1;"
         offset="0"
         id="stop9939" />
      <stop
         style="stop-color:#80ffe6;stop-opacity:0;"
         offset="1"
         id="stop9941" />
    </linearGradient>
    <linearGradient
       inkscape:collect="always"
       xlink:href="#linearGradient7075"
       id="linearGradient7077"
       x1="17.109978"
       y1="111.66145"
       x2="117.40002"
       y2="111.66145"
       gradientUnits="userSpaceOnUse"
       gradientTransform="translate(-6.3500003)" />
    <linearGradient
       inkscape:collect="always"
       xlink:href="#linearGradient10479"
       id="linearGradient10481"
       x1="17.126104"
       y1="111.66053"
       x2="117.04943"
       y2="111.66053"
       gradientUnits="userSpaceOnUse"
       gradientTransform="translate(-6.3500003)" />
    <g
       id="g4318">
      <symbol
         overflow="visible"
         id="symbol6371">
        <path
           style="stroke:none"
           d=""
           id="path2461" />
      </symbol>
      <symbol
         overflow="visible"
         id="symbol8610">
        <path
           style="stroke:none"
           d="M 6.328125,-5.765625 C 6.4375,-6.171875 6.609375,-6.46875 7.40625,-6.5 c 0.046875,0 0.171875,-0.015625 0.171875,-0.203125 0,0 0,-0.109375 -0.125,-0.109375 -0.328125,0 -0.6875,0.03125 -1.015625,0.03125 -0.34375,0 -0.71875,-0.03125 -1.046875,-0.03125 -0.0625,0 -0.171875,0 -0.171875,0.203125 C 5.21875,-6.5 5.3125,-6.5 5.390625,-6.5 c 0.578125,0.015625 0.6875,0.21875 0.6875,0.4375 0,0.03125 -0.03125,0.1875 -0.03125,0.203125 l -0.90625,3.5625 C 4.8125,-0.953125 3.65625,-0.09375 2.65625,-0.09375 c -0.671875,0 -1.203125,-0.4375 -1.203125,-1.296875 0,-0.015625 0,-0.328125 0.109375,-0.765625 L 2.515625,-6.046875 C 2.609375,-6.40625 2.625,-6.5 3.359375,-6.5 c 0.265625,0 0.34375,0 0.34375,-0.203125 0,-0.109375 -0.109375,-0.109375 -0.140625,-0.109375 -0.28125,0 -1,0.03125 -1.28125,0.03125 -0.28125,0 -1,-0.03125 -1.28125,-0.03125 -0.078125,0 -0.1875,0 -0.1875,0.203125 C 0.8125,-6.5 0.890625,-6.5 1.09375,-6.5 c 0.015625,0 0.203125,0 0.375,0.015625 0.171875,0.03125 0.265625,0.03125 0.265625,0.171875 0,0.046875 -0.109375,0.46875 -0.171875,0.703125 l -0.21875,0.875 C 1.25,-4.34375 0.78125,-2.46875 0.734375,-2.265625 0.671875,-2 0.671875,-1.84375 0.671875,-1.6875 c 0,1.203125 0.90625,1.90625 1.953125,1.90625 1.25,0 2.484375,-1.125 2.8125,-2.4375 z m 0,0"
           id="path8390" />
      </symbol>
      <symbol
         overflow="visible"
         id="symbol8057">
        <path
           style="stroke:none"
           d="M 6.265625,-5.671875 C 6.75,-6.453125 7.171875,-6.484375 7.53125,-6.5 c 0.125,-0.015625 0.140625,-0.171875 0.140625,-0.1875 0,-0.078125 -0.0625,-0.125 -0.140625,-0.125 -0.25,0 -0.546875,0.03125 -0.8125,0.03125 -0.328125,0 -0.671875,-0.03125 -0.984375,-0.03125 -0.0625,0 -0.1875,0 -0.1875,0.1875 0,0.109375 0.078125,0.125 0.15625,0.125 0.265625,0.015625 0.453125,0.125 0.453125,0.328125 0,0.15625 -0.140625,0.375 -0.140625,0.375 l -3.0625,4.875 -0.6875,-5.28125 C 2.265625,-6.375 2.5,-6.5 2.953125,-6.5 c 0.140625,0 0.25,0 0.25,-0.203125 0,-0.078125 -0.078125,-0.109375 -0.125,-0.109375 -0.40625,0 -0.828125,0.03125 -1.25,0.03125 -0.171875,0 -0.359375,0 -0.546875,0 -0.171875,0 -0.359375,-0.03125 -0.53125,-0.03125 -0.078125,0 -0.1875,0 -0.1875,0.1875 0,0.125 0.078125,0.125 0.25,0.125 0.546875,0 0.5625,0.09375 0.59375,0.34375 L 2.1875,-0.015625 C 2.21875,0.1875 2.265625,0.21875 2.390625,0.21875 c 0.15625,0 0.203125,-0.046875 0.28125,-0.171875 z m 0,0"
           id="path9475" />
      </symbol>
      <symbol
         overflow="visible"
         id="symbol4746">
        <path
           style="stroke:none"
           d="M 0.40625,-2.53125 C 0.796875,-3.671875 1.890625,-3.6875 2,-3.6875 c 1.5,0 1.609375,1.75 1.609375,2.53125 0,0.609375 -0.046875,0.78125 -0.125,0.984375 -0.21875,0.71875 -0.515625,1.875 -0.515625,2.140625 0,0.109375 0.046875,0.171875 0.125,0.171875 0.140625,0 0.21875,-0.21875 0.328125,-0.59375 C 3.65625,0.703125 3.75,0.140625 3.78125,-0.171875 c 0.03125,-0.125 0.046875,-0.25 0.09375,-0.390625 0.3125,-0.984375 0.953125,-2.46875 1.34375,-3.25 0.078125,-0.125 0.1875,-0.34375 0.1875,-0.390625 0,-0.09375 -0.09375,-0.09375 -0.109375,-0.09375 -0.03125,0 -0.09375,0 -0.125,0.0625 C 4.65625,-3.28125 4.25,-2.28125 3.859375,-1.28125 3.84375,-1.578125 3.84375,-2.34375 3.453125,-3.3125 3.203125,-3.921875 2.8125,-4.40625 2.125,-4.40625 c -1.25,0 -1.953125,1.515625 -1.953125,1.828125 0,0.09375 0.09375,0.09375 0.203125,0.09375 z m 0,0"
           id="path2684" />
      </symbol>
      <symbol
         overflow="visible"
         id="symbol4845">
        <path
           style="stroke:none"
           d="m 2.046875,-3.984375 h 0.9375 c 0.203125,0 0.3125,0 0.3125,-0.203125 0,-0.109375 -0.109375,-0.109375 -0.28125,-0.109375 h -0.875 C 2.5,-5.71875 2.546875,-5.90625 2.546875,-5.96875 c 0,-0.171875 -0.125,-0.265625 -0.296875,-0.265625 -0.03125,0 -0.3125,0 -0.390625,0.359375 L 1.46875,-4.296875 h -0.9375 c -0.203125,0 -0.296875,0 -0.296875,0.1875 0,0.125 0.078125,0.125 0.28125,0.125 h 0.875 C 0.671875,-1.15625 0.625,-0.984375 0.625,-0.8125 0.625,-0.265625 1,0.109375 1.546875,0.109375 2.5625,0.109375 3.125,-1.34375 3.125,-1.421875 3.125,-1.53125 3.046875,-1.53125 3.015625,-1.53125 2.921875,-1.53125 2.90625,-1.5 2.859375,-1.390625 2.4375,-0.34375 1.90625,-0.109375 1.5625,-0.109375 c -0.203125,0 -0.3125,-0.125 -0.3125,-0.453125 0,-0.25 0.03125,-0.3125 0.0625,-0.484375 z m 0,0"
           id="path2717" />
      </symbol>
      <symbol
         overflow="visible"
         id="symbol5886">
        <path
           style="stroke:none"
           d="m 1.328125,-0.828125 c 0.53125,-0.578125 0.828125,-0.828125 1.1875,-1.140625 0,0 0.609375,-0.53125 0.96875,-0.890625 C 4.4375,-3.78125 4.65625,-4.265625 4.65625,-4.3125 c 0,-0.09375 -0.09375,-0.09375 -0.109375,-0.09375 -0.078125,0 -0.09375,0.015625 -0.15625,0.109375 -0.296875,0.484375 -0.5,0.640625 -0.734375,0.640625 -0.25,0 -0.359375,-0.15625 -0.515625,-0.328125 -0.1875,-0.21875 -0.359375,-0.421875 -0.6875,-0.421875 -0.75,0 -1.203125,0.921875 -1.203125,1.140625 0,0.046875 0.03125,0.109375 0.109375,0.109375 0.09375,0 0.109375,-0.046875 0.140625,-0.109375 0.1875,-0.46875 0.765625,-0.46875 0.84375,-0.46875 0.203125,0 0.390625,0.0625 0.625,0.140625 0.40625,0.15625 0.515625,0.15625 0.765625,0.15625 -0.359375,0.421875 -1.1875,1.140625 -1.375,1.296875 l -0.90625,0.84375 C 0.78125,-0.625 0.421875,-0.0625 0.421875,0.015625 c 0,0.09375 0.109375,0.09375 0.125,0.09375 0.078125,0 0.09375,-0.015625 0.15625,-0.125 0.234375,-0.359375 0.53125,-0.625 0.859375,-0.625 0.21875,0 0.328125,0.09375 0.578125,0.375 0.15625,0.21875 0.34375,0.375 0.625,0.375 1,0 1.578125,-1.265625 1.578125,-1.53125 0,-0.046875 -0.046875,-0.109375 -0.125,-0.109375 -0.09375,0 -0.109375,0.0625 -0.140625,0.140625 C 3.84375,-0.75 3.203125,-0.5625 2.875,-0.5625 c -0.1875,0 -0.375,-0.0625 -0.578125,-0.125 -0.34375,-0.125 -0.5,-0.171875 -0.703125,-0.171875 -0.015625,0 -0.171875,0 -0.265625,0.03125 z m 0,0"
           id="path7483" />
      </symbol>
      <symbol
         overflow="visible"
         id="symbol8820">
        <path
           style="stroke:none"
           d="m 1.578125,-0.78125 c -0.09375,0.390625 -0.109375,0.46875 -0.90625,0.46875 -0.15625,0 -0.265625,0 -0.265625,0.1875 C 0.40625,0 0.484375,0 0.671875,0 h 3.3125 c 2.0625,0 4.03125,-2.109375 4.03125,-4.28125 0,-1.40625 -0.84375,-2.53125 -2.34375,-2.53125 h -3.34375 c -0.1875,0 -0.296875,0 -0.296875,0.1875 0,0.125 0.078125,0.125 0.28125,0.125 0.125,0 0.3125,0.015625 0.421875,0.015625 0.171875,0.03125 0.21875,0.046875 0.21875,0.171875 0,0.03125 0,0.0625 -0.03125,0.1875 z M 3.734375,-6.125 C 3.828125,-6.46875 3.84375,-6.5 4.28125,-6.5 h 1.0625 c 0.96875,0 1.796875,0.53125 1.796875,1.84375 0,0.484375 -0.1875,2.125 -1.046875,3.21875 -0.28125,0.375 -1.0625,1.125 -2.296875,1.125 h -1.125 c -0.140625,0 -0.15625,0 -0.21875,0 -0.09375,-0.015625 -0.125,-0.03125 -0.125,-0.109375 0,-0.03125 0,-0.046875 0.046875,-0.21875 z m 0,0"
           id="path1501" />
      </symbol>
      <symbol
         overflow="visible"
         id="symbol8412">
        <path
           style="stroke:none"
           d="m 2.03125,-0.015625 c 0,-0.65625 -0.25,-1.046875 -0.640625,-1.046875 -0.328125,0 -0.53125,0.25 -0.53125,0.53125 C 0.859375,-0.265625 1.0625,0 1.390625,0 1.5,0 1.640625,-0.046875 1.734375,-0.125 1.765625,-0.15625 1.78125,-0.15625 1.78125,-0.15625 c 0.015625,0 0.015625,0 0.015625,0.140625 0,0.75 -0.34375,1.34375 -0.671875,1.671875 -0.109375,0.109375 -0.109375,0.125 -0.109375,0.15625 0,0.078125 0.046875,0.109375 0.09375,0.109375 0.109375,0 0.921875,-0.765625 0.921875,-1.9375 z m 0,0"
           id="path8556" />
      </symbol>
      <symbol
         overflow="visible"
         id="symbol8699">
        <path
           style="stroke:none"
           d="m 0.875,-0.59375 c -0.03125,0.15625 -0.09375,0.390625 -0.09375,0.4375 0,0.171875 0.140625,0.265625 0.296875,0.265625 0.125,0 0.296875,-0.078125 0.375,-0.28125 C 1.46875,-0.203125 1.796875,-1.5625 1.84375,-1.75 c 0.078125,-0.328125 0.265625,-1.015625 0.3125,-1.296875 0.046875,-0.125 0.328125,-0.59375 0.5625,-0.8125 0.078125,-0.0625 0.375,-0.328125 0.796875,-0.328125 0.265625,0 0.40625,0.125 0.421875,0.125 -0.296875,0.046875 -0.515625,0.28125 -0.515625,0.546875 0,0.15625 0.109375,0.34375 0.375,0.34375 0.265625,0 0.546875,-0.234375 0.546875,-0.59375 0,-0.34375 -0.3125,-0.640625 -0.828125,-0.640625 C 2.875,-4.40625 2.4375,-3.921875 2.25,-3.640625 2.15625,-4.09375 1.796875,-4.40625 1.328125,-4.40625 0.875,-4.40625 0.6875,-4.015625 0.59375,-3.84375 0.421875,-3.5 0.296875,-2.90625 0.296875,-2.875 c 0,0.109375 0.09375,0.109375 0.109375,0.109375 0.109375,0 0.109375,-0.015625 0.171875,-0.234375 0.171875,-0.703125 0.375,-1.1875 0.734375,-1.1875 0.15625,0 0.296875,0.078125 0.296875,0.453125 0,0.21875 -0.03125,0.328125 -0.15625,0.84375 z m 0,0"
           id="path6657" />
      </symbol>
      <symbol
         overflow="visible"
         id="symbol1092">
        <path
           style="stroke:none"
           d=""
           id="path1160" />
      </symbol>
      <symbol
         overflow="visible"
         id="symbol170">
        <path
           style="stroke:none"
           d="m 6.09375,-3.78125 c 0,-1.515625 -1.53125,-2.1875 -2.78125,-2.1875 -1.28125,0 -2.765625,0.703125 -2.765625,2.171875 v 3.65625 c 0,0.1875 0,0.359375 0.203125,0.359375 0.203125,0 0.203125,-0.171875 0.203125,-0.359375 V -3.75 c 0,-1.5 1.625,-1.8125 2.359375,-1.8125 0.453125,0 1.078125,0.09375 1.609375,0.421875 C 5.6875,-4.640625 5.6875,-4 5.6875,-3.734375 v 3.59375 c 0,0.1875 0,0.359375 0.203125,0.359375 0.203125,0 0.203125,-0.171875 0.203125,-0.359375 z m 0,0"
           id="path4882" />
      </symbol>
      <symbol
         overflow="visible"
         id="symbol3420">
        <path
           style="stroke:none"
           d=""
           id="path4743" />
      </symbol>
      <symbol
         overflow="visible"
         id="symbol128">
        <path
           style="stroke:none"
           d="m 3.296875,2.390625 c 0,-0.03125 0,-0.046875 -0.171875,-0.21875 C 1.890625,0.921875 1.5625,-0.96875 1.5625,-2.5 c 0,-1.734375 0.375,-3.46875 1.609375,-4.703125 0.125,-0.125 0.125,-0.140625 0.125,-0.171875 0,-0.078125 -0.03125,-0.109375 -0.09375,-0.109375 -0.109375,0 -1,0.6875 -1.59375,1.953125 -0.5,1.09375 -0.625,2.203125 -0.625,3.03125 0,0.78125 0.109375,1.984375 0.65625,3.125 C 2.25,1.84375 3.09375,2.5 3.203125,2.5 c 0.0625,0 0.09375,-0.03125 0.09375,-0.109375 z m 0,0"
           id="path1104" />
      </symbol>
      <symbol
         overflow="visible"
         id="symbol8433">
        <path
           style="stroke:none"
           d="m 2.875,-2.5 c 0,-0.765625 -0.109375,-1.96875 -0.65625,-3.109375 -0.59375,-1.21875 -1.453125,-1.875 -1.546875,-1.875 -0.0625,0 -0.109375,0.046875 -0.109375,0.109375 0,0.03125 0,0.046875 0.1875,0.234375 0.984375,0.984375 1.546875,2.5625 1.546875,4.640625 0,1.71875 -0.359375,3.46875 -1.59375,4.71875 C 0.5625,2.34375 0.5625,2.359375 0.5625,2.390625 0.5625,2.453125 0.609375,2.5 0.671875,2.5 0.765625,2.5 1.671875,1.8125 2.25,0.546875 2.765625,-0.546875 2.875,-1.65625 2.875,-2.5 Z m 0,0"
           id="path175" />
      </symbol>
      <symbol
         overflow="visible"
         id="symbol8780">
        <path
           style="stroke:none"
           d=""
           id="path2902" />
      </symbol>
      <symbol
         overflow="visible"
         id="symbol2432">
        <path
           style="stroke:none"
           d="m 2.25,-1.734375 c 0.578125,-0.25 0.828125,-0.34375 1,-0.4375 0.140625,-0.046875 0.203125,-0.078125 0.203125,-0.21875 0,-0.109375 -0.09375,-0.21875 -0.21875,-0.21875 -0.046875,0 -0.0625,0 -0.140625,0.0625 L 2.140625,-1.90625 2.25,-2.9375 c 0.015625,-0.125 0,-0.296875 -0.21875,-0.296875 -0.078125,0 -0.21875,0.046875 -0.21875,0.203125 0,0.0625 0.03125,0.265625 0.046875,0.34375 0.015625,0.109375 0.0625,0.625 0.078125,0.78125 L 0.984375,-2.546875 c -0.0625,-0.03125 -0.078125,-0.0625 -0.140625,-0.0625 -0.140625,0 -0.21875,0.109375 -0.21875,0.21875 0,0.140625 0.078125,0.1875 0.140625,0.203125 L 1.8125,-1.734375 c -0.5625,0.25 -0.828125,0.34375 -1,0.421875 -0.125,0.0625 -0.1875,0.09375 -0.1875,0.21875 0,0.125 0.078125,0.21875 0.21875,0.21875 0.046875,0 0.0625,0 0.140625,-0.0625 l 0.953125,-0.625 -0.125,1.109375 c 0,0.15625 0.140625,0.21875 0.21875,0.21875 0.09375,0 0.21875,-0.0625 0.21875,-0.21875 0,-0.0625 -0.03125,-0.265625 -0.03125,-0.328125 -0.015625,-0.125 -0.0625,-0.625 -0.078125,-0.78125 L 2.96875,-1.015625 C 3.15625,-0.875 3.171875,-0.875 3.234375,-0.875 c 0.125,0 0.21875,-0.09375 0.21875,-0.21875 0,-0.140625 -0.09375,-0.171875 -0.15625,-0.203125 z m 0,0"
           id="path1933" />
      </symbol>
      <symbol
         overflow="visible"
         id="symbol2720">
        <path
           style="stroke:none"
           d=""
           id="path9629" />
      </symbol>
      <symbol
         overflow="visible"
         id="symbol9610">
        <path
           style="stroke:none"
           d="M 3.59375,-2.21875 C 3.59375,-2.984375 3.5,-3.546875 3.1875,-4.03125 2.96875,-4.34375 2.53125,-4.625 1.984375,-4.625 c -1.625,0 -1.625,1.90625 -1.625,2.40625 0,0.5 0,2.359375 1.625,2.359375 1.609375,0 1.609375,-1.859375 1.609375,-2.359375 z M 1.984375,-0.0625 c -0.328125,0 -0.75,-0.1875 -0.890625,-0.75 C 1,-1.21875 1,-1.796875 1,-2.3125 1,-2.828125 1,-3.359375 1.09375,-3.734375 1.25,-4.28125 1.6875,-4.4375 1.984375,-4.4375 c 0.375,0 0.734375,0.234375 0.859375,0.640625 0.109375,0.375 0.125,0.875 0.125,1.484375 0,0.515625 0,1.03125 -0.09375,1.46875 -0.140625,0.640625 -0.609375,0.78125 -0.890625,0.78125 z m 0,0"
           id="path3907" />
      </symbol>
    </g>
    <g
       id="g6870">
      <symbol
         overflow="visible"
         id="symbol1370">
        <path
           style="stroke:none"
           d=""
           id="path7508" />
      </symbol>
      <symbol
         overflow="visible"
         id="symbol7251">
        <path
           style="stroke:none"
           d="M 4.671875,-3.5 C 5.0625,-3.484375 5.25,-3.453125 5.3125,-3.40625 c 0.015625,0.015625 0.015625,0.0625 0.03125,0.078125 0,0.09375 0.078125,0.09375 0.125,0.09375 0.15625,0 0.46875,-0.171875 0.46875,-0.375 0,-0.25 -0.421875,-0.296875 -0.640625,-0.3125 -0.015625,0 -0.15625,0 -0.15625,-0.015625 0,-0.015625 0.15625,-0.171875 0.234375,-0.265625 0.9375,-0.9375 2.265625,-2.4375 2.265625,-2.53125 0,-0.03125 0,-0.078125 -0.078125,-0.078125 -0.0625,0 -0.328125,0.0625 -0.609375,0.28125 -0.1875,0 -0.4375,0 -1.015625,-0.109375 C 5.390625,-6.734375 5.03125,-6.8125 4.640625,-6.8125 4,-6.8125 3.40625,-6.578125 2.875,-6.265625 c -0.890625,0.578125 -0.96875,1.15625 -0.96875,1.15625 0,0.03125 0,0.078125 0.09375,0.078125 0.1875,0 0.78125,-0.28125 0.875,-0.546875 C 3,-5.96875 3.125,-6.1875 3.8125,-6.1875 c 0.078125,0 0.359375,0 0.96875,0.109375 0.5,0.09375 0.90625,0.171875 1.265625,0.171875 0.109375,0 0.234375,0 0.34375,-0.03125 -0.53125,0.609375 -0.984375,1.125 -1.859375,2.015625 h -1 c -0.515625,0 -0.609375,0.296875 -0.609375,0.328125 C 2.921875,-3.5 3.015625,-3.5 3.1875,-3.5 H 4.09375 C 4.015625,-3.421875 3.546875,-2.953125 2.25,-1.78125 2.234375,-1.765625 1.515625,-1.109375 0.6875,-0.421875 0.5625,-0.3125 0.375,-0.140625 0.375,-0.0625 0.375,-0.046875 0.375,0 0.453125,0 c 0.125,0 0.328125,-0.09375 0.46875,-0.171875 0.171875,-0.109375 0.34375,-0.109375 0.5,-0.109375 0.453125,0 1.09375,0.078125 1.5625,0.125 C 3.453125,-0.078125 4.125,0 4.609375,0 5.34375,0 5.9375,-0.40625 6.25,-0.703125 6.859375,-1.234375 7.03125,-1.9375 7.03125,-2 7.03125,-2.0625 7,-2.078125 6.953125,-2.078125 c -0.1875,0 -0.796875,0.296875 -0.875,0.578125 -0.0625,0.1875 -0.171875,0.53125 -0.46875,0.875 -0.3125,0 -0.65625,0 -1.578125,-0.109375 -0.5,-0.0625 -1.234375,-0.15625 -1.765625,-0.15625 -0.0625,0 -0.296875,0 -0.484375,0.03125 z m 0,0"
           id="path9208" />
      </symbol>
      <symbol
         overflow="visible"
         id="symbol4721">
        <path
           style="stroke:none"
           d=""
           id="path3536" />
      </symbol>
      <symbol
         overflow="visible"
         id="symbol2368">
        <path
           style="stroke:none"
           d="m 3.296875,2.390625 c 0,-0.03125 0,-0.046875 -0.171875,-0.21875 C 1.890625,0.921875 1.5625,-0.96875 1.5625,-2.5 c 0,-1.734375 0.375,-3.46875 1.609375,-4.703125 0.125,-0.125 0.125,-0.140625 0.125,-0.171875 0,-0.078125 -0.03125,-0.109375 -0.09375,-0.109375 -0.109375,0 -1,0.6875 -1.59375,1.953125 -0.5,1.09375 -0.625,2.203125 -0.625,3.03125 0,0.78125 0.109375,1.984375 0.65625,3.125 C 2.25,1.84375 3.09375,2.5 3.203125,2.5 c 0.0625,0 0.09375,-0.03125 0.09375,-0.109375 z m 0,0"
           id="path3245" />
      </symbol>
      <symbol
         overflow="visible"
         id="symbol1362">
        <path
           style="stroke:none"
           d="m 2.875,-2.5 c 0,-0.765625 -0.109375,-1.96875 -0.65625,-3.109375 -0.59375,-1.21875 -1.453125,-1.875 -1.546875,-1.875 -0.0625,0 -0.109375,0.046875 -0.109375,0.109375 0,0.03125 0,0.046875 0.1875,0.234375 0.984375,0.984375 1.546875,2.5625 1.546875,4.640625 0,1.71875 -0.359375,3.46875 -1.59375,4.71875 C 0.5625,2.34375 0.5625,2.359375 0.5625,2.390625 0.5625,2.453125 0.609375,2.5 0.671875,2.5 0.765625,2.5 1.671875,1.8125 2.25,0.546875 2.765625,-0.546875 2.875,-1.65625 2.875,-2.5 Z m 0,0"
           id="path8114" />
      </symbol>
      <symbol
         overflow="visible"
         id="symbol2846">
        <path
           style="stroke:none"
           d=""
           id="path1746" />
      </symbol>
      <symbol
         overflow="visible"
         id="symbol1281">
        <path
           style="stroke:none"
           d="m 2.859375,-6.8125 c 0,0 0,-0.109375 -0.125,-0.109375 -0.234375,0 -0.953125,0.078125 -1.21875,0.109375 -0.078125,0 -0.1875,0.015625 -0.1875,0.1875 0,0.125 0.09375,0.125 0.234375,0.125 0.484375,0 0.5,0.0625 0.5,0.171875 L 2.03125,-6.125 0.59375,-0.390625 c -0.046875,0.140625 -0.046875,0.15625 -0.046875,0.21875 0,0.234375 0.203125,0.28125 0.296875,0.28125 0.15625,0 0.3125,-0.125 0.359375,-0.265625 l 0.1875,-0.75 0.21875,-0.890625 C 1.671875,-2.03125 1.734375,-2.25 1.78125,-2.46875 1.796875,-2.53125 1.890625,-2.859375 1.890625,-2.921875 1.921875,-3.015625 2.234375,-3.5625 2.578125,-3.84375 2.796875,-4 3.09375,-4.1875 3.53125,-4.1875 c 0.421875,0 0.53125,0.34375 0.53125,0.703125 0,0.53125 -0.375,1.625 -0.609375,2.234375 C 3.375,-1.03125 3.3125,-0.90625 3.3125,-0.703125 c 0,0.46875 0.359375,0.8125 0.828125,0.8125 0.9375,0 1.296875,-1.453125 1.296875,-1.53125 0,-0.109375 -0.078125,-0.109375 -0.109375,-0.109375 -0.109375,0 -0.109375,0.03125 -0.15625,0.1875 -0.140625,0.53125 -0.46875,1.234375 -1.015625,1.234375 -0.171875,0 -0.234375,-0.09375 -0.234375,-0.328125 0,-0.25 0.078125,-0.484375 0.171875,-0.703125 0.15625,-0.4375 0.609375,-1.625 0.609375,-2.203125 0,-0.640625 -0.390625,-1.0625 -1.140625,-1.0625 -0.625,0 -1.109375,0.3125 -1.484375,0.765625 z m 0,0"
           id="path8446" />
      </symbol>
    </g>
    <g
       id="g6264">
      <symbol
         overflow="visible"
         id="symbol9633">
        <path
           style="stroke:none"
           d=""
           id="path4144" />
      </symbol>
      <symbol
         overflow="visible"
         id="symbol3872">
        <path
           style="stroke:none"
           d="M 0.40625,-2.53125 C 0.796875,-3.671875 1.890625,-3.6875 2,-3.6875 c 1.5,0 1.609375,1.75 1.609375,2.53125 0,0.609375 -0.046875,0.78125 -0.125,0.984375 -0.21875,0.71875 -0.515625,1.875 -0.515625,2.140625 0,0.109375 0.046875,0.171875 0.125,0.171875 0.140625,0 0.21875,-0.21875 0.328125,-0.59375 C 3.65625,0.703125 3.75,0.140625 3.78125,-0.171875 c 0.03125,-0.125 0.046875,-0.25 0.09375,-0.390625 0.3125,-0.984375 0.953125,-2.46875 1.34375,-3.25 0.078125,-0.125 0.1875,-0.34375 0.1875,-0.390625 0,-0.09375 -0.09375,-0.09375 -0.109375,-0.09375 -0.03125,0 -0.09375,0 -0.125,0.0625 C 4.65625,-3.28125 4.25,-2.28125 3.859375,-1.28125 3.84375,-1.578125 3.84375,-2.34375 3.453125,-3.3125 3.203125,-3.921875 2.8125,-4.40625 2.125,-4.40625 c -1.25,0 -1.953125,1.515625 -1.953125,1.828125 0,0.09375 0.09375,0.09375 0.203125,0.09375 z m 0,0"
           id="path8307" />
      </symbol>
      <symbol
         overflow="visible"
         id="symbol1922">
        <path
           style="stroke:none"
           d="m 2.03125,-0.015625 c 0,-0.65625 -0.25,-1.046875 -0.640625,-1.046875 -0.328125,0 -0.53125,0.25 -0.53125,0.53125 C 0.859375,-0.265625 1.0625,0 1.390625,0 1.5,0 1.640625,-0.046875 1.734375,-0.125 1.765625,-0.15625 1.78125,-0.15625 1.78125,-0.15625 c 0.015625,0 0.015625,0 0.015625,0.140625 0,0.75 -0.34375,1.34375 -0.671875,1.671875 -0.109375,0.109375 -0.109375,0.125 -0.109375,0.15625 0,0.078125 0.046875,0.109375 0.09375,0.109375 0.109375,0 0.921875,-0.765625 0.921875,-1.9375 z m 0,0"
           id="path2559" />
      </symbol>
      <symbol
         overflow="visible"
         id="symbol2105">
        <path
           style="stroke:none"
           d="m 2.046875,-3.984375 h 0.9375 c 0.203125,0 0.3125,0 0.3125,-0.203125 0,-0.109375 -0.109375,-0.109375 -0.28125,-0.109375 h -0.875 C 2.5,-5.71875 2.546875,-5.90625 2.546875,-5.96875 c 0,-0.171875 -0.125,-0.265625 -0.296875,-0.265625 -0.03125,0 -0.3125,0 -0.390625,0.359375 L 1.46875,-4.296875 h -0.9375 c -0.203125,0 -0.296875,0 -0.296875,0.1875 0,0.125 0.078125,0.125 0.28125,0.125 h 0.875 C 0.671875,-1.15625 0.625,-0.984375 0.625,-0.8125 0.625,-0.265625 1,0.109375 1.546875,0.109375 2.5625,0.109375 3.125,-1.34375 3.125,-1.421875 3.125,-1.53125 3.046875,-1.53125 3.015625,-1.53125 2.921875,-1.53125 2.90625,-1.5 2.859375,-1.390625 2.4375,-0.34375 1.90625,-0.109375 1.5625,-0.109375 c -0.203125,0 -0.3125,-0.125 -0.3125,-0.453125 0,-0.25 0.03125,-0.3125 0.0625,-0.484375 z m 0,0"
           id="path1471" />
      </symbol>
      <symbol
         overflow="visible"
         id="symbol6805">
        <path
           style="stroke:none"
           d=""
           id="path7221" />
      </symbol>
      <symbol
         overflow="visible"
         id="symbol6164">
        <path
           style="stroke:none"
           d="m 3.296875,2.390625 c 0,-0.03125 0,-0.046875 -0.171875,-0.21875 C 1.890625,0.921875 1.5625,-0.96875 1.5625,-2.5 c 0,-1.734375 0.375,-3.46875 1.609375,-4.703125 0.125,-0.125 0.125,-0.140625 0.125,-0.171875 0,-0.078125 -0.03125,-0.109375 -0.09375,-0.109375 -0.109375,0 -1,0.6875 -1.59375,1.953125 -0.5,1.09375 -0.625,2.203125 -0.625,3.03125 0,0.78125 0.109375,1.984375 0.65625,3.125 C 2.25,1.84375 3.09375,2.5 3.203125,2.5 c 0.0625,0 0.09375,-0.03125 0.09375,-0.109375 z m 0,0"
           id="path2606" />
      </symbol>
      <symbol
         overflow="visible"
         id="symbol7132">
        <path
           style="stroke:none"
           d="M 2.546875,2.5 V 2.09375 h -0.96875 v -9.171875 h 0.96875 v -0.40625 h -1.375 V 2.5 Z m 0,0"
           id="path5990" />
      </symbol>
      <symbol
         overflow="visible"
         id="symbol3999">
        <path
           style="stroke:none"
           d="m 4.578125,-3.1875 c 0,-0.796875 -0.046875,-1.59375 -0.390625,-2.328125 -0.453125,-0.96875 -1.28125,-1.125 -1.6875,-1.125 -0.609375,0 -1.328125,0.265625 -1.75,1.1875 -0.3125,0.6875 -0.359375,1.46875 -0.359375,2.265625 0,0.75 0.03125,1.640625 0.453125,2.40625 0.421875,0.796875 1.15625,1 1.640625,1 0.53125,0 1.296875,-0.203125 1.734375,-1.15625 0.3125,-0.6875 0.359375,-1.46875 0.359375,-2.25 z M 2.484375,0 C 2.09375,0 1.5,-0.25 1.328125,-1.203125 1.21875,-1.796875 1.21875,-2.71875 1.21875,-3.3125 c 0,-0.640625 0,-1.296875 0.078125,-1.828125 0.1875,-1.1875 0.9375,-1.28125 1.1875,-1.28125 0.328125,0 0.984375,0.1875 1.171875,1.171875 0.109375,0.5625 0.109375,1.3125 0.109375,1.9375 0,0.75 0,1.421875 -0.109375,2.0625 C 3.5,-0.296875 2.9375,0 2.484375,0 Z m 0,0"
           id="path8086" />
      </symbol>
      <symbol
         overflow="visible"
         id="symbol320">
        <path
           style="stroke:none"
           d="M 1.578125,-7.484375 H 0.21875 v 0.40625 H 1.1875 V 2.09375 H 0.21875 V 2.5 h 1.359375 z m 0,0"
           id="path5219" />
      </symbol>
      <symbol
         overflow="visible"
         id="symbol4474">
        <path
           style="stroke:none"
           d="m 2.875,-2.5 c 0,-0.765625 -0.109375,-1.96875 -0.65625,-3.109375 -0.59375,-1.21875 -1.453125,-1.875 -1.546875,-1.875 -0.0625,0 -0.109375,0.046875 -0.109375,0.109375 0,0.03125 0,0.046875 0.1875,0.234375 0.984375,0.984375 1.546875,2.5625 1.546875,4.640625 0,1.71875 -0.359375,3.46875 -1.59375,4.71875 C 0.5625,2.34375 0.5625,2.359375 0.5625,2.390625 0.5625,2.453125 0.609375,2.5 0.671875,2.5 0.765625,2.5 1.671875,1.8125 2.25,0.546875 2.765625,-0.546875 2.875,-1.65625 2.875,-2.5 Z m 0,0"
           id="path8173" />
      </symbol>
    </g>
    <g
       id="g9832">
      <symbol
         overflow="visible"
         id="symbol3347">
        <path
           style="stroke:none"
           d=""
           id="path8760" />
      </symbol>
      <symbol
         overflow="visible"
         id="symbol6968">
        <path
           style="stroke:none"
           d="M 0.40625,-2.53125 C 0.796875,-3.671875 1.890625,-3.6875 2,-3.6875 c 1.5,0 1.609375,1.75 1.609375,2.53125 0,0.609375 -0.046875,0.78125 -0.125,0.984375 -0.21875,0.71875 -0.515625,1.875 -0.515625,2.140625 0,0.109375 0.046875,0.171875 0.125,0.171875 0.140625,0 0.21875,-0.21875 0.328125,-0.59375 C 3.65625,0.703125 3.75,0.140625 3.78125,-0.171875 c 0.03125,-0.125 0.046875,-0.25 0.09375,-0.390625 0.3125,-0.984375 0.953125,-2.46875 1.34375,-3.25 0.078125,-0.125 0.1875,-0.34375 0.1875,-0.390625 0,-0.09375 -0.09375,-0.09375 -0.109375,-0.09375 -0.03125,0 -0.09375,0 -0.125,0.0625 C 4.65625,-3.28125 4.25,-2.28125 3.859375,-1.28125 3.84375,-1.578125 3.84375,-2.34375 3.453125,-3.3125 3.203125,-3.921875 2.8125,-4.40625 2.125,-4.40625 c -1.25,0 -1.953125,1.515625 -1.953125,1.828125 0,0.09375 0.09375,0.09375 0.203125,0.09375 z m 0,0"
           id="path1347" />
      </symbol>
      <symbol
         overflow="visible"
         id="symbol4657">
        <path
           style="stroke:none"
           d="m 2.046875,-3.984375 h 0.9375 c 0.203125,0 0.3125,0 0.3125,-0.203125 0,-0.109375 -0.109375,-0.109375 -0.28125,-0.109375 h -0.875 C 2.5,-5.71875 2.546875,-5.90625 2.546875,-5.96875 c 0,-0.171875 -0.125,-0.265625 -0.296875,-0.265625 -0.03125,0 -0.3125,0 -0.390625,0.359375 L 1.46875,-4.296875 h -0.9375 c -0.203125,0 -0.296875,0 -0.296875,0.1875 0,0.125 0.078125,0.125 0.28125,0.125 h 0.875 C 0.671875,-1.15625 0.625,-0.984375 0.625,-0.8125 0.625,-0.265625 1,0.109375 1.546875,0.109375 2.5625,0.109375 3.125,-1.34375 3.125,-1.421875 3.125,-1.53125 3.046875,-1.53125 3.015625,-1.53125 2.921875,-1.53125 2.90625,-1.5 2.859375,-1.390625 2.4375,-0.34375 1.90625,-0.109375 1.5625,-0.109375 c -0.203125,0 -0.3125,-0.125 -0.3125,-0.453125 0,-0.25 0.03125,-0.3125 0.0625,-0.484375 z m 0,0"
           id="path1736" />
      </symbol>
      <symbol
         overflow="visible"
         id="symbol4522">
        <path
           style="stroke:none"
           d=""
           id="path1869" />
      </symbol>
      <symbol
         overflow="visible"
         id="symbol4654">
        <path
           style="stroke:none"
           d="m 3.296875,2.390625 c 0,-0.03125 0,-0.046875 -0.171875,-0.21875 C 1.890625,0.921875 1.5625,-0.96875 1.5625,-2.5 c 0,-1.734375 0.375,-3.46875 1.609375,-4.703125 0.125,-0.125 0.125,-0.140625 0.125,-0.171875 0,-0.078125 -0.03125,-0.109375 -0.09375,-0.109375 -0.109375,0 -1,0.6875 -1.59375,1.953125 -0.5,1.09375 -0.625,2.203125 -0.625,3.03125 0,0.78125 0.109375,1.984375 0.65625,3.125 C 2.25,1.84375 3.09375,2.5 3.203125,2.5 c 0.0625,0 0.09375,-0.03125 0.09375,-0.109375 z m 0,0"
           id="path8872" />
      </symbol>
      <symbol
         overflow="visible"
         id="symbol8439">
        <path
           style="stroke:none"
           d="m 2.875,-2.5 c 0,-0.765625 -0.109375,-1.96875 -0.65625,-3.109375 -0.59375,-1.21875 -1.453125,-1.875 -1.546875,-1.875 -0.0625,0 -0.109375,0.046875 -0.109375,0.109375 0,0.03125 0,0.046875 0.1875,0.234375 0.984375,0.984375 1.546875,2.5625 1.546875,4.640625 0,1.71875 -0.359375,3.46875 -1.59375,4.71875 C 0.5625,2.34375 0.5625,2.359375 0.5625,2.390625 0.5625,2.453125 0.609375,2.5 0.671875,2.5 0.765625,2.5 1.671875,1.8125 2.25,0.546875 2.765625,-0.546875 2.875,-1.65625 2.875,-2.5 Z m 0,0"
           id="path658" />
      </symbol>
    </g>
  </defs>
  <g
     inkscape:label="Camada 1"
     inkscape:groupmode="layer"
     id="layer1"
     transform="translate(-5.2902437,-15.227385)">
    <path
       style="fill:#f9f9f9;fill-opacity:1;fill-rule:evenodd;stroke:none;stroke-width:3.39102"
       d="m 540.53115,781.12984 c -53.56302,-4.17354 -110.55042,-17.53713 -162.08551,-38.00921 -9.27563,-3.68471 -35.07874,-15.37786 -57.34025,-25.98478 -64.02623,-30.50655 -78.03561,-34.9407 -110.63295,-35.0168 -23.57964,-0.055 -33.84656,1.76885 -61.29302,10.88853 -28.81831,9.57551 -67.624667,28.02548 -115.201406,54.771 -6.541802,3.6775 -12.04588,6.47339 -12.231285,6.21306 C 21.561324,753.73132 27.029458,602.03888 33.89814,416.89733 40.76682,231.75579 46.422681,75.640654 46.46672,69.974808 l 0.08007,-10.30154 14.50371,6.036423 C 239.75152,140.0848 331.67022,168.00716 417.85536,174.09713 c 37.41078,2.6435 73.54305,-1.5744 100.84678,-11.77233 25.13917,-9.38947 42.12205,-19.09105 84.38235,-48.20395 43.08526,-29.681194 64.13468,-38.175553 91.42767,-36.895032 7.24629,0.339979 13.50464,0.947698 13.90742,1.350487 0.40279,0.402789 3.68925,134.519125 7.30323,298.036305 3.61401,163.51718 6.88774,307.01807 7.275,318.89087 l 0.70408,21.58692 -11.71005,11.16562 c -29.92298,28.53178 -63.18143,45.12943 -101.74187,50.77434 -18.03101,2.63958 -50.31152,3.61167 -69.71882,2.09948 z M 214.51999,521.552 c 2.22615,-0.43064 7.04237,-1.07501 10.70271,-1.43191 3.66033,-0.3569 7.00564,-1.216 7.43402,-1.90912 0.42837,-0.69312 2.59417,-1.66126 4.81289,-2.15143 6.06731,-1.34043 11.45453,-3.56813 11.45453,-4.73663 0,-0.57146 2.37348,-1.98868 5.27441,-3.14941 8.05807,-3.2242 28.05515,-24.16135 34.18917,-35.79643 2.78269,-5.27823 5.06317,-10.66168 5.06774,-11.96322 0.004,-1.30156 0.93681,-4.14698 2.07163,-6.32317 5.44971,-10.45061 5.41256,-45.50657 -0.0595,-56.08825 -1.11122,-2.14895 -2.02044,-5.06025 -2.02044,-6.46953 0,-1.40929 -1.81034,-5.23401 -4.02299,-8.49939 -2.21264,-3.26538 -4.03404,-6.70378 -4.04755,-7.64091 -0.0352,-2.44704 -9.28244,-12.51706 -24.54787,-26.7322 -2.7281,-2.5404 -6.13045,-4.61891 -7.56079,-4.61891 -1.43033,0 -4.23837,-1.51783 -6.24009,-3.37296 -2.00171,-1.85512 -4.67068,-3.44299 -5.93103,-3.52858 -1.26035,-0.0855 -2.89869,-0.29668 -3.64074,-0.4691 -0.74205,-0.1724 -2.75107,-0.40593 -4.46447,-0.51896 -1.71341,-0.11306 -2.75901,-0.78195 -2.32358,-1.4865 2.11201,-3.41732 -40.95216,-5.98968 -44.41342,-2.65297 -0.70495,0.67959 -3.44187,1.23561 -6.08206,1.23561 -2.64018,0 -7.67937,1.53263 -11.19821,3.40585 -3.51883,1.87323 -6.39788,3.0719 -6.39788,2.66372 0,-0.40817 -1.8214,0.19974 -4.04755,1.35093 -2.22615,1.15119 -4.04755,2.61096 -4.04755,3.24392 0,0.63297 -1.93009,1.95033 -4.28909,2.92746 -4.41362,1.82818 -22.69455,18.72326 -22.69455,20.97412 0,0.69332 -1.80184,3.23331 -4.00408,5.64446 -2.20224,2.41116 -4.72687,6.79639 -5.61029,9.74496 -0.88341,2.94858 -2.05142,5.36106 -2.59557,5.36106 -1.05412,0 -2.88041,5.48371 -3.45807,10.38336 -0.19213,1.62958 -1.06608,4.30214 -1.94211,5.93902 -2.53499,4.73668 -2.07537,38.45026 0.6092,44.68478 1.18795,2.75886 2.15991,6.4125 2.15991,8.1192 0,1.70671 1.42346,5.21721 3.16324,7.80114 1.73979,2.58391 3.55941,6.31451 4.04362,8.2902 0.48421,1.9757 2.70354,5.31296 4.93185,7.41613 2.22832,2.10316 4.05148,4.4328 4.05148,5.17696 0,1.96993 18.89212,19.56807 21.00688,19.56807 0.98461,0 3.44377,1.53248 5.46481,3.40551 2.02103,1.87304 5.23976,3.71851 7.15271,4.10105 1.91297,0.38255 5.29951,1.68038 7.52566,2.8841 5.56175,3.0073 32.14809,7.38989 38.4517,6.33852 1.11307,-0.18564 3.84517,-0.6899 6.07132,-1.12055 z"
       id="path1310"
       transform="scale(0.26458333)" />
    <path
       id="path2844"
       style="opacity:1;mix-blend-mode:darken;fill:url(#linearGradient10481);stroke:url(#linearGradient7077);stroke-width:1.065;stroke-linecap:butt;stroke-linejoin:miter;stroke-miterlimit:4;stroke-dasharray:none;stroke-opacity:1"
       d="m 6.5900969,163.07063 c 4.5802181,-0.21125 13.2362371,-2.37991 18.1759861,-3.68302 9.697887,-2.55833 21.239816,-2.79614 32.306039,2.49907 11.066224,5.2952 21.65627,16.12324 30.63999,14.10043 8.983709,-2.02281 16.361028,-16.89656 20.109328,-32.90084 3.74829,-16.00427 3.86713,-33.13872 -1.42782,-48.369658 C 101.09866,79.485682 90.389774,66.159408 75.575385,58.424772 60.761006,50.690136 41.841699,48.547935 24.052433,47.595975 19.563594,47.355762 15.147519,47.192168 10.784508,47.084379"
       sodipodi:nodetypes="csssssssc" />
    <circle
       style="fill:url(#radialGradient9945);fill-opacity:1;fill-rule:evenodd;stroke:#000000;stroke-width:0.381;stroke-miterlimit:4;stroke-dasharray:2.286, 2.286;stroke-dashoffset:0"
       id="path8668"
       cx="47.552681"
       cy="112.80744"
       r="25.187885" />
    <path
       style="fill:none;stroke:#ff0000;stroke-width:1.165;stroke-linecap:butt;stroke-linejoin:miter;stroke-miterlimit:4;stroke-dasharray:none;stroke-opacity:1"
       d="M 47.667174,112.57786 C 37.422435,100.32207 28.164631,91.877006 42.82467,80.278709 c 22.717893,-17.973273 43.926582,8.567334 37.430078,27.666021 -17.470809,51.36138 10.262318,6.98848 2.513246,42.74639"
       id="path14959"
       sodipodi:nodetypes="cssc" />
    <circle
       style="fill:#000000;fill-rule:evenodd;stroke-width:0.479951"
       id="path9168-8"
       cx="103.40781"
       cy="157.13176"
       r="1.6188511" />
    <circle
       style="fill:#000000;fill-rule:evenodd;stroke-width:0.479951"
       id="path9168-8-9"
       cx="82.638817"
       cy="150.82031"
       r="1.6188511" />
    <g
       id="g12792"
       transform="translate(22.930336,-53.259929)">
      <circle
         style="fill:#000000;fill-rule:evenodd;stroke-width:0.479951"
         id="path9168-8-3"
         cx="121.41245"
         cy="149.17828"
         r="1.6188511" />
    </g>
    <path
       style="fill:none;stroke:#000000;stroke-width:0.265;stroke-linecap:butt;stroke-linejoin:miter;stroke-miterlimit:4;stroke-dasharray:2.12, 2.12;stroke-dashoffset:0;stroke-opacity:1"
       d="m 12.137019,15.349759 c 21.77556,9.043402 43.550799,18.086672 64.4338,24.036175 20.883,5.949502 40.872981,8.805214 56.341691,4.640419 15.46871,-4.164795 26.41561,-15.349669 34.98313,-20.644722 8.56751,-5.295053 14.75488,-4.700114 20.9421,-4.105189"
       id="path1220"
       inkscape:path-effect="#path-effect1222"
       inkscape:original-d="m 12.137019,15.349759 c 21.775505,9.043534 43.550745,18.086803 65.32572,27.129809 19.991048,2.85609 39.981031,5.711801 59.971151,8.567306 10.9476,-11.185054 21.8945,-22.369928 32.84135,-33.555288 6.18789,0.595229 12.37526,1.190168 18.5625,1.784856"
       sodipodi:nodetypes="ccccc" />
    <path
       style="fill:none;stroke:#000000;stroke-width:0.264583;stroke-linecap:butt;stroke-linejoin:miter;stroke-miterlimit:4;stroke-dasharray:1.5875, 1.5875;stroke-dashoffset:0;stroke-opacity:1"
       d="M 5.3545673,200.26082 C 23.084224,190.38457 40.813794,180.50836 55.806803,180.5681 c 14.993009,0.0597 27.248772,10.05473 46.822967,17.43209 19.5742,7.37736 46.46548,12.13688 62.49338,10.3222 16.02791,-1.81467 21.19204,-10.20333 26.35631,-18.59222"
       id="path1224"
       inkscape:path-effect="#path-effect1226"
       inkscape:original-d="m 5.3545673,200.26082 c 17.7298317,-9.87594 35.4593987,-19.75215 53.1887017,-29.62861 12.256518,9.99566 24.512283,19.99065 36.768028,29.98558 26.892633,4.75997 53.783913,9.51949 80.675483,14.27884 5.16459,-8.38872 10.32872,-16.77738 15.49268,-25.16646"
       sodipodi:nodetypes="ccccc" />
    <path
       style="fill:none;stroke:#000000;stroke-width:0.665;stroke-linecap:butt;stroke-linejoin:miter;stroke-miterlimit:4;stroke-dasharray:none;stroke-opacity:1"
       d="m 82.767994,150.69112 c 13.886388,4.3956 28.050386,7.91398 42.379516,10.52722 2.6279,0.47926 5.27602,0.92946 7.94723,0.94254 2.67121,0.0131 5.38741,-0.42983 7.76255,-1.65223 3.16429,-1.62854 5.55521,-4.60148 6.71531,-7.96586 1.16009,-3.36438 1.13051,-7.08556 0.17169,-10.51274 -0.95881,-3.42717 -2.81708,-6.5669 -5.16114,-9.24464 -2.34405,-2.67773 -5.16632,-4.90802 -8.17376,-6.81069 -6.01488,-3.80534 -12.74292,-6.31163 -19.10622,-9.50032 -6.36331,-3.18869 -12.56761,-7.25719 -16.417177,-13.24387 -4.439804,-6.90459 -5.174073,-16.047109 -1.893137,-23.57178 3.280934,-7.524671 10.479714,-13.208192 18.560314,-14.653587 8.08059,-1.445396 16.80321,1.390228 22.48916,7.31097 5.68595,5.920743 8.1665,14.750902 6.39549,22.766434"
       id="path12119"
       sodipodi:nodetypes="csssc"
       inkscape:original-d="m 82.767994,150.69112 c 39.508606,-12.36939 37.351126,10.74395 42.379516,10.52722 5.4229,-0.23373 7.72988,-0.80479 15.70978,-0.70969 7.97992,0.0951 -34.83488,-53.69034 -41.971297,-57.27812 -12.1048,-6.085583 37.377657,-4.460014 45.551827,-8.147963"
       inkscape:path-effect="#path-effect12121" />
    <g
       id="g13144"
       transform="translate(96.452915,-194.74194)">
      <g
         style="fill:#000000;fill-opacity:1"
         id="g5571"
         transform="translate(-59.570374,141.22684)">
        <use
           xlink:href="#symbol8610"
           x="91.925003"
           y="81.962997"
           id="use540"
           width="100%"
           height="100%" />
      </g>
      <g
         style="fill:#000000;fill-opacity:1"
         id="g2769"
         transform="translate(-59.570374,141.22684)">
        <use
           xlink:href="#symbol170"
           x="102.028"
           y="81.962997"
           id="use394"
           width="100%"
           height="100%" />
      </g>
      <g
         style="fill:#000000;fill-opacity:1"
         id="g2156"
         transform="translate(-59.570374,141.22684)">
        <use
           xlink:href="#symbol8057"
           x="110.883"
           y="81.962997"
           id="use4350"
           width="100%"
           height="100%" />
      </g>
    </g>
    <g
       id="g13156"
       transform="matrix(0.81,0,0,0.81,58.77318,-27.482046)">
      <g
         style="fill:#000000;fill-opacity:1"
         id="g3873"
         transform="translate(-59.570374,141.22684)">
        <use
           xlink:href="#symbol4746"
           x="122.23339"
           y="81.962997"
           id="use6164"
           width="100%"
           height="100%" />
      </g>
      <g
         style="fill:#000000;fill-opacity:1"
         id="g4753"
         transform="translate(-59.570374,141.22684)">
        <use
           xlink:href="#symbol128"
           x="127.941"
           y="81.962997"
           id="use5752"
           width="100%"
           height="100%" />
      </g>
      <g
         style="fill:#000000;fill-opacity:1"
         id="g7687"
         transform="translate(-59.570374,141.22684)">
        <use
           xlink:href="#symbol4845"
           x="131.815"
           y="81.962997"
           id="use3960"
           width="100%"
           height="100%" />
      </g>
      <g
         style="fill:#000000;fill-opacity:1"
         id="g4775"
         transform="translate(-59.570374,141.22684)">
        <use
           xlink:href="#symbol2432"
           x="135.41299"
           y="78.348"
           id="use3099"
           width="100%"
           height="100%" />
      </g>
      <g
         style="fill:#000000;fill-opacity:1"
         id="g6980"
         transform="translate(-59.570374,141.22684)">
        <use
           xlink:href="#symbol8433"
           x="139.993"
           y="81.962997"
           id="use8252"
           width="100%"
           height="100%" />
      </g>
    </g>
    <g
       id="g13162"
       transform="matrix(0.729,0,0,0.729,-22.072831,-43.129549)">
      <g
         style="fill:#000000;fill-opacity:1"
         id="g1868"
         transform="translate(-59.570374,141.22684)">
        <use
           xlink:href="#symbol5886"
           x="147.188"
           y="81.962997"
           id="use6167"
           width="100%"
           height="100%" />
      </g>
      <g
         style="fill:#000000;fill-opacity:1"
         id="g9005"
         transform="translate(-59.570374,141.22684)">
        <use
           xlink:href="#symbol9610"
           x="151.821"
           y="83.457001"
           id="use4436"
           width="100%"
           height="100%" />
      </g>
    </g>
    <g
       id="g13180"
       transform="matrix(0.31019088,-0.43152191,0.43152191,0.31019088,-110.53225,77.942385)">
      <g
         style="fill:#000000;fill-opacity:1"
         id="g3688"
         transform="translate(-59.570374,141.22684)">
        <use
           xlink:href="#symbol8820"
           x="159.612"
           y="81.962997"
           id="use655"
           width="100%"
           height="100%" />
      </g>
      <g
         style="fill:#000000;fill-opacity:1"
         id="g8921"
         transform="translate(-59.570374,141.22684)">
        <use
           xlink:href="#symbol128"
           x="168.13699"
           y="81.962997"
           id="use2948"
           width="100%"
           height="100%" />
      </g>
      <g
         style="fill:#000000;fill-opacity:1"
         id="g8519"
         transform="translate(-59.570374,141.22684)">
        <use
           xlink:href="#symbol5886"
           x="172.011"
           y="81.962997"
           id="use1521"
           width="100%"
           height="100%" />
      </g>
      <g
         style="fill:#000000;fill-opacity:1"
         id="g7598"
         transform="translate(-59.570374,141.22684)">
        <use
           xlink:href="#symbol9610"
           x="176.644"
           y="83.457001"
           id="use7728"
           width="100%"
           height="100%" />
      </g>
      <g
         style="fill:#000000;fill-opacity:1"
         id="g4431"
         transform="translate(-59.570374,141.22684)">
        <use
           xlink:href="#symbol8412"
           x="181.11301"
           y="81.962997"
           id="use4504"
           width="100%"
           height="100%" />
      </g>
      <g
         style="fill:#000000;fill-opacity:1"
         id="g6555"
         transform="translate(-59.570374,141.22684)">
        <use
           xlink:href="#symbol8699"
           x="185.54436"
           y="81.962997"
           id="use7988"
           width="100%"
           height="100%" />
      </g>
      <g
         style="fill:#000000;fill-opacity:1"
         id="g9972"
         transform="translate(-59.570374,141.22684)">
        <use
           xlink:href="#symbol9610"
           x="190.036"
           y="83.457001"
           id="use6252"
           width="100%"
           height="100%" />
      </g>
      <g
         style="fill:#000000;fill-opacity:1"
         id="g7479"
         transform="translate(-59.570374,141.22684)">
        <use
           xlink:href="#symbol8433"
           x="194.505"
           y="81.962997"
           id="use3036"
           width="100%"
           height="100%" />
      </g>
    </g>
    <g
       id="g13383"
       transform="matrix(0.33290437,0.27290418,-0.27290417,0.33290437,71.069223,10.363651)">
      <g
         style="fill:#000000;fill-opacity:1"
         id="g8075"
         transform="translate(-59.570374,141.22684)">
        <use
           xlink:href="#symbol8699"
           x="201.701"
           y="81.962997"
           id="use9994"
           width="100%"
           height="100%" />
      </g>
      <g
         style="fill:#000000;fill-opacity:1"
         id="g4149"
         transform="translate(-59.570374,141.22684)">
        <use
           xlink:href="#symbol9610"
           x="206.19501"
           y="83.457001"
           id="use7820"
           width="100%"
           height="100%" />
      </g>
    </g>
    <g
       style="fill:#000000;fill-opacity:1"
       id="g8517"
       transform="translate(-76.52188,11.737061)">
      <use
         xlink:href="#symbol5886"
         x="213.98599"
         y="81.962997"
         id="use9303"
         width="100%"
         height="100%" />
    </g>
    <path
       style="fill:none;stroke:#000000;stroke-width:0.264583px;stroke-linecap:butt;stroke-linejoin:miter;stroke-opacity:1"
       d="m 47.667175,112.57786 14.892586,20.95058"
       id="path13295"
       inkscape:path-effect="#path-effect13297"
       inkscape:original-d="m 47.667175,112.57786 c 4.964459,6.98379 9.928654,13.96732 14.892586,20.95058" />
    <g
       inkscape:label=""
       transform="matrix(0.81,0,0,0.81,-50.235356,-22.755306)"
       id="g13743">
      <g
         id="g6931">
        <g
           style="fill:#000000;fill-opacity:1"
           id="g9423">
          <use
             xlink:href="#symbol7251"
             x="91.925003"
             y="81.962997"
             id="use2988"
             width="100%"
             height="100%" />
        </g>
        <g
           style="fill:#000000;fill-opacity:1"
           id="g872">
          <use
             xlink:href="#symbol2368"
             x="99.936996"
             y="81.962997"
             id="use4921"
             width="100%"
             height="100%" />
        </g>
        <g
           style="fill:#000000;fill-opacity:1"
           id="g2278">
          <use
             xlink:href="#symbol1281"
             x="103.811"
             y="81.962997"
             id="use3112"
             width="100%"
             height="100%" />
        </g>
        <g
           style="fill:#000000;fill-opacity:1"
           id="g5299">
          <use
             xlink:href="#symbol1362"
             x="109.551"
             y="81.962997"
             id="use5986"
             width="100%"
             height="100%" />
        </g>
      </g>
    </g>
    <circle
       style="fill:#000000;fill-rule:evenodd;stroke-width:0.277749"
       id="path9168"
       cx="47.552681"
       cy="112.80744"
       r="0.93683511" />
    <g
       inkscape:label=""
       transform="translate(-49.831139,-14.439911)"
       id="g17755"
       style="fill:#ff0000;stroke:#ff0000">
      <g
         id="g2174"
         style="fill:#ff0000;stroke:#ff0000">
        <g
           style="fill:#ff0000;fill-opacity:1;stroke:#ff0000"
           id="g4683">
          <use
             xlink:href="#symbol3872"
             x="91.925003"
             y="81.962997"
             id="use8750"
             width="100%"
             height="100%"
             style="fill:#ff0000;stroke:#ff0000" />
        </g>
        <g
           style="fill:#ff0000;fill-opacity:1;stroke:#ff0000"
           id="g1185">
          <use
             xlink:href="#symbol6164"
             x="97.637001"
             y="81.962997"
             id="use9908"
             width="100%"
             height="100%"
             style="fill:#ff0000;stroke:#ff0000" />
          <use
             xlink:href="#symbol7132"
             x="101.51145"
             y="81.962997"
             id="use1167"
             width="100%"
             height="100%"
             style="fill:#ff0000;stroke:#ff0000" />
          <use
             xlink:href="#symbol3999"
             x="104.27907"
             y="81.962997"
             id="use6529"
             width="100%"
             height="100%"
             style="fill:#ff0000;stroke:#ff0000" />
        </g>
        <g
           style="fill:#ff0000;fill-opacity:1;stroke:#ff0000"
           id="g4005">
          <use
             xlink:href="#symbol1922"
             x="109.26"
             y="81.962997"
             id="use8578"
             width="100%"
             height="100%"
             style="fill:#ff0000;stroke:#ff0000" />
        </g>
        <g
           style="fill:#ff0000;fill-opacity:1;stroke:#ff0000"
           id="g6158">
          <use
             xlink:href="#symbol2105"
             x="113.69136"
             y="81.962997"
             id="use9331"
             width="100%"
             height="100%"
             style="fill:#ff0000;stroke:#ff0000" />
        </g>
        <g
           style="fill:#ff0000;fill-opacity:1;stroke:#ff0000"
           id="g7895">
          <use
             xlink:href="#symbol320"
             x="117.285"
             y="81.962997"
             id="use554"
             width="100%"
             height="100%"
             style="fill:#ff0000;stroke:#ff0000" />
          <use
             xlink:href="#symbol4474"
             x="120.05261"
             y="81.962997"
             id="use2056"
             width="100%"
             height="100%"
             style="fill:#ff0000;stroke:#ff0000" />
        </g>
      </g>
    </g>
    <g
       inkscape:label=""
       transform="matrix(0.729,0,0,0.729,7.3454106,101.81382)"
       id="g19329">
      <g
         id="g9745">
        <g
           style="fill:#000000;fill-opacity:1"
           id="g468">
          <use
             xlink:href="#symbol6968"
             x="91.925003"
             y="81.962997"
             id="use3383"
             width="100%"
             height="100%" />
        </g>
        <g
           style="fill:#000000;fill-opacity:1"
           id="g4863">
          <use
             xlink:href="#symbol4654"
             x="97.637001"
             y="81.962997"
             id="use3864"
             width="100%"
             height="100%" />
        </g>
        <g
           style="fill:#000000;fill-opacity:1"
           id="g758">
          <use
             xlink:href="#symbol4657"
             x="101.511"
             y="81.962997"
             id="use3829"
             width="100%"
             height="100%" />
        </g>
        <g
           style="fill:#000000;fill-opacity:1"
           id="g6536">
          <use
             xlink:href="#symbol8439"
             x="105.109"
             y="81.962997"
             id="use3241"
             width="100%"
             height="100%" />
        </g>
      </g>
    </g>
  </g>
</svg>
