<?xml version="1.0" encoding="UTF-8" standalone="no"?>
<!-- Created with Inkscape (http://www.inkscape.org/) -->

<svg
   width="199.32014mm"
   height="191.14711mm"
   viewBox="0 0 199.32014 191.14711"
   version="1.1"
   id="svg5"
   inkscape:version="1.1 (c68e22c387, 2021-05-23)"
   sodipodi:docname="zeros-isolados6.svg"
   xmlns:inkscape="http://www.inkscape.org/namespaces/inkscape"
   xmlns:sodipodi="http://sodipodi.sourceforge.net/DTD/sodipodi-0.dtd"
   xmlns:xlink="http://www.w3.org/1999/xlink"
   xmlns="http://www.w3.org/2000/svg"
   xmlns:svg="http://www.w3.org/2000/svg">
  <sodipodi:namedview
     id="namedview7"
     pagecolor="#ffffff"
     bordercolor="#666666"
     borderopacity="1.0"
     inkscape:pageshadow="2"
     inkscape:pageopacity="0.0"
     inkscape:pagecheckerboard="0"
     inkscape:document-units="mm"
     showgrid="false"
     inkscape:zoom="1.0482005"
     inkscape:cx="324.36544"
     inkscape:cy="405.93381"
     inkscape:window-width="1920"
     inkscape:window-height="1017"
     inkscape:window-x="-8"
     inkscape:window-y="-8"
     inkscape:window-maximized="1"
     inkscape:current-layer="layer1" />
  <defs
     id="defs2">
    <inkscape:path-effect
       effect="bspline"
       id="path-effect4868"
       is_visible="true"
       lpeversion="1"
       weight="33.333333"
       steps="2"
       helper_size="0"
       apply_no_weight="true"
       apply_with_weight="true"
       only_selected="false" />
    <inkscape:path-effect
       effect="bspline"
       id="path-effect4200"
       is_visible="true"
       lpeversion="1"
       weight="33.333333"
       steps="2"
       helper_size="0"
       apply_no_weight="true"
       apply_with_weight="true"
       only_selected="false" />
    <inkscape:path-effect
       effect="bspline"
       id="path-effect2871"
       is_visible="true"
       lpeversion="1"
       weight="33.333333"
       steps="2"
       helper_size="0"
       apply_no_weight="true"
       apply_with_weight="true"
       only_selected="false" />
    <inkscape:path-effect
       effect="spiro"
       id="path-effect2753"
       is_visible="true"
       lpeversion="1" />
    <inkscape:path-effect
       effect="spiro"
       id="path-effect1794"
       is_visible="true"
       lpeversion="1" />
    <inkscape:path-effect
       effect="bspline"
       id="path-effect1092"
       is_visible="true"
       lpeversion="1"
       weight="33.333333"
       steps="2"
       helper_size="0"
       apply_no_weight="true"
       apply_with_weight="true"
       only_selected="false" />
    <inkscape:path-effect
       effect="bspline"
       id="path-effect1222"
       is_visible="true"
       lpeversion="1"
       weight="33.333333"
       steps="2"
       helper_size="0"
       apply_no_weight="true"
       apply_with_weight="true"
       only_selected="false" />
    <radialGradient
       inkscape:collect="always"
       xlink:href="#linearGradient9943"
       id="radialGradient9945"
       cx="62.155659"
       cy="10.607782"
       fx="62.155659"
       fy="10.607782"
       r="17.491587"
       gradientUnits="userSpaceOnUse"
       gradientTransform="matrix(-0.59272374,1.4424653,-2.3999024,-0.98606781,122.89962,98.164157)" />
    <linearGradient
       inkscape:collect="always"
       id="linearGradient9943">
      <stop
         style="stop-color:#80ffe6;stop-opacity:1;"
         offset="0"
         id="stop9939" />
      <stop
         style="stop-color:#80ffe6;stop-opacity:0;"
         offset="1"
         id="stop9941" />
    </linearGradient>
    <inkscape:path-effect
       effect="bspline"
       id="path-effect1226"
       is_visible="true"
       lpeversion="1"
       weight="33.333333"
       steps="2"
       helper_size="0"
       apply_no_weight="true"
       apply_with_weight="true"
       only_selected="false" />
    <radialGradient
       inkscape:collect="always"
       xlink:href="#linearGradient9943"
       id="radialGradient9945-6"
       cx="62.155659"
       cy="10.607782"
       fx="62.155659"
       fy="10.607782"
       r="17.491587"
       gradientUnits="userSpaceOnUse"
       gradientTransform="matrix(-0.59272374,1.4424653,-2.3999024,-0.98606781,159.84613,139.5728)" />
    <g
       id="g2127">
      <symbol
         overflow="visible"
         id="symbol5910">
        <path
           style="stroke:none"
           d=""
           id="path3898" />
      </symbol>
      <symbol
         overflow="visible"
         id="symbol8443">
        <path
           style="stroke:none"
           d="M 6.328125,-5.765625 C 6.4375,-6.171875 6.609375,-6.46875 7.40625,-6.5 c 0.046875,0 0.171875,-0.015625 0.171875,-0.203125 0,0 0,-0.109375 -0.125,-0.109375 -0.328125,0 -0.6875,0.03125 -1.015625,0.03125 -0.34375,0 -0.71875,-0.03125 -1.046875,-0.03125 -0.0625,0 -0.171875,0 -0.171875,0.203125 C 5.21875,-6.5 5.3125,-6.5 5.390625,-6.5 c 0.578125,0.015625 0.6875,0.21875 0.6875,0.4375 0,0.03125 -0.03125,0.1875 -0.03125,0.203125 l -0.90625,3.5625 C 4.8125,-0.953125 3.65625,-0.09375 2.65625,-0.09375 c -0.671875,0 -1.203125,-0.4375 -1.203125,-1.296875 0,-0.015625 0,-0.328125 0.109375,-0.765625 L 2.515625,-6.046875 C 2.609375,-6.40625 2.625,-6.5 3.359375,-6.5 c 0.265625,0 0.34375,0 0.34375,-0.203125 0,-0.109375 -0.109375,-0.109375 -0.140625,-0.109375 -0.28125,0 -1,0.03125 -1.28125,0.03125 -0.28125,0 -1,-0.03125 -1.28125,-0.03125 -0.078125,0 -0.1875,0 -0.1875,0.203125 C 0.8125,-6.5 0.890625,-6.5 1.09375,-6.5 c 0.015625,0 0.203125,0 0.375,0.015625 0.171875,0.03125 0.265625,0.03125 0.265625,0.171875 0,0.046875 -0.109375,0.46875 -0.171875,0.703125 l -0.21875,0.875 C 1.25,-4.34375 0.78125,-2.46875 0.734375,-2.265625 0.671875,-2 0.671875,-1.84375 0.671875,-1.6875 c 0,1.203125 0.90625,1.90625 1.953125,1.90625 1.25,0 2.484375,-1.125 2.8125,-2.4375 z m 0,0"
           id="path573" />
      </symbol>
      <symbol
         overflow="visible"
         id="symbol3355">
        <path
           style="stroke:none"
           d="M 6.265625,-5.671875 C 6.75,-6.453125 7.171875,-6.484375 7.53125,-6.5 c 0.125,-0.015625 0.140625,-0.171875 0.140625,-0.1875 0,-0.078125 -0.0625,-0.125 -0.140625,-0.125 -0.25,0 -0.546875,0.03125 -0.8125,0.03125 -0.328125,0 -0.671875,-0.03125 -0.984375,-0.03125 -0.0625,0 -0.1875,0 -0.1875,0.1875 0,0.109375 0.078125,0.125 0.15625,0.125 0.265625,0.015625 0.453125,0.125 0.453125,0.328125 0,0.15625 -0.140625,0.375 -0.140625,0.375 l -3.0625,4.875 -0.6875,-5.28125 C 2.265625,-6.375 2.5,-6.5 2.953125,-6.5 c 0.140625,0 0.25,0 0.25,-0.203125 0,-0.078125 -0.078125,-0.109375 -0.125,-0.109375 -0.40625,0 -0.828125,0.03125 -1.25,0.03125 -0.171875,0 -0.359375,0 -0.546875,0 -0.171875,0 -0.359375,-0.03125 -0.53125,-0.03125 -0.078125,0 -0.1875,0 -0.1875,0.1875 0,0.125 0.078125,0.125 0.25,0.125 0.546875,0 0.5625,0.09375 0.59375,0.34375 L 2.1875,-0.015625 C 2.21875,0.1875 2.265625,0.21875 2.390625,0.21875 c 0.15625,0 0.203125,-0.046875 0.28125,-0.171875 z m 0,0"
           id="path4413" />
      </symbol>
      <symbol
         overflow="visible"
         id="symbol1329">
        <path
           style="stroke:none"
           d="m 1.328125,-0.828125 c 0.53125,-0.578125 0.828125,-0.828125 1.1875,-1.140625 0,0 0.609375,-0.53125 0.96875,-0.890625 C 4.4375,-3.78125 4.65625,-4.265625 4.65625,-4.3125 c 0,-0.09375 -0.09375,-0.09375 -0.109375,-0.09375 -0.078125,0 -0.09375,0.015625 -0.15625,0.109375 -0.296875,0.484375 -0.5,0.640625 -0.734375,0.640625 -0.25,0 -0.359375,-0.15625 -0.515625,-0.328125 -0.1875,-0.21875 -0.359375,-0.421875 -0.6875,-0.421875 -0.75,0 -1.203125,0.921875 -1.203125,1.140625 0,0.046875 0.03125,0.109375 0.109375,0.109375 0.09375,0 0.109375,-0.046875 0.140625,-0.109375 0.1875,-0.46875 0.765625,-0.46875 0.84375,-0.46875 0.203125,0 0.390625,0.0625 0.625,0.140625 0.40625,0.15625 0.515625,0.15625 0.765625,0.15625 -0.359375,0.421875 -1.1875,1.140625 -1.375,1.296875 l -0.90625,0.84375 C 0.78125,-0.625 0.421875,-0.0625 0.421875,0.015625 c 0,0.09375 0.109375,0.09375 0.125,0.09375 0.078125,0 0.09375,-0.015625 0.15625,-0.125 0.234375,-0.359375 0.53125,-0.625 0.859375,-0.625 0.21875,0 0.328125,0.09375 0.578125,0.375 0.15625,0.21875 0.34375,0.375 0.625,0.375 1,0 1.578125,-1.265625 1.578125,-1.53125 0,-0.046875 -0.046875,-0.109375 -0.125,-0.109375 -0.09375,0 -0.109375,0.0625 -0.140625,0.140625 C 3.84375,-0.75 3.203125,-0.5625 2.875,-0.5625 c -0.1875,0 -0.375,-0.0625 -0.578125,-0.125 -0.34375,-0.125 -0.5,-0.171875 -0.703125,-0.171875 -0.015625,0 -0.171875,0 -0.265625,0.03125 z m 0,0"
           id="path1011" />
      </symbol>
      <symbol
         overflow="visible"
         id="symbol929">
        <path
           style="stroke:none"
           d="m 2.859375,-6.8125 c 0,0 0,-0.109375 -0.125,-0.109375 -0.234375,0 -0.953125,0.078125 -1.21875,0.109375 -0.078125,0 -0.1875,0.015625 -0.1875,0.1875 0,0.125 0.09375,0.125 0.234375,0.125 0.484375,0 0.5,0.0625 0.5,0.171875 L 2.03125,-6.125 0.59375,-0.390625 c -0.046875,0.140625 -0.046875,0.15625 -0.046875,0.21875 0,0.234375 0.203125,0.28125 0.296875,0.28125 0.15625,0 0.3125,-0.125 0.359375,-0.265625 l 0.1875,-0.75 0.21875,-0.890625 C 1.671875,-2.03125 1.734375,-2.25 1.78125,-2.46875 1.796875,-2.53125 1.890625,-2.859375 1.890625,-2.921875 1.921875,-3.015625 2.234375,-3.5625 2.578125,-3.84375 2.796875,-4 3.09375,-4.1875 3.53125,-4.1875 c 0.421875,0 0.53125,0.34375 0.53125,0.703125 0,0.53125 -0.375,1.625 -0.609375,2.234375 C 3.375,-1.03125 3.3125,-0.90625 3.3125,-0.703125 c 0,0.46875 0.359375,0.8125 0.828125,0.8125 0.9375,0 1.296875,-1.453125 1.296875,-1.53125 0,-0.109375 -0.078125,-0.109375 -0.109375,-0.109375 -0.109375,0 -0.109375,0.03125 -0.15625,0.1875 -0.140625,0.53125 -0.46875,1.234375 -1.015625,1.234375 -0.171875,0 -0.234375,-0.09375 -0.234375,-0.328125 0,-0.25 0.078125,-0.484375 0.171875,-0.703125 0.15625,-0.4375 0.609375,-1.625 0.609375,-2.203125 0,-0.640625 -0.390625,-1.0625 -1.140625,-1.0625 -0.625,0 -1.109375,0.3125 -1.484375,0.765625 z m 0,0"
           id="path9857" />
      </symbol>
      <symbol
         overflow="visible"
         id="symbol7305">
        <path
           style="stroke:none"
           d="M 0.40625,-2.53125 C 0.796875,-3.671875 1.890625,-3.6875 2,-3.6875 c 1.5,0 1.609375,1.75 1.609375,2.53125 0,0.609375 -0.046875,0.78125 -0.125,0.984375 -0.21875,0.71875 -0.515625,1.875 -0.515625,2.140625 0,0.109375 0.046875,0.171875 0.125,0.171875 0.140625,0 0.21875,-0.21875 0.328125,-0.59375 C 3.65625,0.703125 3.75,0.140625 3.78125,-0.171875 c 0.03125,-0.125 0.046875,-0.25 0.09375,-0.390625 0.3125,-0.984375 0.953125,-2.46875 1.34375,-3.25 0.078125,-0.125 0.1875,-0.34375 0.1875,-0.390625 0,-0.09375 -0.09375,-0.09375 -0.109375,-0.09375 -0.03125,0 -0.09375,0 -0.125,0.0625 C 4.65625,-3.28125 4.25,-2.28125 3.859375,-1.28125 3.84375,-1.578125 3.84375,-2.34375 3.453125,-3.3125 3.203125,-3.921875 2.8125,-4.40625 2.125,-4.40625 c -1.25,0 -1.953125,1.515625 -1.953125,1.828125 0,0.09375 0.09375,0.09375 0.203125,0.09375 z m 0,0"
           id="path2739" />
      </symbol>
      <symbol
         overflow="visible"
         id="symbol3506">
        <path
           style="stroke:none"
           d="m 2.046875,-3.984375 h 0.9375 c 0.203125,0 0.3125,0 0.3125,-0.203125 0,-0.109375 -0.109375,-0.109375 -0.28125,-0.109375 h -0.875 C 2.5,-5.71875 2.546875,-5.90625 2.546875,-5.96875 c 0,-0.171875 -0.125,-0.265625 -0.296875,-0.265625 -0.03125,0 -0.3125,0 -0.390625,0.359375 L 1.46875,-4.296875 h -0.9375 c -0.203125,0 -0.296875,0 -0.296875,0.1875 0,0.125 0.078125,0.125 0.28125,0.125 h 0.875 C 0.671875,-1.15625 0.625,-0.984375 0.625,-0.8125 0.625,-0.265625 1,0.109375 1.546875,0.109375 2.5625,0.109375 3.125,-1.34375 3.125,-1.421875 3.125,-1.53125 3.046875,-1.53125 3.015625,-1.53125 2.921875,-1.53125 2.90625,-1.5 2.859375,-1.390625 2.4375,-0.34375 1.90625,-0.109375 1.5625,-0.109375 c -0.203125,0 -0.3125,-0.125 -0.3125,-0.453125 0,-0.25 0.03125,-0.3125 0.0625,-0.484375 z m 0,0"
           id="path7228" />
      </symbol>
      <symbol
         overflow="visible"
         id="symbol9880">
        <path
           style="stroke:none"
           d="m 1.578125,-0.78125 c -0.09375,0.390625 -0.109375,0.46875 -0.90625,0.46875 -0.15625,0 -0.265625,0 -0.265625,0.1875 C 0.40625,0 0.484375,0 0.671875,0 h 3.3125 c 2.0625,0 4.03125,-2.109375 4.03125,-4.28125 0,-1.40625 -0.84375,-2.53125 -2.34375,-2.53125 h -3.34375 c -0.1875,0 -0.296875,0 -0.296875,0.1875 0,0.125 0.078125,0.125 0.28125,0.125 0.125,0 0.3125,0.015625 0.421875,0.015625 0.171875,0.03125 0.21875,0.046875 0.21875,0.171875 0,0.03125 0,0.0625 -0.03125,0.1875 z M 3.734375,-6.125 C 3.828125,-6.46875 3.84375,-6.5 4.28125,-6.5 h 1.0625 c 0.96875,0 1.796875,0.53125 1.796875,1.84375 0,0.484375 -0.1875,2.125 -1.046875,3.21875 -0.28125,0.375 -1.0625,1.125 -2.296875,1.125 h -1.125 c -0.140625,0 -0.15625,0 -0.21875,0 -0.09375,-0.015625 -0.125,-0.03125 -0.125,-0.109375 0,-0.03125 0,-0.046875 0.046875,-0.21875 z m 0,0"
           id="path4497" />
      </symbol>
      <symbol
         overflow="visible"
         id="symbol3208">
        <path
           style="stroke:none"
           d="m 2.03125,-0.015625 c 0,-0.65625 -0.25,-1.046875 -0.640625,-1.046875 -0.328125,0 -0.53125,0.25 -0.53125,0.53125 C 0.859375,-0.265625 1.0625,0 1.390625,0 1.5,0 1.640625,-0.046875 1.734375,-0.125 1.765625,-0.15625 1.78125,-0.15625 1.78125,-0.15625 c 0.015625,0 0.015625,0 0.015625,0.140625 0,0.75 -0.34375,1.34375 -0.671875,1.671875 -0.109375,0.109375 -0.109375,0.125 -0.109375,0.15625 0,0.078125 0.046875,0.109375 0.09375,0.109375 0.109375,0 0.921875,-0.765625 0.921875,-1.9375 z m 0,0"
           id="path7785" />
      </symbol>
      <symbol
         overflow="visible"
         id="symbol2572">
        <path
           style="stroke:none"
           d="m 3.734375,-6.125 c 0.0625,-0.234375 0.09375,-0.328125 0.28125,-0.359375 C 4.109375,-6.5 4.421875,-6.5 4.625,-6.5 c 0.703125,0 1.8125,0 1.8125,0.984375 0,0.34375 -0.15625,1.03125 -0.546875,1.421875 -0.265625,0.25 -0.78125,0.578125 -1.6875,0.578125 H 3.09375 Z m 1.4375,2.734375 c 1.015625,-0.21875 2.1875,-0.921875 2.1875,-1.921875 0,-0.859375 -0.890625,-1.5 -2.203125,-1.5 H 2.328125 c -0.203125,0 -0.296875,0 -0.296875,0.203125 C 2.03125,-6.5 2.125,-6.5 2.3125,-6.5 c 0.015625,0 0.203125,0 0.375,0.015625 0.1875,0.03125 0.265625,0.03125 0.265625,0.171875 0,0.03125 0,0.0625 -0.03125,0.1875 l -1.34375,5.34375 C 1.484375,-0.390625 1.46875,-0.3125 0.671875,-0.3125 0.5,-0.3125 0.40625,-0.3125 0.40625,-0.109375 0.40625,0 0.53125,0 0.546875,0 c 0.28125,0 0.984375,-0.03125 1.25,-0.03125 0.28125,0 1,0.03125 1.28125,0.03125 0.078125,0 0.1875,0 0.1875,-0.203125 0,-0.109375 -0.078125,-0.109375 -0.28125,-0.109375 -0.359375,0 -0.640625,0 -0.640625,-0.171875 0,-0.0625 0.015625,-0.109375 0.03125,-0.171875 l 0.65625,-2.640625 h 1.1875 c 0.90625,0 1.078125,0.5625 1.078125,0.90625 0,0.140625 -0.078125,0.453125 -0.140625,0.6875 C 5.09375,-1.421875 5,-1.0625 5,-0.859375 5,0.21875 6.203125,0.21875 6.328125,0.21875 c 0.84375,0 1.203125,-1 1.203125,-1.140625 0,-0.125 -0.109375,-0.125 -0.125,-0.125 -0.09375,0 -0.109375,0.0625 -0.125,0.140625 C 7.03125,-0.171875 6.59375,0 6.375,0 6.046875,0 5.96875,-0.21875 5.96875,-0.609375 c 0,-0.3125 0.0625,-0.8125 0.109375,-1.140625 0.015625,-0.140625 0.03125,-0.328125 0.03125,-0.46875 0,-0.765625 -0.671875,-1.078125 -0.9375,-1.171875 z m 0,0"
           id="path7529" />
      </symbol>
      <symbol
         overflow="visible"
         id="symbol5971">
        <path
           style="stroke:none"
           d=""
           id="path9320" />
      </symbol>
      <symbol
         overflow="visible"
         id="symbol3430">
        <path
           style="stroke:none"
           d="m 6.09375,-3.78125 c 0,-1.515625 -1.53125,-2.1875 -2.78125,-2.1875 -1.28125,0 -2.765625,0.703125 -2.765625,2.171875 v 3.65625 c 0,0.1875 0,0.359375 0.203125,0.359375 0.203125,0 0.203125,-0.171875 0.203125,-0.359375 V -3.75 c 0,-1.5 1.625,-1.8125 2.359375,-1.8125 0.453125,0 1.078125,0.09375 1.609375,0.421875 C 5.6875,-4.640625 5.6875,-4 5.6875,-3.734375 v 3.59375 c 0,0.1875 0,0.359375 0.203125,0.359375 0.203125,0 0.203125,-0.171875 0.203125,-0.359375 z m 0,0"
           id="path632" />
      </symbol>
      <symbol
         overflow="visible"
         id="symbol9795">
        <path
           style="stroke:none"
           d="M 4.671875,-3.5 C 5.0625,-3.484375 5.25,-3.453125 5.3125,-3.40625 c 0.015625,0.015625 0.015625,0.0625 0.03125,0.078125 0,0.09375 0.078125,0.09375 0.125,0.09375 0.15625,0 0.46875,-0.171875 0.46875,-0.375 0,-0.25 -0.421875,-0.296875 -0.640625,-0.3125 -0.015625,0 -0.15625,0 -0.15625,-0.015625 0,-0.015625 0.15625,-0.171875 0.234375,-0.265625 0.9375,-0.9375 2.265625,-2.4375 2.265625,-2.53125 0,-0.03125 0,-0.078125 -0.078125,-0.078125 -0.0625,0 -0.328125,0.0625 -0.609375,0.28125 -0.1875,0 -0.4375,0 -1.015625,-0.109375 C 5.390625,-6.734375 5.03125,-6.8125 4.640625,-6.8125 4,-6.8125 3.40625,-6.578125 2.875,-6.265625 c -0.890625,0.578125 -0.96875,1.15625 -0.96875,1.15625 0,0.03125 0,0.078125 0.09375,0.078125 0.1875,0 0.78125,-0.28125 0.875,-0.546875 C 3,-5.96875 3.125,-6.1875 3.8125,-6.1875 c 0.078125,0 0.359375,0 0.96875,0.109375 0.5,0.09375 0.90625,0.171875 1.265625,0.171875 0.109375,0 0.234375,0 0.34375,-0.03125 -0.53125,0.609375 -0.984375,1.125 -1.859375,2.015625 h -1 c -0.515625,0 -0.609375,0.296875 -0.609375,0.328125 C 2.921875,-3.5 3.015625,-3.5 3.1875,-3.5 H 4.09375 C 4.015625,-3.421875 3.546875,-2.953125 2.25,-1.78125 2.234375,-1.765625 1.515625,-1.109375 0.6875,-0.421875 0.5625,-0.3125 0.375,-0.140625 0.375,-0.0625 0.375,-0.046875 0.375,0 0.453125,0 c 0.125,0 0.328125,-0.09375 0.46875,-0.171875 0.171875,-0.109375 0.34375,-0.109375 0.5,-0.109375 0.453125,0 1.09375,0.078125 1.5625,0.125 C 3.453125,-0.078125 4.125,0 4.609375,0 5.34375,0 5.9375,-0.40625 6.25,-0.703125 6.859375,-1.234375 7.03125,-1.9375 7.03125,-2 7.03125,-2.0625 7,-2.078125 6.953125,-2.078125 c -0.1875,0 -0.796875,0.296875 -0.875,0.578125 -0.0625,0.1875 -0.171875,0.53125 -0.46875,0.875 -0.3125,0 -0.65625,0 -1.578125,-0.109375 -0.5,-0.0625 -1.234375,-0.15625 -1.765625,-0.15625 -0.0625,0 -0.296875,0 -0.484375,0.03125 z m 0,0"
           id="path8443" />
      </symbol>
      <symbol
         overflow="visible"
         id="symbol7619">
        <path
           style="stroke:none"
           d=""
           id="path7836" />
      </symbol>
      <symbol
         overflow="visible"
         id="symbol7524">
        <path
           style="stroke:none"
           d="M 3.59375,-2.21875 C 3.59375,-2.984375 3.5,-3.546875 3.1875,-4.03125 2.96875,-4.34375 2.53125,-4.625 1.984375,-4.625 c -1.625,0 -1.625,1.90625 -1.625,2.40625 0,0.5 0,2.359375 1.625,2.359375 1.609375,0 1.609375,-1.859375 1.609375,-2.359375 z M 1.984375,-0.0625 c -0.328125,0 -0.75,-0.1875 -0.890625,-0.75 C 1,-1.21875 1,-1.796875 1,-2.3125 1,-2.828125 1,-3.359375 1.09375,-3.734375 1.25,-4.28125 1.6875,-4.4375 1.984375,-4.4375 c 0.375,0 0.734375,0.234375 0.859375,0.640625 0.109375,0.375 0.125,0.875 0.125,1.484375 0,0.515625 0,1.03125 -0.09375,1.46875 -0.140625,0.640625 -0.609375,0.78125 -0.890625,0.78125 z m 0,0"
           id="path953" />
      </symbol>
      <symbol
         overflow="visible"
         id="symbol5374">
        <path
           style="stroke:none"
           d=""
           id="path1164" />
      </symbol>
      <symbol
         overflow="visible"
         id="symbol4634">
        <path
           style="stroke:none"
           d="m 3.296875,2.390625 c 0,-0.03125 0,-0.046875 -0.171875,-0.21875 C 1.890625,0.921875 1.5625,-0.96875 1.5625,-2.5 c 0,-1.734375 0.375,-3.46875 1.609375,-4.703125 0.125,-0.125 0.125,-0.140625 0.125,-0.171875 0,-0.078125 -0.03125,-0.109375 -0.09375,-0.109375 -0.109375,0 -1,0.6875 -1.59375,1.953125 -0.5,1.09375 -0.625,2.203125 -0.625,3.03125 0,0.78125 0.109375,1.984375 0.65625,3.125 C 2.25,1.84375 3.09375,2.5 3.203125,2.5 c 0.0625,0 0.09375,-0.03125 0.09375,-0.109375 z m 0,0"
           id="path9967" />
      </symbol>
      <symbol
         overflow="visible"
         id="symbol5743">
        <path
           style="stroke:none"
           d="m 2.875,-2.5 c 0,-0.765625 -0.109375,-1.96875 -0.65625,-3.109375 -0.59375,-1.21875 -1.453125,-1.875 -1.546875,-1.875 -0.0625,0 -0.109375,0.046875 -0.109375,0.109375 0,0.03125 0,0.046875 0.1875,0.234375 0.984375,0.984375 1.546875,2.5625 1.546875,4.640625 0,1.71875 -0.359375,3.46875 -1.59375,4.71875 C 0.5625,2.34375 0.5625,2.359375 0.5625,2.390625 0.5625,2.453125 0.609375,2.5 0.671875,2.5 0.765625,2.5 1.671875,1.8125 2.25,0.546875 2.765625,-0.546875 2.875,-1.65625 2.875,-2.5 Z m 0,0"
           id="path8201" />
      </symbol>
      <symbol
         overflow="visible"
         id="symbol9635">
        <path
           style="stroke:none"
           d=""
           id="path3009" />
      </symbol>
      <symbol
         overflow="visible"
         id="symbol582">
        <path
           style="stroke:none"
           d="m 2.25,-1.734375 c 0.578125,-0.25 0.828125,-0.34375 1,-0.4375 0.140625,-0.046875 0.203125,-0.078125 0.203125,-0.21875 0,-0.109375 -0.09375,-0.21875 -0.21875,-0.21875 -0.046875,0 -0.0625,0 -0.140625,0.0625 L 2.140625,-1.90625 2.25,-2.9375 c 0.015625,-0.125 0,-0.296875 -0.21875,-0.296875 -0.078125,0 -0.21875,0.046875 -0.21875,0.203125 0,0.0625 0.03125,0.265625 0.046875,0.34375 0.015625,0.109375 0.0625,0.625 0.078125,0.78125 L 0.984375,-2.546875 c -0.0625,-0.03125 -0.078125,-0.0625 -0.140625,-0.0625 -0.140625,0 -0.21875,0.109375 -0.21875,0.21875 0,0.140625 0.078125,0.1875 0.140625,0.203125 L 1.8125,-1.734375 c -0.5625,0.25 -0.828125,0.34375 -1,0.421875 -0.125,0.0625 -0.1875,0.09375 -0.1875,0.21875 0,0.125 0.078125,0.21875 0.21875,0.21875 0.046875,0 0.0625,0 0.140625,-0.0625 l 0.953125,-0.625 -0.125,1.109375 c 0,0.15625 0.140625,0.21875 0.21875,0.21875 0.09375,0 0.21875,-0.0625 0.21875,-0.21875 0,-0.0625 -0.03125,-0.265625 -0.03125,-0.328125 -0.015625,-0.125 -0.0625,-0.625 -0.078125,-0.78125 L 2.96875,-1.015625 C 3.15625,-0.875 3.171875,-0.875 3.234375,-0.875 c 0.125,0 0.21875,-0.09375 0.21875,-0.21875 0,-0.140625 -0.09375,-0.171875 -0.15625,-0.203125 z m 0,0"
           id="path1466" />
      </symbol>
    </g>
    <g
       id="g9610">
      <symbol
         overflow="visible"
         id="symbol4747">
        <path
           style="stroke:none"
           d=""
           id="path7702" />
      </symbol>
      <symbol
         overflow="visible"
         id="symbol9123">
        <path
           style="stroke:none"
           d="M 0.40625,-2.53125 C 0.796875,-3.671875 1.890625,-3.6875 2,-3.6875 c 1.5,0 1.609375,1.75 1.609375,2.53125 0,0.609375 -0.046875,0.78125 -0.125,0.984375 -0.21875,0.71875 -0.515625,1.875 -0.515625,2.140625 0,0.109375 0.046875,0.171875 0.125,0.171875 0.140625,0 0.21875,-0.21875 0.328125,-0.59375 C 3.65625,0.703125 3.75,0.140625 3.78125,-0.171875 c 0.03125,-0.125 0.046875,-0.25 0.09375,-0.390625 0.3125,-0.984375 0.953125,-2.46875 1.34375,-3.25 0.078125,-0.125 0.1875,-0.34375 0.1875,-0.390625 0,-0.09375 -0.09375,-0.09375 -0.109375,-0.09375 -0.03125,0 -0.09375,0 -0.125,0.0625 C 4.65625,-3.28125 4.25,-2.28125 3.859375,-1.28125 3.84375,-1.578125 3.84375,-2.34375 3.453125,-3.3125 3.203125,-3.921875 2.8125,-4.40625 2.125,-4.40625 c -1.25,0 -1.953125,1.515625 -1.953125,1.828125 0,0.09375 0.09375,0.09375 0.203125,0.09375 z m 0,0"
           id="path7488" />
      </symbol>
      <symbol
         overflow="visible"
         id="symbol5115">
        <path
           style="stroke:none"
           d="m 2.046875,-3.984375 h 0.9375 c 0.203125,0 0.3125,0 0.3125,-0.203125 0,-0.109375 -0.109375,-0.109375 -0.28125,-0.109375 h -0.875 C 2.5,-5.71875 2.546875,-5.90625 2.546875,-5.96875 c 0,-0.171875 -0.125,-0.265625 -0.296875,-0.265625 -0.03125,0 -0.3125,0 -0.390625,0.359375 L 1.46875,-4.296875 h -0.9375 c -0.203125,0 -0.296875,0 -0.296875,0.1875 0,0.125 0.078125,0.125 0.28125,0.125 h 0.875 C 0.671875,-1.15625 0.625,-0.984375 0.625,-0.8125 0.625,-0.265625 1,0.109375 1.546875,0.109375 2.5625,0.109375 3.125,-1.34375 3.125,-1.421875 3.125,-1.53125 3.046875,-1.53125 3.015625,-1.53125 2.921875,-1.53125 2.90625,-1.5 2.859375,-1.390625 2.4375,-0.34375 1.90625,-0.109375 1.5625,-0.109375 c -0.203125,0 -0.3125,-0.125 -0.3125,-0.453125 0,-0.25 0.03125,-0.3125 0.0625,-0.484375 z m 0,0"
           id="path4952" />
      </symbol>
      <symbol
         overflow="visible"
         id="symbol6362">
        <path
           style="stroke:none"
           d="m 1.90625,-0.53125 c 0,-0.28125 -0.234375,-0.53125 -0.515625,-0.53125 -0.296875,0 -0.53125,0.25 -0.53125,0.53125 C 0.859375,-0.234375 1.09375,0 1.390625,0 1.671875,0 1.90625,-0.234375 1.90625,-0.53125 Z m 0,0"
           id="path5240" />
      </symbol>
      <symbol
         overflow="visible"
         id="symbol1041">
        <path
           style="stroke:none"
           d=""
           id="path8821" />
      </symbol>
      <symbol
         overflow="visible"
         id="symbol8819">
        <path
           style="stroke:none"
           d="m 3.296875,2.390625 c 0,-0.03125 0,-0.046875 -0.171875,-0.21875 C 1.890625,0.921875 1.5625,-0.96875 1.5625,-2.5 c 0,-1.734375 0.375,-3.46875 1.609375,-4.703125 0.125,-0.125 0.125,-0.140625 0.125,-0.171875 0,-0.078125 -0.03125,-0.109375 -0.09375,-0.109375 -0.109375,0 -1,0.6875 -1.59375,1.953125 -0.5,1.09375 -0.625,2.203125 -0.625,3.03125 0,0.78125 0.109375,1.984375 0.65625,3.125 C 2.25,1.84375 3.09375,2.5 3.203125,2.5 c 0.0625,0 0.09375,-0.03125 0.09375,-0.109375 z m 0,0"
           id="path4408" />
      </symbol>
      <symbol
         overflow="visible"
         id="symbol2478">
        <path
           style="stroke:none"
           d="m 2.875,-2.5 c 0,-0.765625 -0.109375,-1.96875 -0.65625,-3.109375 -0.59375,-1.21875 -1.453125,-1.875 -1.546875,-1.875 -0.0625,0 -0.109375,0.046875 -0.109375,0.109375 0,0.03125 0,0.046875 0.1875,0.234375 0.984375,0.984375 1.546875,2.5625 1.546875,4.640625 0,1.71875 -0.359375,3.46875 -1.59375,4.71875 C 0.5625,2.34375 0.5625,2.359375 0.5625,2.390625 0.5625,2.453125 0.609375,2.5 0.671875,2.5 0.765625,2.5 1.671875,1.8125 2.25,0.546875 2.765625,-0.546875 2.875,-1.65625 2.875,-2.5 Z m 0,0"
           id="path4013" />
      </symbol>
      <symbol
         overflow="visible"
         id="symbol3713">
        <path
           style="stroke:none"
           d=""
           id="path9885" />
      </symbol>
      <symbol
         overflow="visible"
         id="symbol5388">
        <path
           style="stroke:none"
           d="m 2.328125,-4.4375 c 0,-0.1875 0,-0.1875 -0.203125,-0.1875 -0.453125,0.4375 -1.078125,0.4375 -1.359375,0.4375 v 0.25 c 0.15625,0 0.625,0 1,-0.1875 v 3.546875 c 0,0.234375 0,0.328125 -0.6875,0.328125 H 0.8125 V 0 c 0.125,0 0.984375,-0.03125 1.234375,-0.03125 0.21875,0 1.09375,0.03125 1.25,0.03125 V -0.25 H 3.03125 c -0.703125,0 -0.703125,-0.09375 -0.703125,-0.328125 z m 0,0"
           id="path9314" />
      </symbol>
      <symbol
         overflow="visible"
         id="symbol4261">
        <path
           style="stroke:none"
           d="M 3.515625,-1.265625 H 3.28125 c -0.015625,0.15625 -0.09375,0.5625 -0.1875,0.625 C 3.046875,-0.59375 2.515625,-0.59375 2.40625,-0.59375 H 1.125 c 0.734375,-0.640625 0.984375,-0.84375 1.390625,-1.171875 0.515625,-0.40625 1,-0.84375 1,-1.5 0,-0.84375 -0.734375,-1.359375 -1.625,-1.359375 -0.859375,0 -1.453125,0.609375 -1.453125,1.25 0,0.34375 0.296875,0.390625 0.375,0.390625 0.15625,0 0.359375,-0.125 0.359375,-0.375 0,-0.125 -0.046875,-0.375 -0.40625,-0.375 C 0.984375,-4.21875 1.453125,-4.375 1.78125,-4.375 c 0.703125,0 1.0625,0.546875 1.0625,1.109375 0,0.609375 -0.4375,1.078125 -0.65625,1.328125 L 0.515625,-0.265625 C 0.4375,-0.203125 0.4375,-0.1875 0.4375,0 h 2.875 z m 0,0"
           id="path1003" />
      </symbol>
      <symbol
         overflow="visible"
         id="symbol6447">
        <path
           style="stroke:none"
           d=""
           id="path3282" />
      </symbol>
      <symbol
         overflow="visible"
         id="symbol7472">
        <path
           style="stroke:none"
           d="m 0.84375,-0.4375 c -0.015625,0.09375 -0.0625,0.265625 -0.0625,0.28125 0,0.15625 0.125,0.21875 0.234375,0.21875 0.125,0 0.234375,-0.078125 0.28125,-0.140625 0.03125,-0.0625 0.078125,-0.296875 0.125,-0.4375 0.03125,-0.125 0.109375,-0.453125 0.140625,-0.625 0.046875,-0.15625 0.09375,-0.3125 0.125,-0.46875 0.078125,-0.28125 0.09375,-0.34375 0.296875,-0.625 C 2.171875,-2.515625 2.5,-2.875 3.03125,-2.875 c 0.390625,0 0.40625,0.359375 0.40625,0.484375 0,0.421875 -0.296875,1.1875 -0.40625,1.484375 -0.078125,0.203125 -0.109375,0.265625 -0.109375,0.375 0,0.375 0.296875,0.59375 0.65625,0.59375 0.703125,0 1,-0.953125 1,-1.0625 0,-0.09375 -0.078125,-0.09375 -0.109375,-0.09375 -0.09375,0 -0.09375,0.046875 -0.125,0.125 C 4.1875,-0.40625 3.875,-0.125 3.609375,-0.125 c -0.15625,0 -0.1875,-0.09375 -0.1875,-0.25 0,-0.15625 0.046875,-0.25 0.171875,-0.5625 0.078125,-0.21875 0.359375,-0.953125 0.359375,-1.34375 0,-0.671875 -0.53125,-0.796875 -0.90625,-0.796875 -0.578125,0 -0.96875,0.359375 -1.171875,0.640625 -0.046875,-0.484375 -0.453125,-0.640625 -0.75,-0.640625 -0.296875,0 -0.453125,0.21875 -0.546875,0.375 -0.15625,0.265625 -0.25,0.65625 -0.25,0.703125 0,0.078125 0.09375,0.078125 0.125,0.078125 0.09375,0 0.09375,-0.015625 0.140625,-0.203125 0.109375,-0.40625 0.25,-0.75 0.515625,-0.75 0.1875,0 0.234375,0.15625 0.234375,0.34375 0,0.125 -0.0625,0.390625 -0.125,0.578125 -0.046875,0.1875 -0.109375,0.46875 -0.140625,0.625 z m 0,0"
           id="path1017" />
      </symbol>
    </g>
  </defs>
  <g
     inkscape:label="Camada 1"
     inkscape:groupmode="layer"
     id="layer1"
     transform="translate(-8.831828,-80.26836)">
    <g
       id="g1011"
       transform="matrix(1.0705246,0,0,0.98952031,-4.949162,1.842769)">
      <path
         style="fill:#f9f9f9;fill-opacity:1;fill-rule:evenodd;stroke:none;stroke-width:0.897207"
         d="m 150.59842,270.26393 c -14.17188,-1.10425 -29.2498,-4.64003 -42.88513,-10.0566 -2.45417,-0.97491 -9.281251,-4.06873 -15.171271,-6.87514 -16.940274,-8.07153 -20.646922,-9.24473 -29.271635,-9.26486 -6.23878,-0.0146 -8.955236,0.468 -16.217111,2.88092 -7.624845,2.53352 -17.89236,7.41508 -30.480372,14.49149 -1.730852,0.97301 -3.187139,1.71275 -3.236194,1.64388 -0.04905,-0.0689 1.397722,-40.20417 3.215061,-89.18954 1.817338,-48.98536 3.313785,-90.290831 3.325437,-91.789919 l 0.02119,-2.725616 3.83744,1.597137 c 47.281311,19.678418 71.601464,27.066208 94.404615,28.677518 9.89827,0.69942 19.45826,-0.41656 26.68238,-3.11477 6.6514,-2.48429 11.14479,-5.05117 22.32616,-12.753962 11.39964,-7.85315 16.96897,-10.100615 24.19024,-9.761811 1.91724,0.08995 3.5731,0.250745 3.67967,0.357316 0.10657,0.106572 0.97611,35.591527 1.93231,78.855447 0.95621,43.26392 1.82238,81.23186 1.92484,84.3732 l 0.18629,5.71154 -3.09828,2.95424 c -7.91712,7.54903 -16.71676,11.94049 -26.9192,13.43404 -4.77071,0.69839 -13.31159,0.95559 -18.44644,0.55549 z M 64.341298,201.58396 c 0.589002,-0.11394 1.863294,-0.28443 2.831759,-0.37886 0.968462,-0.0944 1.853576,-0.32173 1.966918,-0.50512 0.113339,-0.18339 0.686374,-0.43954 1.27341,-0.56923 1.605309,-0.35466 3.030678,-0.94407 3.030678,-1.25323 0,-0.1512 0.627983,-0.52618 1.395521,-0.83329 2.132031,-0.85307 7.422925,-6.39269 9.045885,-9.47113 0.73625,-1.39654 1.33963,-2.82091 1.34084,-3.16527 0.001,-0.34437 0.24786,-1.09723 0.54812,-1.67301 1.4419,-2.76506 1.43207,-12.04028 -0.0157,-14.84001 -0.29401,-0.56858 -0.53457,-1.33886 -0.53457,-1.71173 0,-0.37288 -0.47899,-1.38484 -1.06442,-2.2488 -0.58542,-0.86397 -1.06734,-1.77371 -1.07091,-2.02166 -0.009,-0.64744 -2.455979,-3.3118 -6.494957,-7.07289 -0.72181,-0.67215 -1.622015,-1.22209 -2.000459,-1.22209 -0.378442,0 -1.121402,-0.40159 -1.651024,-0.89243 -0.529619,-0.49083 -1.235784,-0.91096 -1.569252,-0.9336 -0.333467,-0.0226 -0.766945,-0.0785 -0.963279,-0.12412 -0.196334,-0.0456 -0.727887,-0.1074 -1.181224,-0.13731 -0.45334,-0.0299 -0.729988,-0.20689 -0.614781,-0.3933 0.558803,-0.90417 -10.835259,-1.58477 -11.75105,-0.70193 -0.186518,0.17981 -0.910662,0.32692 -1.609212,0.32692 -0.698548,0 -2.031833,0.40551 -2.96286,0.90113 -0.931024,0.49563 -1.692772,0.81278 -1.692772,0.70478 0,-0.108 -0.481912,0.0529 -1.070914,0.35743 -0.589003,0.30459 -1.070915,0.69082 -1.070915,0.85829 0,0.16747 -0.510669,0.51602 -1.134821,0.77456 -1.167771,0.4837 -6.0046,4.95386 -6.0046,5.5494 0,0.18344 -0.476737,0.85548 -1.059413,1.49343 -0.582676,0.63795 -1.250651,1.79821 -1.484389,2.57835 -0.233736,0.78015 -0.542772,1.41845 -0.686745,1.41845 -0.278902,0 -0.762108,1.4509 -0.914947,2.74726 -0.05083,0.43116 -0.282067,1.13828 -0.51385,1.57137 -0.670716,1.25325 -0.549109,10.1733 0.161184,11.82285 0.314312,0.72994 0.571476,1.69664 0.571476,2.1482 0,0.45157 0.376624,1.38039 0.836941,2.06405 0.460319,0.68366 0.94176,1.67072 1.069874,2.19345 0.128114,0.52274 0.715312,1.40572 1.304885,1.96219 0.589577,0.55646 1.071955,1.17284 1.071955,1.36973 0,0.52121 4.99854,5.17739 5.55807,5.17739 0.260511,0 0.911164,0.40547 1.445897,0.90104 0.534731,0.49557 1.386354,0.98386 1.892488,1.08507 0.50614,0.10122 1.402162,0.4446 1.991164,0.76308 1.471547,0.79569 8.505849,1.95525 10.173679,1.67707 0.2945,-0.0491 1.017368,-0.18254 1.60637,-0.29648 z"
         id="path1310" />
      <path
         style="fill:none;stroke:#000000;stroke-width:0.264583;stroke-linecap:butt;stroke-linejoin:miter;stroke-miterlimit:4;stroke-dasharray:1.5875, 1.5875;stroke-dashoffset:0;stroke-opacity:1"
         d="m 12.937442,263.85081 c 17.729657,-9.87625 35.459227,-19.75246 50.452236,-19.69272 14.993009,0.0597 27.248772,10.05473 46.822962,17.43209 19.5742,7.37736 46.46549,12.13688 62.49339,10.3222 16.02791,-1.81467 21.19204,-10.20333 26.35631,-18.59222"
         id="path1224"
         inkscape:path-effect="#path-effect1226"
         inkscape:original-d="m 12.937442,263.85081 c 17.729832,-9.87594 35.459399,-19.75215 53.188702,-29.62861 12.256518,9.99566 24.512283,19.99065 36.768026,29.98558 26.89263,4.75997 53.78392,9.51949 80.67549,14.27884 5.16459,-8.38872 10.32872,-16.77738 15.49268,-25.16646"
         sodipodi:nodetypes="ccccc" />
      <path
         style="fill:none;stroke:#000000;stroke-width:0.265;stroke-linecap:butt;stroke-linejoin:miter;stroke-miterlimit:4;stroke-dasharray:2.12, 2.12;stroke-dashoffset:0;stroke-opacity:1"
         d="m 19.898395,79.378545 c 21.775558,9.043403 43.550798,18.086674 64.433797,24.036175 20.882998,5.94951 40.872978,8.80522 56.341688,4.64042 15.46871,-4.16479 26.41561,-15.349668 34.98313,-20.644722 8.56751,-5.295053 14.75488,-4.700116 20.9421,-4.105193"
         id="path1220"
         inkscape:path-effect="#path-effect1222"
         inkscape:original-d="m 19.898395,79.378545 c 21.775505,9.04353 43.550745,18.086801 65.325724,27.129815 19.991041,2.85609 39.981021,5.7118 59.971141,8.5673 10.9476,-11.18505 21.8945,-22.369925 32.84135,-33.555285 6.18789,0.59522 12.37526,1.19016 18.5625,1.78485"
         sodipodi:nodetypes="ccccc" />
    </g>
    <circle
       style="fill:url(#radialGradient9945);fill-opacity:1;fill-rule:evenodd;stroke:#000000;stroke-width:0.381;stroke-miterlimit:4;stroke-dasharray:2.286, 2.286;stroke-dashoffset:0"
       id="path8668"
       cx="60.863625"
       cy="176.70529"
       r="25.187885" />
    <circle
       style="fill:#000000;fill-rule:evenodd;stroke-width:0.277749"
       id="path9168"
       cx="60.863583"
       cy="176.70073"
       r="0.93683511" />
    <circle
       style="fill:#000000;fill-rule:evenodd;stroke-width:0.277749"
       id="path9168-8"
       cx="95.668274"
       cy="190.97957"
       r="0.93683511" />
    <circle
       style="fill:#000000;fill-rule:evenodd;stroke-width:0.277749"
       id="path9168-7"
       cx="120.87991"
       cy="191.09309"
       r="0.93683511" />
    <g
       id="g1248"
       transform="translate(60.328125,-53.545673)">
      <circle
         style="fill:url(#radialGradient9945-6);fill-opacity:1;fill-rule:evenodd;stroke:#000000;stroke-width:0.381;stroke-miterlimit:4;stroke-dasharray:2.286, 2.286;stroke-dashoffset:0"
         id="path8668-4"
         cx="97.810135"
         cy="218.11394"
         r="25.187885" />
      <circle
         style="fill:#000000;fill-rule:evenodd;stroke-width:0.277749"
         id="path9168-0"
         cx="97.810097"
         cy="218.10938"
         r="0.93683511" />
    </g>
    <path
       style="fill:none;stroke:#000000;stroke-width:0.264583px;stroke-linecap:butt;stroke-linejoin:miter;stroke-opacity:1"
       d="m 60.86358,176.34375 c 0.237954,-0.29744 0.475937,-0.59492 2.201329,-2.79628 1.725393,-2.20137 4.938067,-6.30645 10.025083,-2.58775 5.087015,3.71871 12.047811,15.26054 22.370378,19.81172 10.32257,4.55119 24.00619,2.11194 35.07227,-3.45093 11.06608,-5.56287 19.51423,-14.24899 27.96255,-22.93529"
       id="path1090"
       inkscape:path-effect="#path-effect1092"
       inkscape:original-d="m 60.86358,176.34375 c 0.238246,-0.29721 0.476226,-0.59469 0.713943,-0.89243 3.213069,-4.10499 6.425745,-8.21007 9.638221,-12.3155 6.961341,11.54256 13.922139,23.08439 20.882813,34.6262 13.684433,-2.43909 27.368053,-4.87834 41.051683,-7.31791 8.44875,-8.68621 16.8969,-17.37233 25.34495,-26.05889" />
    <g
       id="g1705"
       transform="matrix(0.81,0,0,0.81,158.9694,-126.96084)">
      <g
         style="fill:#000000;fill-opacity:1"
         id="g4029"
         transform="translate(-68.657298,204.33143)">
        <use
           xlink:href="#symbol8443"
           x="91.925003"
           y="81.962997"
           id="use1636"
           width="100%"
           height="100%" />
      </g>
      <g
         style="fill:#000000;fill-opacity:1"
         id="g8591"
         transform="translate(-68.657298,204.33143)">
        <use
           xlink:href="#symbol3430"
           x="102.028"
           y="81.962997"
           id="use75"
           width="100%"
           height="100%" />
      </g>
      <g
         style="fill:#000000;fill-opacity:1"
         id="g8788"
         transform="translate(-68.657298,204.33143)">
        <use
           xlink:href="#symbol3355"
           x="110.883"
           y="81.962997"
           id="use9103"
           width="100%"
           height="100%" />
      </g>
    </g>
    <g
       id="g1747"
       transform="matrix(0.6561,0,0,0.6561,21.72695,-5.3557037)">
      <g
         style="fill:#000000;fill-opacity:1"
         id="g6648"
         transform="translate(-68.657298,204.33143)">
        <use
           xlink:href="#symbol1329"
           x="122.23339"
           y="81.962997"
           id="use1761"
           width="100%"
           height="100%" />
      </g>
      <g
         style="fill:#000000;fill-opacity:1"
         id="g5345"
         transform="translate(-68.657298,204.33143)">
        <use
           xlink:href="#symbol7524"
           x="126.863"
           y="83.457001"
           id="use8186"
           width="100%"
           height="100%" />
      </g>
    </g>
    <g
       id="g1757"
       transform="matrix(0.6561,0,0,0.6561,41.10946,-49.253127)">
      <g
         style="fill:#000000;fill-opacity:1"
         id="g119"
         transform="translate(-68.657298,204.33143)">
        <use
           xlink:href="#symbol9795"
           x="134.653"
           y="81.962997"
           id="use9831"
           width="100%"
           height="100%" />
      </g>
      <g
         style="fill:#000000;fill-opacity:1"
         id="g6984"
         transform="translate(-68.657298,204.33143)">
        <use
           xlink:href="#symbol4634"
           x="142.66499"
           y="81.962997"
           id="use5666"
           width="100%"
           height="100%" />
      </g>
      <g
         style="fill:#000000;fill-opacity:1"
         id="g9431"
         transform="translate(-68.657298,204.33143)">
        <use
           xlink:href="#symbol929"
           x="146.539"
           y="81.962997"
           id="use1006"
           width="100%"
           height="100%" />
      </g>
      <g
         style="fill:#000000;fill-opacity:1"
         id="g3268"
         transform="translate(-68.657298,204.33143)">
        <use
           xlink:href="#symbol5743"
           x="152.27901"
           y="81.962997"
           id="use2370"
           width="100%"
           height="100%" />
      </g>
    </g>
    <g
       id="g1741"
       transform="matrix(0.59049,0,0,0.59049,106.32258,-10.192261)">
      <g
         style="fill:#000000;fill-opacity:1"
         id="g8665"
         transform="translate(-68.657298,204.33143)">
        <use
           xlink:href="#symbol7305"
           x="159.474"
           y="81.962997"
           id="use8157"
           width="100%"
           height="100%" />
      </g>
      <g
         style="fill:#000000;fill-opacity:1"
         id="g5695"
         transform="translate(-68.657298,204.33143)">
        <use
           xlink:href="#symbol4634"
           x="165.186"
           y="81.962997"
           id="use1567"
           width="100%"
           height="100%" />
      </g>
      <g
         style="fill:#000000;fill-opacity:1"
         id="g1138"
         transform="translate(-68.657298,204.33143)">
        <use
           xlink:href="#symbol3506"
           x="169.06"
           y="81.962997"
           id="use4878"
           width="100%"
           height="100%" />
      </g>
      <g
         style="fill:#000000;fill-opacity:1"
         id="g6188"
         transform="translate(-68.657298,204.33143)">
        <use
           xlink:href="#symbol582"
           x="172.658"
           y="78.348"
           id="use6808"
           width="100%"
           height="100%" />
      </g>
      <g
         style="fill:#000000;fill-opacity:1"
         id="g7871"
         transform="translate(-68.657298,204.33143)">
        <use
           xlink:href="#symbol5743"
           x="177.23801"
           y="81.962997"
           id="use5897"
           width="100%"
           height="100%" />
      </g>
    </g>
    <g
       id="g1729"
       transform="matrix(0.59049,0,0,0.59049,64.719844,-32.392652)">
      <g
         style="fill:#000000;fill-opacity:1"
         id="g5872"
         transform="translate(-68.657298,204.33143)">
        <use
           xlink:href="#symbol9880"
           x="184.433"
           y="81.962997"
           id="use2976"
           width="100%"
           height="100%" />
      </g>
      <g
         style="fill:#000000;fill-opacity:1"
         id="g3394"
         transform="translate(-68.657298,204.33143)">
        <use
           xlink:href="#symbol4634"
           x="192.95799"
           y="81.962997"
           id="use1734"
           width="100%"
           height="100%" />
      </g>
      <g
         style="fill:#000000;fill-opacity:1"
         id="g9977"
         transform="translate(-68.657298,204.33143)">
        <use
           xlink:href="#symbol7305"
           x="196.832"
           y="81.962997"
           id="use5155"
           width="100%"
           height="100%" />
      </g>
      <g
         style="fill:#000000;fill-opacity:1"
         id="g1952"
         transform="translate(-68.657298,204.33143)">
        <use
           xlink:href="#symbol4634"
           x="202.54401"
           y="81.962997"
           id="use740"
           width="100%"
           height="100%" />
      </g>
      <g
         style="fill:#000000;fill-opacity:1"
         id="g2621"
         transform="translate(-68.657298,204.33143)">
        <use
           xlink:href="#symbol3506"
           x="206.418"
           y="81.962997"
           id="use9238"
           width="100%"
           height="100%" />
      </g>
      <g
         style="fill:#000000;fill-opacity:1"
         id="g5303"
         transform="translate(-68.657298,204.33143)">
        <use
           xlink:href="#symbol582"
           x="210.01601"
           y="78.348"
           id="use9017"
           width="100%"
           height="100%" />
      </g>
      <g
         style="fill:#000000;fill-opacity:1"
         id="g9758"
         transform="translate(-68.657298,204.33143)">
        <use
           xlink:href="#symbol5743"
           x="214.59599"
           y="81.962997"
           id="use8123"
           width="100%"
           height="100%" />
      </g>
      <g
         style="fill:#000000;fill-opacity:1"
         id="g9837"
         transform="translate(-68.657298,204.33143)">
        <use
           xlink:href="#symbol3208"
           x="218.47"
           y="81.962997"
           id="use6995"
           width="100%"
           height="100%" />
      </g>
      <g
         style="fill:#000000;fill-opacity:1"
         id="g8289"
         transform="translate(-68.657298,204.33143)">
        <use
           xlink:href="#symbol2572"
           x="222.90137"
           y="81.962997"
           id="use925"
           width="100%"
           height="100%" />
      </g>
      <g
         style="fill:#000000;fill-opacity:1"
         id="g3346"
         transform="translate(-68.657298,204.33143)">
        <use
           xlink:href="#symbol582"
           x="230.53999"
           y="78.348"
           id="use9343"
           width="100%"
           height="100%" />
      </g>
      <g
         style="fill:#000000;fill-opacity:1"
         id="g3997"
         transform="translate(-68.657298,204.33143)">
        <use
           xlink:href="#symbol5743"
           x="235.12"
           y="81.962997"
           id="use5831"
           width="100%"
           height="100%" />
      </g>
    </g>
    <path
       style="fill:none;stroke:#000000;stroke-width:0.565;stroke-linecap:butt;stroke-linejoin:miter;stroke-miterlimit:4;stroke-dasharray:none;stroke-opacity:1"
       d="m 12.620836,215.31146 c 7.807942,3.56085 15.472814,7.4354 22.969921,11.61117 4.422008,2.46299 8.831969,5.05116 13.667131,6.54838 4.835162,1.49721 10.230404,1.81745 14.855958,-0.23796 4.250039,-1.88855 7.420093,-5.55068 10.266528,-9.22862 2.846434,-3.67794 5.596348,-7.56285 9.421977,-10.20747 2.760391,-1.90823 5.993529,-3.08953 9.310773,-3.59647 3.317245,-0.50694 6.718015,-0.35155 10.015686,0.27009 6.59535,1.24329 12.70016,4.30285 18.53605,7.61747 11.67818,6.63288 22.91503,14.52835 35.87083,18.06702 6.47789,1.76934 13.34923,2.38955 19.93659,1.08555 6.58736,-1.304 12.87395,-4.62799 17.14101,-9.81316 3.00038,-3.64595 4.93345,-8.10668 5.8886,-12.73084 0.95516,-4.62417 0.95714,-9.41236 0.35876,-14.09607 -1.19677,-9.36743 -4.73522,-18.24485 -7.76186,-27.19026 -3.01775,-8.91915 -5.57893,-18.07013 -10.0468,-26.35845 -4.46787,-8.28832 -11.16044,-15.80808 -19.99079,-19.07656 -5.51728,-2.04217 -11.58339,-2.31386 -17.40396,-1.45847 -5.82058,0.85538 -11.42987,2.79986 -16.85062,5.08597 -10.84149,4.57223 -21.27954,10.60867 -32.888265,12.52717 C 83.779827,146.136 71.32341,143.446 59.706387,139.39472 48.089363,135.34343 36.968221,129.93075 25.241672,126.20836 c -2.335656,-0.74141 -4.692873,-1.4149 -7.067668,-2.01933"
       id="path1792"
       inkscape:path-effect="#path-effect1794"
       inkscape:original-d="m 12.620836,215.31146 c 7.656905,3.87066 13.461961,9.50743 22.969921,11.61117 9.507961,2.10374 21.959991,12.78885 28.523089,6.31042 6.5631,-6.47843 7.067404,-20.86671 19.688505,-19.43609 12.621101,1.43063 13.546101,1.17768 37.862509,4.29109 24.31641,3.1134 73.453,27.34488 72.94843,9.33941 -0.50457,-18.00546 8.49777,-38.87244 -1.5145,-54.01717 -10.01226,-15.14474 -7.6569,-50.82017 -30.03759,-45.43501 -22.38068,5.38515 -43.58422,22.12826 -67.142845,16.15467 -23.55863,-5.9736 -47.117524,-11.94746 -70.676683,-17.92159 -23.5591589,-5.97413 -2.860458,2.7e-4 -7.067668,-2.01933"
       sodipodi:nodetypes="csssssssssc" />
    <circle
       style="fill:#000000;fill-rule:evenodd;stroke-width:0.277749"
       id="path9168-86"
       cx="147.51384"
       cy="175.34491"
       r="0.93683511" />
    <g
       id="g2693"
       transform="translate(10.709135,-81.032452)">
      <g
         style="fill:#000000;fill-opacity:1"
         id="g2903"
         transform="matrix(0.6561,0,0,0.6561,15.430212,227.14449)">
        <use
           xlink:href="#symbol9123"
           x="91.925003"
           y="81.962997"
           id="use4985"
           width="100%"
           height="100%" />
      </g>
      <g
         style="fill:#000000;fill-opacity:1"
         id="g1295"
         transform="matrix(0.6561,0,0,0.6561,15.430212,227.14449)">
        <use
           xlink:href="#symbol8819"
           x="97.637001"
           y="81.962997"
           id="use4750"
           width="100%"
           height="100%" />
      </g>
      <g
         style="fill:#000000;fill-opacity:1"
         id="g6934"
         transform="matrix(0.6561,0,0,0.6561,15.430212,227.14449)">
        <use
           xlink:href="#symbol5115"
           x="101.511"
           y="81.962997"
           id="use7569"
           width="100%"
           height="100%" />
      </g>
      <g
         style="fill:#000000;fill-opacity:1"
         id="g9975"
         transform="matrix(0.6561,0,0,0.6561,15.430212,227.14449)">
        <use
           xlink:href="#symbol5388"
           x="105.109"
           y="83.457001"
           id="use964"
           width="100%"
           height="100%" />
      </g>
      <g
         style="fill:#000000;fill-opacity:1"
         id="g8799"
         transform="matrix(0.6561,0,0,0.6561,15.430212,227.14449)">
        <use
           xlink:href="#symbol2478"
           x="109.578"
           y="81.962997"
           id="use5176"
           width="100%"
           height="100%" />
      </g>
    </g>
    <g
       id="g2705"
       transform="translate(26.415865,-82.817308)">
      <g
         style="fill:#000000;fill-opacity:1"
         id="g9370"
         transform="matrix(0.6561,0,0,0.6561,15.430212,227.14449)">
        <use
           xlink:href="#symbol9123"
           x="116.773"
           y="81.962997"
           id="use1464"
           width="100%"
           height="100%" />
      </g>
      <g
         style="fill:#000000;fill-opacity:1"
         id="g6353"
         transform="matrix(0.6561,0,0,0.6561,15.430212,227.14449)">
        <use
           xlink:href="#symbol8819"
           x="122.485"
           y="81.962997"
           id="use1901"
           width="100%"
           height="100%" />
      </g>
      <g
         style="fill:#000000;fill-opacity:1"
         id="g7829"
         transform="matrix(0.6561,0,0,0.6561,15.430212,227.14449)">
        <use
           xlink:href="#symbol5115"
           x="126.359"
           y="81.962997"
           id="use6210"
           width="100%"
           height="100%" />
      </g>
      <g
         style="fill:#000000;fill-opacity:1"
         id="g134"
         transform="matrix(0.6561,0,0,0.6561,15.430212,227.14449)">
        <use
           xlink:href="#symbol4261"
           x="129.957"
           y="83.457001"
           id="use518"
           width="100%"
           height="100%" />
      </g>
      <g
         style="fill:#000000;fill-opacity:1"
         id="g2792"
         transform="matrix(0.6561,0,0,0.6561,15.430212,227.14449)">
        <use
           xlink:href="#symbol2478"
           x="134.42599"
           y="81.962997"
           id="use7914"
           width="100%"
           height="100%" />
      </g>
    </g>
    <g
       id="g2713"
       transform="rotate(-30.154739,-44.172112,186.99779)">
      <g
         style="fill:#000000;fill-opacity:1"
         id="g159"
         transform="matrix(0.6561,0,0,0.6561,15.430212,227.14449)">
        <use
           xlink:href="#symbol6362"
           x="143.282"
           y="81.962997"
           id="use5332"
           width="100%"
           height="100%" />
      </g>
      <g
         style="fill:#000000;fill-opacity:1"
         id="g808"
         transform="matrix(0.6561,0,0,0.6561,15.430212,227.14449)">
        <use
           xlink:href="#symbol6362"
           x="147.71336"
           y="81.962997"
           id="use5009"
           width="100%"
           height="100%" />
      </g>
      <g
         style="fill:#000000;fill-opacity:1"
         id="g9449"
         transform="matrix(0.6561,0,0,0.6561,15.430212,227.14449)">
        <use
           xlink:href="#symbol6362"
           x="152.13477"
           y="81.962997"
           id="use792"
           width="100%"
           height="100%" />
      </g>
    </g>
    <g
       id="g2725"
       transform="translate(29.093149,-99.416465)">
      <g
         style="fill:#000000;fill-opacity:1"
         id="g7453"
         transform="matrix(0.6561,0,0,0.6561,15.430212,227.14449)">
        <use
           xlink:href="#symbol9123"
           x="159.88368"
           y="81.962997"
           id="use5862"
           width="100%"
           height="100%" />
      </g>
      <g
         style="fill:#000000;fill-opacity:1"
         id="g6663"
         transform="matrix(0.6561,0,0,0.6561,15.430212,227.14449)">
        <use
           xlink:href="#symbol8819"
           x="165.597"
           y="81.962997"
           id="use6555"
           width="100%"
           height="100%" />
      </g>
      <g
         style="fill:#000000;fill-opacity:1"
         id="g3960"
         transform="matrix(0.6561,0,0,0.6561,15.430212,227.14449)">
        <use
           xlink:href="#symbol5115"
           x="169.472"
           y="81.962997"
           id="use4684"
           width="100%"
           height="100%" />
      </g>
      <g
         style="fill:#000000;fill-opacity:1"
         id="g8492"
         transform="matrix(0.6561,0,0,0.6561,15.430212,227.14449)">
        <use
           xlink:href="#symbol7472"
           x="173.069"
           y="83.457001"
           id="use128"
           width="100%"
           height="100%" />
      </g>
      <g
         style="fill:#000000;fill-opacity:1"
         id="g9916"
         transform="matrix(0.6561,0,0,0.6561,15.430212,227.14449)">
        <use
           xlink:href="#symbol2478"
           x="178.492"
           y="81.962997"
           id="use4517"
           width="100%"
           height="100%" />
      </g>
    </g>
  </g>
</svg>
